<svg xmlns="http://www.w3.org/2000/svg" width="54" height="54" viewBox="0 0 54 54">
  <g id="certificate" transform="translate(-81 -536)">
    <g id="Group_347" data-name="Group 347" transform="translate(0.5 126)">
      <g id="tag" transform="translate(-126.5 -91)">
        <circle id="Ellipse_319" data-name="Ellipse 319" cx="27" cy="27" r="27" transform="translate(207 501)" fill="#288d85"/>
      </g>
    </g>
    <g id="Group_349" data-name="Group 349" transform="translate(576.17 405.134)">
      <path id="Path_282" data-name="Path 282" d="M-430.152,197.925h-12.47a2.878,2.878,0,0,0-1.8-1.913.446.446,0,0,1-.181-.351q-.015-4.209,0-8.417a.519.519,0,0,1,.26-.384A2.878,2.878,0,0,0-442.7,185.2c.04-.1.2-.17.323-.221a.732.732,0,0,1,.269-.007q8.06,0,16.121-.007c.351,0,.561.052.7.429a2.584,2.584,0,0,0,1.481,1.445c.132.057.3.229.3.351.021,1.3.012,2.594.008,3.892a.491.491,0,0,1-.049.136c-2.165-1.19-4.252-1.122-6.018.648S-431.342,195.74-430.152,197.925Zm-4.921-9.513c-1.781,0-3.563,0-5.344,0a.691.691,0,0,0-.779.643c-.018.4.287.687.765.716.09.006.181,0,.272,0q5.095,0,10.19,0a2.01,2.01,0,0,0,.537-.049.624.624,0,0,0,.358-1,1.133,1.133,0,0,0-.745-.3C-431.571,188.4-433.323,188.411-435.074,188.412Zm-1.729,4.753c1.207,0,2.414,0,3.621,0,.525,0,.842-.265.84-.676s-.324-.682-.845-.683q-3.576-.006-7.152,0c-.548,0-.874.28-.858.711.015.411.324.648.863.65C-439.157,193.167-437.98,193.165-436.8,193.165Z" transform="translate(-34.124 -33.931)" fill="#fff"/>
      <path id="Path_283" data-name="Path 283" d="M-463.138,165.372c-.09.629-.16,1.211-.267,1.785-.018.1-.184.185-.3.242a.663.663,0,0,1-.268.008h-17.119c-.871,0-1.04-.165-1.04-1.019q0-8.848,0-17.7c0-.855.176-1.032,1.036-1.032h25.86c.849,0,1.027.182,1.027,1.042q0,8.848,0,17.7c0,.831-.176,1.007-1.005,1.009-.559,0-1.117-.011-1.676,0-.264.007-.376-.084-.408-.351-.063-.539-.174-1.072-.227-1.611a.6.6,0,0,1,.177-.443,4.775,4.775,0,0,0,1.246-5.929,1.53,1.53,0,0,1-.134-.648c-.01-1.886-.005-3.772-.006-5.657,0-.774-.119-.914-.87-1.043a1.368,1.368,0,0,1-1.178-1.247c-.071-.579-.271-.77-.841-.771q-9.035,0-18.07,0c-.578,0-.781.188-.85.76a1.368,1.368,0,0,1-1.213,1.263c-.694.114-.835.273-.835.981q0,4.82,0,9.64c0,.709.133.861.831.981a1.376,1.376,0,0,1,1.216,1.263c.074.6.277.77.936.771h13.977Z" transform="translate(0 0)" fill="#fff"/>
      <path id="Path_284" data-name="Path 284" d="M-275.543,267.288a3.394,3.394,0,0,1-3.41-3.373,3.423,3.423,0,0,1,3.412-3.431,3.425,3.425,0,0,1,3.389,3.41A3.4,3.4,0,0,1-275.543,267.288Z" transform="translate(-184.782 -102.61)" fill="#fff"/>
      <path id="Path_285" data-name="Path 285" d="M-264.429,349.612h2.966l.661,4.454c-.555-.371-1.038-.7-1.525-1.02a.858.858,0,0,0-1.23,0l-1.535,1.03Z" transform="translate(-197.39 -183.668)" fill="#fff"/>
    </g>
  </g>
</svg>
