<?xml version="1.0" encoding="utf-8"?>
<!-- Generator: Adobe Illustrator 25.4.1, SVG Export Plug-In . SVG Version: 6.00 Build 0)  -->
<svg version="1.1" id="Layer_1" xmlns="http://www.w3.org/2000/svg" xmlns:xlink="http://www.w3.org/1999/xlink" x="0px" y="0px"
	 viewBox="0 0 83.5 93.3" style="enable-background:new 0 0 83.5 93.3;" xml:space="preserve">
<style type="text/css">
	.st0{fill:#15869C;}
	.st1{fill:#FFFFFF;}
</style>
<g>
	<path id="Intersection_1_00000050661852781824244590000010804467810438499751_" class="st0" d="M41.9,92c-4.4-0.9-14.3-2.3-21.9-9
		C-0.8,64.8,11.6,40.1,2.5,7.3C1.8,4.8,0.9,2.4,0,0h64.5c10.5,0,19,8.5,19,19v68.9c-9.3,3.4-19,5.2-28.9,5.4
		C50.3,93.3,46,92.9,41.9,92z"/>
	<g id="fillsurvey" transform="translate(27.953 7.444)">
		<g id="Group_7380" transform="translate(9.556 9.556)">
			<g id="Group_7379" transform="translate(0)">
				<path id="Path_4980" class="st1" d="M21.5,5.1c-0.2-0.2-0.6-0.2-0.9,0L10.2,15.6c-0.1,0.1-0.1,0.2-0.1,0.2l-0.9,2.6
					c-0.1,0.3,0.1,0.7,0.4,0.8c0.1,0,0.1,0,0.2,0c0.1,0,0.1,0,0.2,0l2.6-0.9c0.1,0,0.2-0.1,0.2-0.1L23.3,7.8c0.2-0.2,0.2-0.6,0-0.9
					c0,0,0,0,0,0L21.5,5.1z M12,17.3l-1.3,0.4l0.4-1.3l9.9-9.9L22,7.3L12,17.3z"/>
				<path id="Path_4981" class="st1" d="M0.6,1.3h19.8C20.7,1.3,21,1,21,0.6S20.7,0,20.4,0l0,0H0.6C0.3,0,0,0.3,0,0.6
					S0.3,1.3,0.6,1.3L0.6,1.3z"/>
				<path id="Path_4982" class="st1" d="M0.6,5h17.3c0.3,0,0.6-0.3,0.6-0.6s-0.3-0.6-0.6-0.6H0.6C0.3,3.7,0,4,0,4.3S0.3,5,0.6,5
					L0.6,5z"/>
				<path id="Path_4983" class="st1" d="M0.6,8.7h13.6c0.3,0,0.6-0.3,0.6-0.6s-0.3-0.6-0.6-0.6H0.6C0.3,7.4,0,7.7,0,8.1
					S0.3,8.7,0.6,8.7L0.6,8.7z"/>
				<path id="Path_4984" class="st1" d="M0.6,12.4h9.9c0.3,0,0.6-0.3,0.6-0.6s-0.3-0.6-0.6-0.6H0.6c-0.3,0-0.6,0.3-0.6,0.6
					S0.3,12.4,0.6,12.4L0.6,12.4z"/>
				<path id="Path_4985" class="st1" d="M8,14.9H0.6c-0.3,0-0.6,0.3-0.6,0.6s0.3,0.6,0.6,0.6l0,0H8c0.3,0,0.6-0.3,0.6-0.6
					S8.4,14.9,8,14.9z"/>
				<path id="Path_4986" class="st1" d="M6.8,18.6H0.6c-0.3,0-0.6,0.3-0.6,0.6s0.3,0.6,0.6,0.6h6.2c0.3,0,0.6-0.3,0.6-0.6
					S7.1,18.6,6.8,18.6L6.8,18.6z"/>
			</g>
		</g>
	</g>
</g>
</svg>
