<?xml version="1.0" encoding="utf-8"?>
<!-- Generator: Adobe Illustrator 24.0.0, SVG Export Plug-In . SVG Version: 6.00 Build 0)  -->
<svg version="1.1" id="Layer_1" xmlns="http://www.w3.org/2000/svg" xmlns:xlink="http://www.w3.org/1999/xlink" x="0px" y="0px"
	 viewBox="0 0 28 28" style="enable-background:new 0 0 28 28;" xml:space="preserve">
<style type="text/css">
	.st0{fill:#037A92;}
</style>
<g>
	<path class="st0" d="M14,0C6.3,0,0,6.3,0,14s6.3,14,14,14s14-6.3,14-14S21.7,0,14,0z M15.6,23.2c0,0.7-0.6,1.3-1.3,1.3h-1
		c-0.7,0-1.3-0.6-1.3-1.3v-1.4c0-0.7,0.6-1.3,1.3-1.3h1c0.7,0,1.3,0.6,1.3,1.3V23.2z M20.7,12c-0.5,0.8-1.6,1.8-3.2,3.2
		c-0.8,0.7-1.4,1.3-1.6,1.7c-0.1,0.2-0.2,0.6-0.2,1.1c-0.1,0.7-0.6,1.2-1.3,1.2h-1.1c-0.7,0-1.3-0.6-1.3-1.3c0-0.9,0.2-1.7,0.6-2.5
		c0.4-0.8,1.2-1.6,2.3-2.5c1.2-0.9,1.9-1.6,2.1-1.8c0.3-0.5,0.5-1,0.5-1.5c0-0.8-0.3-1.4-0.9-2c-0.6-0.5-1.5-0.8-2.5-0.8
		c-1,0-1.9,0.3-2.5,0.9c-0.5,0.4-0.9,1-1.1,1.7C10.2,9.6,9.7,10,9.1,9.9L7.2,9.7c-0.4,0-0.7-0.4-0.6-0.8c0.2-1.4,0.9-2.6,2.1-3.6
		c1.3-1.2,3.1-1.8,5.3-1.8c2.3,0,4.1,0.6,5.4,1.8c1.3,1.2,2,2.6,2,4.2C21.4,10.4,21.2,11.2,20.7,12z"/>
</g>
</svg>
