<svg xmlns="http://www.w3.org/2000/svg" width="19.014" height="19" viewBox="0 0 19.014 19">
  <g id="language" transform="translate(-10.038 -10.38)">
    <path id="Path_261" data-name="Path 261" d="M19.53,29.38A9.5,9.5,0,1,1,28.868,21.7,9.582,9.582,0,0,1,19.53,29.38Zm7.835-8.39c0-.159.08-.316.08-.475a.278.278,0,0,1-.159-.08c-.08,0-.237.316-.159.4.08,0,.08,0,.08.08-.078-.078.159.08.159.08Zm-15.513.792s.08-.237.08-.159l.159-.08v-.08h0l-.159-.08a.078.078,0,0,1-.08.08l.08.08h-.08a.078.078,0,0,0-.08-.08c0,.241,0,.318.08.318Zm.318-3.165Zm2.136-4.434h0a.078.078,0,0,0-.08-.08h0l-.08.08c-.078,0,.159.08.159,0Zm-.4.159Zm9.259-.949c.08,0,.237-.08.159-.08a.078.078,0,0,0,.08-.08h0c.08-.08.159-.08.237-.159a7.992,7.992,0,0,0-7.439-.316h-.08c.08,0-.08.08-.08.08a.783.783,0,0,1,.237.08h0c.08,0-.159.08-.08.08h.159v.08s.159-.08.159,0c0,0-.159.159-.159.08h.08c0-.08.159,0,.159.08,0,0-.237.159-.237.08h.08s-.159,0-.159.08h0c-.08.08-.08.08-.159.08h0c0,.08,0,0,.159,0l-.08.08h0c.08,0,.237-.08.159,0h0c.08-.08.237,0,.316,0a.078.078,0,0,0,.08.08l.08.08c0,.08-.08,0-.08,0,0,.08-.4-.08-.633,0h.159s.237-.08.237,0-.161.074-.161.074c.08.08-.08.08,0,.08l.237-.08-.159.08c.159,0,.316-.159.475-.237h-.08a.078.078,0,0,0-.08.08H16.6s-.08,0,0,.08h0s-.237.237-.237.159h-.076c-.08.08-.159-.08-.237,0,.08.08,0,.237,0,.237h0c.08,0-.159.237-.159.159h0a.078.078,0,0,1-.08.08h0c0,.08,0,.08-.08,0-.08,0,0,0,0,.08h0v-.08h-.08v.08h-.159c.08.08-.159.08-.159.08a.078.078,0,0,1,.08.08h0a.246.246,0,0,0-.159.08s.159,0,.159.08h0c0,.08-.08,0-.08.08h-.08v.08c-.159.08.08.08-.08.08.08,0,.08,0,.159.08h0l-.08.08s.159,0,0,.08h-.08c0,.08.08,0,.08,0a.278.278,0,0,1-.159.08h.08c0,.08-.159.08-.237.08,0,0,.08-.08,0-.08h0l-.08.08v-.08h-.08c0-.08.08,0,.08-.08h-.08v-.08h0c-.08,0-.159.159-.237.08h0c-.08,0-.08.08-.08,0h0s.08,0,0-.08h0c0-.159-.08.08-.08-.159a.078.078,0,0,0-.08.08c-.08-.08.159,0,0,0,0-.08-.08-.08,0-.08h-.08c.08,0,.08,0,.159-.08-.08-.08-.159.08-.159,0,.08-.159.08,0,.237-.08,0,0-.159-.08-.159-.159a.156.156,0,0,1-.159.159c.08,0,0-.159,0-.159h0c.08-.08,0,0-.08-.08h0c.08-.08.316-.08.316-.159a2.016,2.016,0,0,0-.4.159h0c-.08,0,.08-.08.08-.08h0s-.159,0-.159-.08h.237c-.08-.08-.159,0-.237,0,.08-.08.159-.08.316-.08h0s-.08.08-.08,0h0l-.159.08c-.08-.08.159-.08.159-.08h-.08l.237-.08h-.08c.08-.08.159-.08,0-.08v-.239c-.08,0-.237-.08-.316,0l.159.08c0,.08-.316.08-.159,0-.159-.159-.633.555-.712.712.08,0,.08,0,.08.08a.078.078,0,0,0-.08.08h.159c.08,0,.159,0,.159.08s-.08,0-.159.08a.078.078,0,0,0,.08.08H13.27v.159c-.08,0-.08,0-.08-.08h0v-.08c-.08,0-.159,0-.159-.08,0,0,0,.159-.08.08,0,.08.08.08.08.159.08,0,.08,0,.159.08-.08,0,.08.08.08.159l-.08-.08c0,.08.08.08.08.159h0v.08c-.08,0-.159-.159-.237-.159v.08h-.08c0,.08.237.159.237.237-.159-.08-.316-.08-.4-.159-.237.4.316.159.159.555h0c0,.159.08,0,.159.08,0,.08.08,0,.159-.08.08,0,.08-.08.159-.159.08.08.159.159.159.237l.08.08h0c.08.159.08,0,0,.08.08.08.237.08.159.237a.592.592,0,0,1,.316.08c-.08.08-.237,0-.237.159.08,0,.237-.159.316-.08-.08.159.316.159-.159.316-.4.159-.871,0-1.108.475.08-.08.555-.475.633-.237,0,.08-.159.08-.237.08,0,.08.08,0,.159,0h0a.078.078,0,0,1-.08.08h.08a.078.078,0,0,0,.08.08c-.08,0,.08.08.08.08h.159c0,.08-.159,0-.159.08h-.08a.078.078,0,0,1-.08.08c0,.08-.08,0-.08,0h0v-.08h0a.278.278,0,0,1,.159-.08h0s0-.08.08,0c0-.08-.08-.08-.159,0a.078.078,0,0,1,.08-.08h0c0,.08-.08.08-.159.08H13.2l-.08.08h0l-.08.08c.08.08,0-.08,0,.08l.08.08h-.08c0-.08-.08.08-.08,0-.08,0-.159.08-.237.08h0c0,.08.08-.08,0,.08a.078.078,0,0,0-.08.08s-.08-.159-.08-.08h0s.08.237-.08.316v-.159h0v.08h0v.08H12.4l.08.08h0l.08.08h0v.08h-.08l.08.08h0v.08h0c-.08,0,0-.08,0,0h.08c.08,0-.08.08-.08.08h-.08s.08.08,0,.08c0,.08-.08.08-.237.237s-.159.159-.159.4c0,0,.159.4,0,.4h0c-.08,0-.159-.159-.159-.237h0c0-.159,0-.08-.08-.237v.712c.159-.08.555.08.712.159,0,.08.08,0,.159.08H12.4l.08-.08c-.159-.08-.316-.08-.475-.159H11.85c0,.237,0,1.028.159,1.187,0,.08.159-.08.159,0,0,0,.4.237.237.159h0a.278.278,0,0,1,.159-.08c.08.08-.08.08-.08.08,0,.08-.08.159,0,.237.08,0,0-.08,0-.159h0l.159-.08h-.08c.08.237.712.159.633.159,0,.08.159.08.159.08l-.08.08c.08,0,.316.08.316.159.159,0,.475.237.633.237.237.08.08.4-.08.475h.08c0,.08.08.08.159.08v.08c.159-.08.08-.159.237-.159a.278.278,0,0,1,.159.08c.08,0,0,.08.08.159a.752.752,0,0,1,.871.316c.08.159-.237.555-.316.555a1.532,1.532,0,0,1-.08.633c-.159.316-.08.159-.4.316-.08.08-.316.159-.4.237-.08.159-.08.475-.237.633,0-.08.08-.08.08-.159h-.08c0,.08,0,.08-.08.159a8.026,8.026,0,0,0,9.5,1.187,8.225,8.225,0,0,0,3.167-3.4,4.808,4.808,0,0,0,.633-2.059c0-.08-.159-.475-.237-.4a.473.473,0,0,1,.08-.316c-.08,0-.08-.475-.159-.555l-.159.159h0c-.159,0,0-.159-.08-.237h0c.08,0-.237-.316-.237-.316s0,.159-.08.08h-.08c-.08.08,0,0-.08,0a2.678,2.678,0,0,0-.475.475c-.237.237-.159.316-.237.633a.078.078,0,0,0-.08.08c-.08,0-.08.08-.159.08a1.862,1.862,0,0,1-.4-1.267c-.08,0-.159.316-.316,0,0,0,.159,0,.159-.08-.159.08-.4-.237-.475-.237-.237-.08-.475,0-.633-.08-.08,0-.792-.475-.792-.4h0l.237.237a.286.286,0,0,0,.08.237v-.159c.08,0,0,.159.159.159s.159-.237.316-.237v.08c-.08,0,.237.237.237.237,0,.08-.08.159-.159.316a1.66,1.66,0,0,1-.792.475c-.475.237-.4,0-.633-.316-.08-.159-.475-.949-.633-.949a1.773,1.773,0,0,0-.08-.316c0-.08.159-.237.159-.316v-.237h-.475c0,.08-.08.08-.159,0h-.159c.08,0-.08-.08-.08-.159h0v-.08h-.08c0-.08.08-.08.159-.08h.08c0-.08.08,0,.08,0a.078.078,0,0,1-.08-.08H21.5c0-.237.633.08.712,0,.4-.159-.159-.316-.237-.475.08,0,.08-.08.159-.08l-.08-.08a.278.278,0,0,1,.159-.08c0-.08-.4.08-.475.08a.29.29,0,0,0,.237.08l-.237.08c0-.159,0,0-.08-.08a.078.078,0,0,0,.08-.08l-.159-.08s-.237.08-.237.159c.08.08-.159.159-.159.237,0,.159,0,.08.08.237,0,0-.237.08-.237.159v-.08c0-.08-.237,0-.237,0,.159.159,0,0,0,.08h0c-.08,0-.08,0-.08-.08h0c.08.08.08.08,0,.159h0c-.08.08.08,0,.08.08h0c0,.08,0,0-.08,0,0,0,.08.08,0,.08h0v.08h-.08v-.08l-.08-.08c0-.08.159,0,.159,0s-.316-.159-.316-.237h0v-.159L20,17.68h0c-.08,0,0-.08-.08-.08a.078.078,0,0,1-.08.08V17.6h0s-.159,0-.159.08c.08,0,.237.475.316.4.08.08.237.08.237.159-.08,0-.159-.159-.159,0,.08.08,0,.159-.08.159v-.08s0-.159-.08-.159,0-.08-.08-.08h0c0-.08-.237-.159-.316-.159-.237-.159-.08-.159-.316-.08a.533.533,0,0,0-.555.316c0,.159-.159.316-.237.4-.08-.08-.237,0-.316.08-.08,0-.159-.159-.316-.08V18.39h0c-.08,0,0-.475,0-.475.159-.159.475,0,.633,0,0-.08,0-.08.08-.159h0c0-.159,0-.08.08-.08,0-.08-.159-.237-.159-.237a.286.286,0,0,1-.237-.08H18.1c0-.08.237,0,.237-.08h0c.08,0,0-.08,0-.159.08,0,.08,0,.08.08h.159c-.08,0,.316-.237.316-.237h0c.08,0,.08-.08.08-.159.08,0,0,0,0,.08h.08c0-.08.08-.08.159-.08,0-.08.08,0,.08-.08h0v-.08h.08a.246.246,0,0,0-.08-.159h0v-.159h.08v-.08c.159,0,0,.08.159.08l-.08.08a.783.783,0,0,0,.08.237s.316,0,.316.08c0-.159.555-.159.555-.159h0a.214.214,0,0,1,.159-.316c0,.08.08.08.159.08.08-.08-.08-.159-.08-.159h0c0-.159.08-.08.08-.08h.316v-.08h.159l-.159-.08s-.159.08-.159,0c0,.08-.08.08-.159.08h-.239s-.08-.316-.159-.316a.078.078,0,0,0,.08-.08c.08,0,0,0,.08-.08,0,.08.237-.159.237-.159,0-.159-.316-.159-.4-.08v.08c.08.08-.159.237-.237.237,0,.08,0,.08-.08.08,0,.08-.08.159,0,.237,0,.08.159,0,.159.159,0,0-.237.08-.237,0,0,0,.159.08.159,0h0s-.08.08-.08,0c-.08,0,0,.08-.08.08,0,0,.08.08,0,.08h0a.286.286,0,0,1-.08.237s-.08-.08-.08,0l-.159.08v-.08h0a.8.8,0,0,1-.08-.237h0l-.08-.159c-.08.08-.159.237-.316.159h0a.078.078,0,0,1-.08-.08h0v-.08h0v-.08h-.08v-.08h-.08s-.08-.159,0-.159c0-.08.08,0,.159-.08h-.08c.08-.08.316-.159.4-.237,0-.08,0-.08.08-.08v-.08a.171.171,0,0,1,.159-.159c0-.159-.08.237.08-.08h0a.171.171,0,0,0,.159-.159h0a.412.412,0,0,1,.316-.159v.08c.159-.08.316-.237.475-.237a.278.278,0,0,0-.08.159c.08,0,.08,0,.159-.159v.08c0-.08.08-.08.159-.08v.08c.08,0,.08,0,.08-.08l.159.08h-.159c.08.159.4,0,.4.159.159-.08.633.159.712.237.08.4-.712,0-.792.08.08.08.159.316.237.316,0,0,.4.159.237,0-.08,0-.08,0-.08-.08.08-.08.237,0,.316.08.159-.159-.159,0,.08-.237.159-.08.159,0,.237,0v-.159c.08-.159,0-.08,0-.159.08,0,.237,0,.237.08-.08,0-.159,0-.159.08.237.159.4-.08.633-.159,0,.08.08-.08.159-.08a.078.078,0,0,1-.08.08h.159c.08,0,.316-.159.4-.08h0s0,.08.08,0c0-.08.08,0,.08-.08-.237-.237.712.159.712,0,0,0-.159-.159-.237-.159.08-.08.08-.08.08-.159h-.08c0-.08.159-.159.159-.237a4.24,4.24,0,0,0-.79-.471h0c-.08.08-.159.08-.316.159.08.08-.08.08-.159.08m-6.964-.794Zm4.511,4.511Zm-2.375-1.108h.08c0,.08-.237.08-.316.08h0c-.08,0-.237.08-.316.08a1.152,1.152,0,0,1,.237-.159h-.237c.08-.08.08,0,.08-.08h-.08c0-.08.159,0,.159-.159-.08,0-.08,0,0-.08h-.159c0-.08.08-.237-.08-.159,0-.08.08-.08,0-.08h-.08c0-.08,0-.08.08-.08h.08v-.08h0c0-.08.08-.08.159-.08,0,.08-.159.08-.08.159.4,0,0,.08.159.159h-.08c.078,0,.71.4.394.477Zm-.475-.475c0,.08-.078,0,0,0Zm-.078.159c-.08.159-.08.316-.4.316v-.08h-.08a.246.246,0,0,0,.159-.08h-.08l.08-.08h-.159c0-.08.08-.08.159,0v-.08h-.08c.237-.157.4-.157.4,0ZM17.473,18.7c.159-.475.633-.4,1.028-.475.237-.08.712,0,.871-.08a.471.471,0,0,1-.08.316.078.078,0,0,0,.08.08,2.631,2.631,0,0,0,.475.237c.4.08.316-.08.633-.08.159,0,.316.159.555.159.159,0,.633-.159.475.316-.08,0-.159-.08-.159-.237-.08,0,.237.475.237.555a7.287,7.287,0,0,0,.4.792h0a.614.614,0,0,1,.316.316c-.237.316.633,0,.712,0,.237.237-.792,1.108-.871,1.187a.732.732,0,0,0-.159.792c0,.08.08.316,0,.475-.159.316-.633.237-.475.633h0v.159c0,.08-.237.08-.237.159.237.237-.475.712-.633.792H20s-.08-.159,0-.159c.08-.159-.237-.555-.316-.792a1.529,1.529,0,0,1-.237-1.028c0-.237.159-.316.08-.475a3.437,3.437,0,0,0-.316-.555l-.08-.08c0-.08-.08-.159,0-.159v-.08h0s.08-.237,0-.237l-.159-.08h0c-.08,0-.237,0-.237-.08.08-.237-.712,0-.712,0-.237.08-.792.08-.949-.316.08,0-.159-.237-.159-.237v-.08s-.316-.08-.159-.159c0-.08.08-.633,0-.712h0c0-.235.553-.631.712-.869Zm1.661,2.614c-.157,0,0-.08,0,0Zm3.087,2.216c.237-.08-.08-.4.237-.475,0-.08.08,0,.08-.08h0v-.159h0c.159-.316.237.159.159.159v-.08c-.159.159,0,.871-.316.949-.08.081-.318-.237-.159-.314Zm-.871-5.146c-.08,0-.159.08-.159,0h.08c0-.078.08-.078.08,0Zm-.792,0c0-.08,0-.08-.08,0-.078-.078,0-.078.08,0,0-.08.08,0,.159,0Zm-.869-.237c-.08,0-.237,0-.237-.08s.237-.08.237-.08v.159Zm-.475-.237c0,.08-.08,0-.08.08C18.977,17.905,19.134,17.51,19.213,17.905Zm-.08-.239h0c0-.08,0-.08-.08-.08h0l.08-.08v.159Zm-2.691-4.273c0,.08-.237,0-.237,0,0-.08.316-.08.237,0Zm-.157-.08a.11.11,0,0,1-.159,0Zm-.159,0h0Zm.159-.4h0c-.08-.08,0-.08,0,0Zm-.08.08Zm0-.08Zm.08.157h0c-.08,0,0-.078,0,0Zm.078.634-.159.08c-.078-.08.159-.159.159-.08Zm-1.5,2.057Zm-.553,1.979h0c-.08,0,0-.08-.08-.08,0,.08-.08.08-.159.08,0-.08,0-.08.08-.08,0-.08-.08.08-.08,0h-.316c0-.08,0-.08.08-.08h-.08a.078.078,0,0,0,.08-.08c-.08-.08.08-.316.237-.237a.8.8,0,0,0-.08.237c0-.08.08-.08.08,0-.08.08.159.08.159.08l-.08.08c.08.08.08,0,.08,0,0,.08-.159,0-.08.08.239-.159.239-.08.159,0Zm0,4.987a.11.11,0,0,1-.159,0v-.159h.159Zm-.08-8.47Zm-.633,3.562c0-.08.08-.08.08-.159.078.08,0,.08-.08.159.08,0,.08-.08.159,0,0,.08-.08.08-.159,0Zm-.475,2.769h0C13.2,20.674,13.2,20.595,13.119,20.595Zm0,1.11h0c.08-.08.159,0,0,0Zm-.237-1.11H12.8l-.08.08-.237-.08c0-.08.159,0,.159,0l-.08-.08c.08-.08.4.08.475.08-.081.08-.081-.078-.159,0Zm-.555-1.74Zm0,0Zm0,0Zm-.08,1.74h0Zm13.217.159h0c.08,0,.237.316,0,.237-.078,0-.078-.157,0-.237Zm-6.331-4.907.08-.08c0,.159-.08.08-.08.08Zm.237.159h0c.08.078,0,.078,0,0,.08.08.08.08,0,.08,0,0,0-.08-.08,0l.08-.08ZM12.8,18.3Zm.08,0Zm-.555.553Zm0,0Zm0,0Zm0,0Z" transform="translate(0 0)" fill="#fff"/>
  </g>
</svg>
