<svg xmlns="http://www.w3.org/2000/svg" width="306.881" height="300" viewBox="0 0 306.881 300">
  <g id="artwork" transform="translate(-34 -114.172)">
    <g id="Group_296" data-name="Group 296">
      <path id="Path_133" data-name="Path 133" d="M355.374,180.976a139.5,139.5,0,0,0-84.5-101.116c-2.2-.888-4.426-1.707-6.674-2.48A138.673,138.673,0,0,0,62.24,248.358c.672,1.591,1.383,3.159,2.117,4.728a143.593,143.593,0,0,0,217.062,78.869A139.638,139.638,0,0,0,358.255,208.36a130.546,130.546,0,0,0-2.881-27.384ZM57.164,195.019A137.829,137.829,0,0,1,59.806,168.9a132.23,132.23,0,0,1,7.64-25.082,135.1,135.1,0,0,1,175.21-73.392q3.09,1.251,6.18,2.657a140.033,140.033,0,0,0-28.465-3.206,145.1,145.1,0,0,0-18.338-1.159A143.565,143.565,0,0,0,58.47,212.284v2.055a136.2,136.2,0,0,1-1.305-19.319Zm283.842,64.462a133.891,133.891,0,0,1-23.661,38.361A143.57,143.57,0,0,0,291.082,99.728q-1.151-1.228-2.317-2.433-3.785-3.862-7.887-7.431A136.086,136.086,0,0,1,312.317,113.7,133.946,133.946,0,0,1,340.9,157.331a132.086,132.086,0,0,1,7.331,25.074,148.008,148.008,0,0,1,2.4,25.978,133.543,133.543,0,0,1-9.625,51.083Z" transform="translate(-17.374 58.279)" fill="#288d85" opacity="0.15"/>
      <rect id="Rectangle_40" data-name="Rectangle 40" width="5.49" height="5.49" transform="translate(83.531 381.763)" fill="#eb9e8d"/>
      <rect id="Rectangle_41" data-name="Rectangle 41" width="5.49" height="5.49" transform="translate(111.628 380.903)" fill="#eb9e8d"/>
      <path id="Path_229" data-name="Path 229" d="M106.491,417.43l34.292.486,3.649,28.264,3.227,52.316-.577,21.315h-8.029s-4.2,0-4.1-3.619l.486-46.039s-.585-6.652-2.736-10.365l-6.945-16.729-3.128,34.421-3.421,39.8a3.124,3.124,0,0,1-3.132,3.326h-7.53l-.977-42.166-1.859-29.336S103.337,423.9,106.491,417.43Z" transform="translate(-27.086 -138.402)" fill="#145e58"/>
      <path id="Path_230" data-name="Path 230" d="M129,339.466l1.9-38.427s.762-7.1-3.442-8.24l-12.736-3.442-1.136,4.681-5.12-1.936-2.526-3.193s-7.887.194-11.807,2.323c0,0-5.09,2.052-6.23,18.6l-.305,4.35,9.036,22.073.6,7.973a107.346,107.346,0,0,0,31.285.99Z" transform="translate(-17.257 -65.18)" fill="#fdbf44"/>
      <path id="Path_231" data-name="Path 231" d="M128,250.012l1.222,10.064s0,4.234-.611,5.834c0,0-1.936,1.691,5.873,5.735,0,0,3.958,1.885,3.674-2.633,0,0,.5-4.419,0-6.024l-3.687-9.126L131.3,248.7Z" transform="translate(-40.274 -42.271)" fill="#eb9e8d"/>
      <rect id="Rectangle_42" data-name="Rectangle 42" width="130.875" height="200.823" rx="9.11" transform="translate(117.092 168.759)" fill="#fff" stroke="#2fa299" stroke-width="9"/>
      <path id="Path_232" data-name="Path 232" d="M328.223,87.584h-9.845s-4.552.478-5.525-5.069c-.925-5.258-5.912-9.036-11.484-9.036a11.612,11.612,0,0,0-11.647,9.444c-1.162,5.809-5.641,4.681-5.641,4.681h-9.677a8.605,8.605,0,0,0-8.605,8.605v6.454h71.029V96.211a8.605,8.605,0,0,0-8.605-8.627ZM301.37,89.008a4.174,4.174,0,1,1,4.169-4.174,4.174,4.174,0,0,1-4.169,4.174Z" transform="translate(-118.783 73.047)" fill="#145e58"/>
      <path id="Path_233" data-name="Path 233" d="M137.439,234.312s3.838-.392,2.582-7c0,0-1.114-3.012-10.619-1.291,0,0-7.392.331-6.884,7.5a14.375,14.375,0,0,0,3.171,9.78l.219-6.557s.611-.632.947,1.076,1.342,7.375,1.342,7.375,1.519,8.446,10.537,4.5c0,0,.736.224.684-4,0,0-.241-2.474-.947-2.78l-1.721-1.11Z" transform="translate(-37.136 -29.045)" fill="#002d05"/>
      <path id="Path_234" data-name="Path 234" d="M146.013,242.936s.951,7.25.151,8.885a48.917,48.917,0,0,1-7.315.237s-2.332.508-2.693-5.43c0,0-.379-4.234.275-4.617C136.457,242.011,135.971,239.382,146.013,242.936Z" transform="translate(-44.858 -37.927)" fill="#e6a086"/>
      <path id="Path_235" data-name="Path 235" d="M99.532,348.017l-.568,10.864s-.663,2.552,4.062,3.778l25.915,10.757s2.5.284,2.853-.577,1.265-.4,1.265-.4-.052,1.467-.607,1.467,4.148,3.24,4.148,3.24,1.876,2.431-.96,2.934c0,0-.508.964-2.126.71a24.052,24.052,0,0,1-5.013-2.1l-30.979-8.076s-10.176-2.151-9.948-10.012V347.66Z" transform="translate(-17.24 -98.652)" fill="#e6a086"/>
      <path id="Path_236" data-name="Path 236" d="M802.388,594.13h8.765l.916,10.468H800.03l2.358-5.236Z" transform="translate(-720.569 -207.479)" fill="#202020"/>
      <path id="Path_237" data-name="Path 237" d="M179.394,663.61l-.654,12.168h22.765s1.962-.392-1.291-2.1c0,0-9.853-3.7-12.34-9.849Z" transform="translate(-69.182 -278.658)" fill="#202020"/>
      <path id="Path_238" data-name="Path 238" d="M154.12,268.4" transform="translate(-55.155 -53.495)" fill="#e6a094"/>
      <path id="Path_239" data-name="Path 239" d="M153.162,270.78s-1.312,3.24-3.442.318l3.442-.318" transform="translate(-52.648 -54.851)" fill="#e6a094"/>
      <circle id="Ellipse_12" data-name="Ellipse 12" cx="9.16" cy="9.16" r="9.16" transform="translate(134.854 195.905)" fill="#fdbf44"/>
      <rect id="Rectangle_43" data-name="Rectangle 43" width="62.897" height="3.012" transform="translate(166.995 199.373)" fill="#bbd4d2"/>
      <rect id="Rectangle_44" data-name="Rectangle 44" width="38.677" height="3.012" transform="translate(166.995 207.746)" fill="#bbd4d2"/>
      <path id="Path_240" data-name="Path 240" d="M257.817,191.77l-.882.469a6.122,6.122,0,0,0-.861.534,25.023,25.023,0,0,0-1.915,1.678c-1.2,1.132-2.323,2.328-3.442,3.55q-1.459,1.6-2.922,3.193a.324.324,0,0,0-.026.056.193.193,0,0,1-.039-.069.831.831,0,0,0-.082-.168.089.089,0,0,1,0-.026c-.792-1.243-5.456-5.249-3.442-1.842l.43.826c.538.977,1.063,1.953,1.609,2.922a12.582,12.582,0,0,0,1.11,1.691c.224.267.392.189.542.03h0a14.256,14.256,0,0,0,1.093-1.441c.43-.62.818-1.252,1.235-1.872a60.773,60.773,0,0,1,4.083-5.4c.8-.955,1.635-1.88,2.457-2.814l1.089-1.235v-.086Z" transform="translate(-106.196 5.654)" fill="#145e58"/>
      <circle id="Ellipse_13" data-name="Ellipse 13" cx="9.16" cy="9.16" r="9.16" transform="translate(134.854 229.044)" fill="#fdbf44"/>
      <rect id="Rectangle_45" data-name="Rectangle 45" width="62.897" height="3.012" transform="translate(166.995 232.512)" fill="#bbd4d2"/>
      <rect id="Rectangle_46" data-name="Rectangle 46" width="38.677" height="3.012" transform="translate(166.995 240.885)" fill="#bbd4d2"/>
      <path id="Path_241" data-name="Path 241" d="M257.817,268.773l-.882.469a6.129,6.129,0,0,0-.861.534,24.17,24.17,0,0,0-1.915,1.669c-1.2,1.127-2.323,2.323-3.442,3.545q-1.459,1.6-2.922,3.193a.254.254,0,0,0-.026.06.241.241,0,0,1-.039-.073.829.829,0,0,0-.082-.168v-.026c-.792-1.243-5.456-5.249-3.442-1.842l.43.826c.538.977,1.063,1.953,1.609,2.922a12.577,12.577,0,0,0,1.11,1.691c.224.267.392.189.542.03h0a14.264,14.264,0,0,0,1.093-1.441c.43-.62.818-1.252,1.235-1.872a61.408,61.408,0,0,1,4.083-5.4c.8-.955,1.635-1.88,2.457-2.814l1.089-1.235v-.086Z" transform="translate(-106.196 -38.21)" fill="#145e58"/>
      <circle id="Ellipse_14" data-name="Ellipse 14" cx="9.16" cy="9.16" r="9.16" transform="translate(134.854 262.183)" fill="#fdbf44"/>
      <rect id="Rectangle_47" data-name="Rectangle 47" width="62.897" height="3.012" transform="translate(166.995 265.651)" fill="#bbd4d2"/>
      <rect id="Rectangle_48" data-name="Rectangle 48" width="38.677" height="3.012" transform="translate(166.995 274.024)" fill="#bbd4d2"/>
      <path id="Path_242" data-name="Path 242" d="M257.817,345.782l-.882.469a6.535,6.535,0,0,0-.861.534,25.067,25.067,0,0,0-1.915,1.661c-1.2,1.127-2.323,2.328-3.442,3.545l-2.922,3.2a.167.167,0,0,0-.026.056.31.31,0,0,1-.039-.069.752.752,0,0,0-.082-.172.089.089,0,0,1,0-.026c-.792-1.243-5.456-5.249-3.442-1.842l.43.826c.538.977,1.063,1.953,1.609,2.922a12.911,12.911,0,0,0,1.11,1.7c.224.262.392.185.542.026h0a14.26,14.26,0,0,0,1.093-1.441c.43-.62.818-1.252,1.235-1.872a61.407,61.407,0,0,1,4.083-5.4c.8-.951,1.635-1.88,2.457-2.814.361-.43.723-.822,1.089-1.231v-.09Z" transform="translate(-106.196 -82.08)" fill="#145e58"/>
      <circle id="Ellipse_15" data-name="Ellipse 15" cx="9.16" cy="9.16" r="9.16" transform="translate(134.854 295.323)" fill="#fdbf44"/>
      <rect id="Rectangle_49" data-name="Rectangle 49" width="62.897" height="3.012" transform="translate(166.995 298.79)" fill="#bbd4d2"/>
      <rect id="Rectangle_50" data-name="Rectangle 50" width="38.677" height="3.012" transform="translate(166.995 307.163)" fill="#bbd4d2"/>
      <path id="Path_243" data-name="Path 243" d="M257.817,422.79l-.882.469a6.535,6.535,0,0,0-.861.534,25.086,25.086,0,0,0-1.915,1.652c-1.2,1.127-2.323,2.328-3.442,3.545l-2.922,3.2a.168.168,0,0,0-.026.056.308.308,0,0,1-.039-.069.658.658,0,0,0-.082-.168v-.03c-.792-1.243-5.456-5.249-3.442-1.842l.43.83c.538.972,1.063,1.949,1.609,2.917a12.914,12.914,0,0,0,1.11,1.7c.224.262.392.185.542.026h0a14.254,14.254,0,0,0,1.093-1.441c.43-.62.818-1.248,1.235-1.872a61.408,61.408,0,0,1,4.083-5.4c.8-.951,1.635-1.876,2.457-2.814.361-.43.723-.822,1.089-1.231v-.09Z" transform="translate(-106.196 -125.949)" fill="#145e58"/>
      <circle id="Ellipse_16" data-name="Ellipse 16" cx="9.16" cy="9.16" r="9.16" transform="translate(134.854 328.462)" fill="#fdbf44"/>
      <rect id="Rectangle_51" data-name="Rectangle 51" width="62.897" height="3.012" transform="translate(166.995 331.93)" fill="#bbd4d2"/>
      <rect id="Rectangle_52" data-name="Rectangle 52" width="38.677" height="3.012" transform="translate(166.995 340.303)" fill="#bbd4d2"/>
      <path id="Path_244" data-name="Path 244" d="M257.823,499.822l-.882.469a6.54,6.54,0,0,0-.861.534,25.072,25.072,0,0,0-1.91,1.665c-1.2,1.127-2.323,2.328-3.442,3.545l-2.922,3.2a.167.167,0,0,0-.026.056.309.309,0,0,1-.039-.069.736.736,0,0,0-.082-.168v-.03c-.792-1.243-5.456-5.245-3.442-1.837l.43.826c.538.972,1.063,1.949,1.609,2.917a12.911,12.911,0,0,0,1.11,1.7c.224.262.392.185.542.026h0A14.819,14.819,0,0,0,249,511.2c.43-.62.817-1.248,1.235-1.872a61.4,61.4,0,0,1,4.083-5.4c.8-.951,1.635-1.876,2.457-2.814.361-.43.723-.822,1.089-1.231v-.09Z" transform="translate(-106.202 -169.841)" fill="#145e58"/>
      <g id="Group_60" data-name="Group 60" transform="translate(222.022 196.788)">
        <path id="Path_206" data-name="Path 206" d="M101.735,322.33s5.026,26.729-6.877,48.44c0,0,9.616,18.88,4.758,51.866H93.384s-10.395-48.13-10.772-53.675l6.173-46.605Z" transform="translate(-30.613 -249.843)" fill="#f38332"/>
        <path id="Path_207" data-name="Path 207" d="M82.66,370.277c.653,4.548,3.091,16.635,5.47,28.044,1.072-17.9-2.873-26.461-2.873-26.461,6.751-6.148,13.578-26.058,17.381-38.681a77.428,77.428,0,0,0-1.014-10.889S92.3,358.76,82.66,370.277Z" transform="translate(-30.501 -249.837)" fill="#ec7a27"/>
        <path id="Path_208" data-name="Path 208" d="M103.5,442.075V446.2H86.4a1.391,1.391,0,0,1,.947-1.39l9.917-2.756Z" transform="translate(-34.116 -269.849)" fill="#202020"/>
        <path id="Path_209" data-name="Path 209" d="M84.03,372.236v1.139a359.443,359.443,0,0,0,4.976,49.252h6.542c8.46-34.51.972-50.76.972-50.76,10.144-9.214,20.455-49.537,20.455-49.537H88.1c-.251,1.005-.486,2.019-.7,3.049a2.4,2.4,0,0,1-.1.461C84.231,340.2,83.6,356.832,84.03,372.236Z" transform="translate(-45.885 -249.843)" fill="#ee7c2a"/>
        <path id="Path_210" data-name="Path 210" d="M126.588,442.075V446.2h-17.1a1.382,1.382,0,0,1,.955-1.39l9.909-2.756Z" transform="translate(-76.547 -269.849)" fill="#202020"/>
        <path id="Path_211" data-name="Path 211" d="M101.754,372.826c8.485-5.545,21.267-34.033,17.381-40.935-2.831-5.026-9.264-5.972-13.972-5.922a2.4,2.4,0,0,1-.1.461C101.955,340.8,101.326,357.422,101.754,372.826Z" transform="translate(-63.608 -250.434)" fill="#f38332"/>
        <path id="Path_212" data-name="Path 212" d="M75.507,330.8s2.513,5.721,1.457,7.12a.218.218,0,0,1-.293.05c-.3-.159-.9-.662-1.407-2.195,0,0,.913,2.823.293,4.063a.31.31,0,0,1-.4.126c-.427-.209-1.223-.98-1.39-3.878,0,0-.6,2.513-1.483,3.351a.293.293,0,0,1-.452-.092,7.748,7.748,0,0,1-.544-3.585s.31-1.608-.838-1.834a2.513,2.513,0,0,0-.838.251c-.4.176-1.215.477-1.491.31s1.483-3.686,3.727-5.026Z" transform="translate(7.116 -251.001)" fill="#e6a086"/>
        <path id="Path_213" data-name="Path 213" d="M167.263,257.586s-1.014-3.845-1.675-4.314a7.814,7.814,0,0,0-2.144-.72,2.178,2.178,0,0,1-1.189-.7c-.838-.972-1.977-2.128-2.622-1.885-.838.327,1.935,4.439,2.044,5.026s0,1.8-.653,1.374-.369-1.876-.93-2.086-1.491,2.345.93,3.711l2.915,1.575Z" transform="translate(-159.44 -238.087)" fill="#e6a086"/>
        <path id="Path_214" data-name="Path 214" d="M57.915,261.015c.369,3.183,16.937,25.707,20.22,26.318,1.96.369,11.341-3.35,18.553-6.374a10.561,10.561,0,0,0,.838,3.267,20.006,20.006,0,0,0,1.256,2.429,3.752,3.752,0,0,1,.528,2.513L94.285,311.6a1.2,1.2,0,0,0,1.164,1.457h29.744a1.189,1.189,0,0,0,1.106-1.675l-6.123-15.328a15.915,15.915,0,0,1-.352-7.9c.243-1.148.511-2.463.779-3.82,5.537,3.149,13.963,7.472,13.963,7.472l-4.59,24.291s6.525,4.188,8.033,3.041a.644.644,0,0,0,.151-.151c.93-1.315,7.723-17.942,8.468-27.172h0c.2-2.454,0-4.381-.9-5.369-.117-.134-.26-.276-.41-.427-3.35-3.2-13.988-8.854-21.041-12.422-1.483-.745-2.814-1.407-3.878-1.927a7.716,7.716,0,0,0-2.7-1.315c-2.245-.67-5.863-1.131-11.861-1.055a27.37,27.37,0,0,0-2.923.519c-4.917.98-14.55,3.133-19.307,4.188l-2.789.628a20.4,20.4,0,0,0-2.379-2.4c-4.339-4.021-13.176-11.509-15.722-13.653L62.028,258Z" transform="translate(-53.836 -239.397)" fill="#288d85"/>
        <path id="Path_215" data-name="Path 215" d="M79.7,274.57c1.315,4.188,3.711,10.051,5.721,15.689l1.893,1.014c-1.943-5.545-4.347-11.417-5.8-15.806Z" transform="translate(-12.699 -242.088)" fill="#1449a3"/>
        <path id="Path_216" data-name="Path 216" d="M111.49,284.858a10.563,10.563,0,0,0,.838,3.267h0c.93-.369,4.3-6.115,4.3-6.115Z" transform="translate(-68.637 -243.296)" fill="#10406b"/>
        <line id="Line_17" data-name="Line 17" x1="0.31" y2="2.446" transform="translate(80.948 49.662)" fill="#10406b"/>
        <line id="Line_18" data-name="Line 18" x1="3.602" y2="0.804" transform="translate(81.258 51.513)" fill="#10406b"/>
        <line id="Line_19" data-name="Line 19" x2="0.913" y2="1.709" transform="translate(81.258 52.736)" fill="#10406b"/>
        <path id="Path_217" data-name="Path 217" d="M110.295,284.715c1.809.98,15.144-5.026,18.336-7.865a3.4,3.4,0,0,0,.6-4.749c-4.917.98-14.55,3.133-19.307,4.188C109.114,280.057,109.1,284.078,110.295,284.715Z" transform="translate(-80.157 -241.687)" fill="#288d85"/>
        <path id="Path_218" data-name="Path 218" d="M59.57,276.61c-.059,6.843,10.286,13.771,13.863,15.077,2.63.955,5.972-.653,7.178-2.647C77.278,285.832,66.623,280.178,59.57,276.61Z" transform="translate(10.865 -242.419)" fill="#288d85"/>
        <path id="Path_219" data-name="Path 219" d="M94.3,248.455a8.426,8.426,0,0,1,8.15-4.7,4.832,4.832,0,0,0,.352.988c1.039,2.128,2.195,4.188,3.124,6.391A29.886,29.886,0,0,0,108.744,257a14.239,14.239,0,0,1-4.825,3.92v9.356H97.352V262.46a5.6,5.6,0,0,1-1.86-.5C91.313,259.922,92.251,252.635,94.3,248.455Z" transform="translate(-44.9 -237.081)" fill="#eb9e8d"/>
        <path id="Path_220" data-name="Path 220" d="M85.056,302.624s10.311,6.391,14.24-.787c0,0,7.4,3.409,9.214-1.591a7.865,7.865,0,0,0,.385-2.831c-.209-8.921-10.571-29.158-10.127-34.091.184-2.1.461-4.431.561-6.609.142-2.94,0-5.612-1.164-7.07-1.968-2.513-7.011-12.3-11.827-13.662S76.387,240.74,82.51,246.1a.494.494,0,0,0,.193.109.526.526,0,0,0,.184.059,3.887,3.887,0,0,1,3.35,4.289,3.811,3.811,0,0,0,.637,2.907s.762,1.265,3.292-2.228a.394.394,0,0,1,.394-.176c.561.075,1.826.4,1.726,1.675a1.675,1.675,0,0,1-.938,1.215,11.551,11.551,0,0,0-5.336,7.128,13.627,13.627,0,0,0-.36,2.68,15.72,15.72,0,0,1-.436,2.764c-1.273,5.713-4.975,16.468-6.4,22.071C76.847,296.04,77.107,303.428,85.056,302.624Z" transform="translate(-32.688 -235.791)" fill="#002d05"/>
        <path id="Path_221" data-name="Path 221" d="M77.924,272.936c.544,11.224,4.356,27.524,10.378,30.657a10.144,10.144,0,0,0,7.656.586,7.865,7.865,0,0,0,.385-2.831c-.209-8.921-10.571-29.158-10.127-34.091.184-2.1.461-4.431.561-6.609a7.581,7.581,0,0,0-3.032-.628,5.662,5.662,0,0,0-4.657,2.773C78.058,264.325,77.7,268.17,77.924,272.936Z" transform="translate(-20.195 -239.725)" fill="#002d05"/>
      </g>
    </g>
  </g>
</svg>
