<svg xmlns="http://www.w3.org/2000/svg" xmlns:xlink="http://www.w3.org/1999/xlink" width="248.979" height="253.504" viewBox="0 0 248.979 253.504"><defs><clipPath id="a"><path d="M32.33,47.4C37.1,41.635,75.154-4.313,118.782.329s77.509,52.446,81.686,87.719-15.78,92.361-76.116,110-97.93-24.6-104.892-32.489S-8.387,117.752,3.679,94.082,27.563,53.165,32.33,47.4Z" transform="translate(61.835 144.735) rotate(-16)" fill="#f2f4f4"/></clipPath></defs><g transform="translate(-61.835 -85.706)"><g transform="translate(61.596 143.899) rotate(-16)"><path d="M32.33,47.4C37.1,41.635,75.154-4.313,118.782.329s77.509,52.446,81.686,87.719-15.78,92.361-76.116,110-97.93-24.6-104.892-32.489S-8.387,117.752,3.679,94.082,27.563,53.165,32.33,47.4Z" transform="translate(0 0.87)" fill="#f2f4f4"/><path d="M5.167,19.282C12.873,7.372,33.19-8.04,60.512,4.92s33.627,40.283,24.17,55.7S53.857,79.531,36.693,80.232,5.517,64.119,2.715,56.412-2.54,31.192,5.167,19.282Z" transform="translate(7.814 0)" fill="#d6f0f5"/></g><g transform="translate(-33.025 -12)"><g transform="translate(103.701 98.083)"><path d="M602.8,177.9c-10.509,0-19.5-4.494-23.2-10.859-3.7,6.366-12.692,10.859-23.2,10.859a36.052,36.052,0,0,1-4.526-.284v34.748a23.009,23.009,0,0,0,11.5,19.926l16.223,9.366,16.222-9.366a23.009,23.009,0,0,0,11.5-19.926V177.617A36.056,36.056,0,0,1,602.8,177.9Z" transform="translate(-551.872 -167.042)" fill="#f2f4f4"/></g><path d="M733.406,232.291a23.009,23.009,0,0,0,11.5-19.926V177.617a36.056,36.056,0,0,1-4.526.284c-10.509,0-19.5-4.494-23.2-10.859v74.616Z" transform="translate(-585.756 -68.958)" fill="#fbfbfb"/><path d="M717.184,241.657l16.222-9.366a23.009,23.009,0,0,0,11.5-19.926V177.617a36.056,36.056,0,0,1-4.526.284c-10.509,0-19.5-4.494-23.2-10.859" transform="translate(-585.756 -68.958)" fill="none" stroke="#1c1d29" stroke-miterlimit="10" stroke-width="1.5"/><g transform="translate(120.036 125.369)"><rect width="2.348" height="11.98" transform="translate(0 11.572) rotate(-45)" fill="#f29441"/><rect width="2.348" height="25.997" transform="translate(25.194) rotate(45)" fill="#f29441"/></g></g><g transform="translate(121.845 -137.798)"><path d="M59.157,218.77l8.553-5.975q7.527-5.226,15.063-10.436c.231-.16.452-.336.7-.526a2.213,2.213,0,0,0-1.025-.745q-11.234-6.205-22.473-12.4c-.214-.118-.409-.27-.613-.406-.3-.208-.463-.079-.509.237a5.9,5.9,0,0,0-.016.851q0,14.171.019,28.342C58.861,218.048,58.513,218.577,59.157,218.77Z" transform="translate(82.412 104.981)" fill="#037a92"/></g><path d="M31.644,93.053a.138.138,0,0,1-.157.036c-.154.085-.354.062-.484.206l.01-.006c-.122.116-.332.076-.43.237l.019-.019a.9.9,0,0,0-.242.2h0a1.822,1.822,0,0,1-.221.2l-.013.012a.826.826,0,0,1-.2.2l-.01.012a2.51,2.51,0,0,1-.2.225h0a.776.776,0,0,0-.2.245l.021-.021c-.168.1-.128.306-.238.434L29.308,95c-.153.134-.138.337-.208.506a.092.092,0,0,1-.024.128l0,0a4.118,4.118,0,0,0-.015,1.915.16.16,0,0,1,.033.169c.092.148.073.341.193.477h0c.135.108.091.313.227.42v-.008c.161.205.239.472.467.628l-.024-.021a.344.344,0,0,0,.234.234l-.023-.026c.067.182.3.124.391.27l.01.006a1.5,1.5,0,0,0,.248.186l-.021-.019c.114.171.325.138.477.226h.086l.073.047a2.816,2.816,0,0,0,.5.165l.56.045a.326.326,0,0,0,.42,0l.386-.03c.2-.16.488-.019.684-.2h0c.113-.13.3-.1.428-.2l.011,0c.1-.145.311-.094.407-.241l-.014.013a2.638,2.638,0,0,0,.235-.2h0a1.059,1.059,0,0,1,.212-.2l.013-.014a1,1,0,0,1,.2-.21l0-.007c.062-.082.142-.148.2-.234l-.01.013a.457.457,0,0,0,.206-.3.1.1,0,0,1,.047-.125.647.647,0,0,0,.168-.292.1.1,0,0,1,.037-.133,2.263,2.263,0,0,0,.174-.5l.044-.354a1.423,1.423,0,0,0-.007-1.058.177.177,0,0,1-.024-.182c-.171-.193-.013-.489-.211-.673v.007c-.119-.121-.084-.32-.216-.434V94.8c-.123-.116-.076-.334-.251-.419l.024.022a.483.483,0,0,0-.219-.242l.016.016a.69.69,0,0,0-.225-.231l.013.013a.593.593,0,0,0-.237-.221l.019.021c-.08-.163-.305-.1-.391-.259l-.017-.01c-.09-.049-.152-.141-.252-.176l.023.02c-.146-.248-.47-.044-.632-.249h0A4.827,4.827,0,0,0,31.644,93.053Z" transform="translate(82.412 104.981)" fill="#f29441"/><path d="M90.248,185.267c-.294-.3-.669-.153-1-.154q-16.753-.012-33.5-.006a4.573,4.573,0,0,1-1.268-.09c.322.43.787.242,1.185.242q11.708.018,23.416.009Z" transform="translate(82.412 104.981)" fill="#fff"/><path d="M59.157,218.77c-.38-.343-.2-.8-.2-1.194q-.018-12.4-.009-24.809v-3.939c0-.3-.011-.59.422-.549-.258-.318-.492-.28-.6.1a2.63,2.63,0,0,0-.03.741v28.866a3.21,3.21,0,0,0,.041.739C58.833,218.972,59.005,218.923,59.157,218.77Z" transform="translate(82.412 104.981)" fill="#fff"/><path d="M68.775,159.754a20.21,20.21,0,0,0,.171-3.91c.019-2.053,0-4.106-.019-6.158a2.486,2.486,0,0,0-.156-1.248Q68.773,154.094,68.775,159.754Z" transform="translate(82.412 104.981)" fill="#fff"/><path d="M67.889,135.537a18.629,18.629,0,0,0-.183-3.468c-.005.9-.014,1.8-.015,2.7C67.691,135.038,67.639,135.327,67.889,135.537Z" transform="translate(82.412 104.981)" fill="#fff"/><path d="M68.743,147.276a8.84,8.84,0,0,0-.182-2.665q-.009,1-.018,1.991A.758.758,0,0,0,68.743,147.276Z" transform="translate(82.412 104.981)" fill="#fff"/><path d="M67.709,128.782a9.909,9.909,0,0,0,.178-2.418A5.73,5.73,0,0,0,67.709,128.782Z" transform="translate(82.412 104.981)" fill="#fff"/><path d="M68.526,143.86a6.194,6.194,0,0,0-.179-2.186C68.415,142.4,68.117,143.161,68.526,143.86Z" transform="translate(82.412 104.981)" fill="#fff"/><path d="M31.644,93.053a12.707,12.707,0,0,1,2.128.016A2.444,2.444,0,0,0,31.644,93.053Z" transform="translate(82.412 104.981)" fill="#fff"/><path d="M68.565,162.717a6.1,6.1,0,0,0,.18-2.206C68.325,161.217,68.628,161.982,68.565,162.717Z" transform="translate(82.412 104.981)" fill="#fff"/><path d="M68.107,138.526a6.582,6.582,0,0,0-.187-2.245C68,137.028,67.678,137.808,68.107,138.526Z" transform="translate(82.412 104.981)" fill="#fff"/><path d="M65.187,174.35c-.469-.5,0-.832.222-1.207C64.541,173.656,64.509,173.83,65.187,174.35Z" transform="translate(82.412 104.981)" fill="#fff"/><path d="M68.313,141.086a5.429,5.429,0,0,0-.177-2.017C68.19,139.74,67.923,140.442,68.313,141.086Z" transform="translate(82.412 104.981)" fill="#fff"/><path d="M29.063,97.544l.015-1.915A1.986,1.986,0,0,0,29.063,97.544Z" transform="translate(82.412 104.981)" fill="#fff"/><path d="M63.645,174.616a.7.7,0,0,1,.987.079.733.733,0,0,1,.075.107C64.36,174.023,64.21,174,63.645,174.616Z" transform="translate(82.412 104.981)" fill="#fff"/><path d="M57.229,178.216a3.557,3.557,0,0,0,.844-.852A.912.912,0,0,0,57.229,178.216Z" transform="translate(82.412 104.981)" fill="#fff"/><path d="M68.348,164.619a3.212,3.212,0,0,0,.188-1.547C68.147,163.548,68.393,164.1,68.348,164.619Z" transform="translate(82.412 104.981)" fill="#fff"/><path d="M19.257,93.493a4.393,4.393,0,0,0-.191-1.611C19.125,92.419,18.864,93,19.257,93.493Z" transform="translate(82.412 104.981)" fill="#fff"/><path d="M30.049,81.564a3.184,3.184,0,0,0,1.375.181C31.011,81.369,30.511,81.606,30.049,81.564Z" transform="translate(82.412 104.981)" fill="#fff"/><path d="M19.069,91.266a3.037,3.037,0,0,0,.182-1.4C18.878,90.294,19.121,90.8,19.069,91.266Z" transform="translate(82.412 104.981)" fill="#fff"/><path d="M66.2,172.037c.3-.389.554,0,.827.046a.5.5,0,0,0-.477-.445C66.281,171.626,66.221,171.821,66.2,172.037Z" transform="translate(82.412 104.981)" fill="#fff"/><path d="M67.92,125.988a2.7,2.7,0,0,0,.2-1.333C67.729,125.052,67.966,125.54,67.92,125.988Z" transform="translate(82.412 104.981)" fill="#fff"/><path d="M23.386,101.347a2.161,2.161,0,0,0-.7-.813A.828.828,0,0,0,23.386,101.347Z" transform="translate(82.412 104.981)" fill="#fff"/><path d="M68.126,166.089a1.742,1.742,0,0,0,.183-1.1C67.981,165.314,68.161,165.719,68.126,166.089Z" transform="translate(82.412 104.981)" fill="#fff"/><path d="M63.208,139.168c-.652-.416-.681-.41-.9.185A2.29,2.29,0,0,1,63.208,139.168Z" transform="translate(82.412 104.981)" fill="#fff"/><path d="M36.343,96.059l.007,1.058A.751.751,0,0,0,36.343,96.059Z" transform="translate(82.412 104.981)" fill="#fff"/><path d="M27.161,81.745a2.3,2.3,0,0,0,1.18-.183C27.944,81.6,27.509,81.392,27.161,81.745Z" transform="translate(82.412 104.981)" fill="#fff"/><path d="M71.114,174.376a1.091,1.091,0,0,0-.624-.472A.556.556,0,0,0,71.114,174.376Z" transform="translate(82.412 104.981)" fill="#fff"/><path d="M68.134,124.509a1.345,1.345,0,0,0,.19-.922C68.009,123.841,68.145,124.186,68.134,124.509Z" transform="translate(82.412 104.981)" fill="#fff"/><path d="M24.171,101.393c-.181.134-.355.3-.6.139C23.907,101.907,23.971,101.893,24.171,101.393Z" transform="translate(82.412 104.981)" fill="#fff"/><path d="M33.11,87.488a1.07,1.07,0,0,0-.426.661A.579.579,0,0,0,33.11,87.488Z" transform="translate(82.412 104.981)" fill="#fff"/><path d="M19.28,89.692a1.436,1.436,0,0,0,.228-.883C19.148,89.03,19.3,89.383,19.28,89.692Z" transform="translate(82.412 104.981)" fill="#fff"/><path d="M31.191,90.476a1.07,1.07,0,0,0-.426.661A.58.58,0,0,0,31.191,90.476Z" transform="translate(82.412 104.981)" fill="#fff"/><path d="M59.4,143.427l.022-.825C59.035,142.867,59.065,143.142,59.4,143.427Z" transform="translate(82.412 104.981)" fill="#fff"/><path d="M67.657,140.808l-.8.023C67.132,141.192,67.4,141.223,67.657,140.808Z" transform="translate(82.412 104.981)" fill="#fff"/><path d="M27.351,96.451a1.087,1.087,0,0,0-.425.663A.582.582,0,0,0,27.351,96.451Z" transform="translate(82.412 104.981)" fill="#fff"/><path d="M31.6,81.77a1.343,1.343,0,0,0,.893.2C32.251,81.652,31.909,81.784,31.6,81.77Z" transform="translate(82.412 104.981)" fill="#fff"/><path d="M35.03,84.5a1.072,1.072,0,0,0-.426.662A.58.58,0,0,0,35.03,84.5Z" transform="translate(82.412 104.981)" fill="#fff"/><path d="M65.98,176.732c.1.442.3.618.684.24Z" transform="translate(82.412 104.981)" fill="#fff"/><path d="M70.265,173.732a1.1,1.1,0,0,0-.623-.474.544.544,0,0,0,.6.477Z" transform="translate(82.412 104.981)" fill="#fff"/><path d="M25.432,99.441a1.081,1.081,0,0,0-.426.661A.584.584,0,0,0,25.432,99.441Z" transform="translate(82.412 104.981)" fill="#fff"/><path d="M67.25,172.256a1.051,1.051,0,0,0,.624.472.552.552,0,0,0-.62-.473Z" transform="translate(82.412 104.981)" fill="#fff"/><path d="M29.979,99.234a1.142,1.142,0,0,0-.467-.628A.561.561,0,0,0,29.979,99.234Z" transform="translate(82.412 104.981)" fill="#fff"/><path d="M94.141,85.386a1.338,1.338,0,0,0-.917.191C93.542,85.57,93.889,85.705,94.141,85.386Z" transform="translate(82.412 104.981)" fill="#fff"/><path d="M29.27,93.464a1.072,1.072,0,0,0-.426.662A.58.58,0,0,0,29.27,93.464Z" transform="translate(82.412 104.981)" fill="#fff"/><path d="M22.723,83.958a1.2,1.2,0,0,0,.6-.492C23,83.481,22.767,83.6,22.723,83.958Z" transform="translate(82.412 104.981)" fill="#fff"/><path d="M19.493,94.557a1.386,1.386,0,0,0-.21-.9C19.3,93.971,19.154,94.325,19.493,94.557Z" transform="translate(82.412 104.981)" fill="#fff"/><path d="M67.919,167.173a1.232,1.232,0,0,0,.182-.9C67.8,166.525,67.929,166.863,67.919,167.173Z" transform="translate(82.412 104.981)" fill="#fff"/><path d="M33.986,100.111a.948.948,0,0,0-.684.2C33.551,100.316,33.814,100.374,33.986,100.111Z" transform="translate(82.412 104.981)" fill="#fff"/><path d="M94.994,85.179a.886.886,0,0,0-.719.179C94.533,85.373,94.8,85.439,94.994,85.179Z" transform="translate(82.412 104.981)" fill="#fff"/><path d="M60.211,143.616l-.611-.007C59.8,143.934,60,143.929,60.211,143.616Z" transform="translate(82.412 104.981)" fill="#fff"/><path d="M55.972,180.6a.861.861,0,0,0,.231-.653C55.906,180.083,55.972,180.35,55.972,180.6Z" transform="translate(82.412 104.981)" fill="#fff"/><path d="M19.689,95.2a.78.78,0,0,0-.2-.655C19.485,94.786,19.437,95.04,19.689,95.2Z" transform="translate(82.412 104.981)" fill="#fff"/><path d="M36.109,95.2a.949.949,0,0,0,.211.673C36.323,95.63,36.381,95.365,36.109,95.2Z" transform="translate(82.412 104.981)" fill="#fff"/><path d="M64.678,132.347l.444.441a.386.386,0,0,0-.321-.441A.363.363,0,0,0,64.678,132.347Z" transform="translate(82.412 104.981)" fill="#fff"/><path d="M68.57,122.607a.94.94,0,0,0,.212-.718C68.481,122.06,68.558,122.343,68.57,122.607Z" transform="translate(82.412 104.981)" fill="#fff"/><path d="M32.6,82a.987.987,0,0,0,.731.219C33.163,81.9,32.871,81.989,32.6,82Z" transform="translate(82.412 104.981)" fill="#fff"/><path d="M33.313,82.207a.856.856,0,0,0,.655.234C33.834,82.124,33.564,82.194,33.313,82.207Z" transform="translate(82.412 104.981)" fill="#fff"/><path d="M68.775,121.9a.8.8,0,0,0,.222-.657C68.708,121.394,68.766,121.659,68.775,121.9Z" transform="translate(82.412 104.981)" fill="#fff"/><path d="M33.77,93.069a.886.886,0,0,0,.632.249C34.275,93.023,34.014,93.078,33.77,93.069Z" transform="translate(82.412 104.981)" fill="#fff"/><path d="M60.661,136.6a.821.821,0,0,0,.6.276C61.166,136.56,60.9,136.619,60.661,136.6Z" transform="translate(82.412 104.981)" fill="#fff"/><path d="M19.5,88.828a.868.868,0,0,0,.233-.654C19.426,88.31,19.5,88.579,19.5,88.828Z" transform="translate(82.412 104.981)" fill="#fff"/><path d="M68.356,123.455a.911.911,0,0,0,.184-.721C68.274,122.922,68.341,123.195,68.356,123.455Z" transform="translate(82.412 104.981)" fill="#fff"/><path d="M20.175,96.458a.856.856,0,0,0-.261-.629C19.92,96.068,19.853,96.346,20.175,96.458Z" transform="translate(82.412 104.981)" fill="#fff"/><path d="M57.059,136.368l-.463-.4a.374.374,0,0,0,.332.41A.386.386,0,0,0,57.059,136.368Z" transform="translate(82.412 104.981)" fill="#fff"/><path d="M62.351,136.169a.836.836,0,0,0,.279-.6C62.309,135.663,62.37,135.934,62.351,136.169Z" transform="translate(82.412 104.981)" fill="#fff"/><path d="M56.6,135.967q.024-.311.047-.621C56.3,135.528,56.333,135.738,56.6,135.967Z" transform="translate(82.412 104.981)" fill="#fff"/><path d="M67.716,168.061a.841.841,0,0,0,.176-.72C67.635,167.533,67.7,167.8,67.716,168.061Z" transform="translate(82.412 104.981)" fill="#fff"/><path d="M56.839,135.172l.6-.039C57.222,134.837,57.018,134.812,56.839,135.172Z" transform="translate(82.412 104.981)" fill="#fff"/><path d="M67.5,168.891a.8.8,0,0,0,.189-.7C67.426,168.372,67.486,168.639,67.5,168.891Z" transform="translate(82.412 104.981)" fill="#fff"/><path d="M66.841,170.762a.781.781,0,0,0,.254-.63C66.788,170.251,66.847,170.521,66.841,170.762Z" transform="translate(82.412 104.981)" fill="#fff"/><path d="M63.881,132.806l.441-.452C64.012,132.343,63.851,132.483,63.881,132.806Z" transform="translate(82.412 104.981)" fill="#fff"/><path d="M26.307,81.956a.87.87,0,0,0,.686-.183C26.746,81.765,26.486,81.707,26.307,81.956Z" transform="translate(82.412 104.981)" fill="#fff"/><path d="M25.668,82.169a.511.511,0,0,0,.494-.176A.464.464,0,0,0,25.668,82.169Z" transform="translate(82.412 104.981)" fill="#fff"/><path d="M25.037,82.428a.578.578,0,0,0,.5-.216C25.334,82.193,25.139,82.2,25.037,82.428Z" transform="translate(82.412 104.981)" fill="#fff"/><path d="M33.944,82.429a.478.478,0,0,0,.466.185A.4.4,0,0,0,33.944,82.429Z" transform="translate(82.412 104.981)" fill="#fff"/><path d="M24.608,82.639a.5.5,0,0,0,.445-.222C24.864,82.4,24.692,82.429,24.608,82.639Z" transform="translate(82.412 104.981)" fill="#fff"/><path d="M34.406,82.613a.446.446,0,0,0,.43.194A.446.446,0,0,0,34.406,82.613Z" transform="translate(82.412 104.981)" fill="#fff"/><path d="M24.2,82.873a.5.5,0,0,0,.429-.246C24.431,82.62,24.257,82.649,24.2,82.873Z" transform="translate(82.412 104.981)" fill="#fff"/><path d="M35.285,83.027a.626.626,0,0,0,.385.268C35.619,83.094,35.464,83.044,35.285,83.027Z" transform="translate(82.412 104.981)" fill="#fff"/><path d="M23.554,83.294a.481.481,0,0,0,.4-.262C23.768,83.045,23.61,83.092,23.554,83.294Z" transform="translate(82.412 104.981)" fill="#fff"/><path d="M35.678,83.442a.571.571,0,0,0-.244.429C35.653,83.806,35.684,83.635,35.678,83.442Z" transform="translate(82.412 104.981)" fill="#fff"/><path d="M35.271,84.116a.467.467,0,0,0-.252.4A.388.388,0,0,0,35.271,84.116Z" transform="translate(82.412 104.981)" fill="#fff"/><path d="M21.392,85.368a.491.491,0,0,0,.3-.359C21.465,85.025,21.413,85.183,21.392,85.368Z" transform="translate(82.412 104.981)" fill="#fff"/><path d="M34.614,85.151a.5.5,0,0,0-.269.408C34.581,85.521,34.614,85.347,34.614,85.151Z" transform="translate(82.412 104.981)" fill="#fff"/><path d="M34.193,85.8a.484.484,0,0,0-.264.409C34.158,86.166,34.189,85.992,34.193,85.8Z" transform="translate(82.412 104.981)" fill="#fff"/><path d="M20.752,86.233a.489.489,0,0,0,.269-.394C20.815,85.888,20.768,86.053,20.752,86.233Z" transform="translate(82.412 104.981)" fill="#fff"/><path d="M33.772,86.453a.473.473,0,0,0-.258.4C33.719,86.8,33.763,86.639,33.772,86.453Z" transform="translate(82.412 104.981)" fill="#fff"/><path d="M20.343,86.9a.5.5,0,0,0,.252-.42C20.373,86.531,20.341,86.7,20.343,86.9Z" transform="translate(82.412 104.981)" fill="#fff"/><path d="M20.123,87.311a.473.473,0,0,0,.227-.426A.412.412,0,0,0,20.123,87.311Z" transform="translate(82.412 104.981)" fill="#fff"/><path d="M33.347,87.1a.465.465,0,0,0-.252.4A.388.388,0,0,0,33.347,87.1Z" transform="translate(82.412 104.981)" fill="#fff"/><path d="M19.914,87.74a.467.467,0,0,0,.211-.437A.425.425,0,0,0,19.914,87.74Z" transform="translate(82.412 104.981)" fill="#fff"/><path d="M19.716,88.191a.477.477,0,0,0,.2-.46A.4.4,0,0,0,19.716,88.191Z" transform="translate(82.412 104.981)" fill="#fff"/><path d="M32.692,88.139a.5.5,0,0,0-.27.408C32.661,88.509,32.693,88.335,32.692,88.139Z" transform="translate(82.412 104.981)" fill="#fff"/><path d="M32.272,88.789a.483.483,0,0,0-.263.408C32.233,89.149,32.268,88.98,32.272,88.789Z" transform="translate(82.412 104.981)" fill="#fff"/><path d="M31.852,89.44a.476.476,0,0,0-.258.4C31.8,89.785,31.844,89.625,31.852,89.44Z" transform="translate(82.412 104.981)" fill="#fff"/><path d="M31.431,90.092a.467.467,0,0,0-.252.4A.388.388,0,0,0,31.431,90.092Z" transform="translate(82.412 104.981)" fill="#fff"/><path d="M30.772,91.126a.5.5,0,0,0-.269.408C30.741,91.5,30.774,91.322,30.772,91.126Z" transform="translate(82.412 104.981)" fill="#fff"/><path d="M30.352,91.777a.483.483,0,0,0-.263.409C30.314,92.138,30.348,91.968,30.352,91.777Z" transform="translate(82.412 104.981)" fill="#fff"/><path d="M29.933,92.428a.475.475,0,0,0-.258.406C29.88,92.774,29.924,92.613,29.933,92.428Z" transform="translate(82.412 104.981)" fill="#fff"/><path d="M31,93.295a.6.6,0,0,0,.484-.206C31.29,93.072,31.1,93.088,31,93.295Z" transform="translate(82.412 104.981)" fill="#fff"/><path d="M29.512,93.08a.464.464,0,0,0-.252.4A.39.39,0,0,0,29.512,93.08Z" transform="translate(82.412 104.981)" fill="#fff"/><path d="M30.582,93.527a.519.519,0,0,0,.43-.237C30.825,93.287,30.654,93.319,30.582,93.527Z" transform="translate(82.412 104.981)" fill="#fff"/><path d="M34.648,93.486a.5.5,0,0,0,.391.258C34.979,93.551,34.823,93.5,34.648,93.486Z" transform="translate(82.412 104.981)" fill="#fff"/><path d="M28.853,94.114a.5.5,0,0,0-.27.408C28.823,94.484,28.854,94.31,28.853,94.114Z" transform="translate(82.412 104.981)" fill="#fff"/><path d="M35.648,94.365a.515.515,0,0,0,.251.419C35.9,94.6,35.864,94.425,35.648,94.365Z" transform="translate(82.412 104.981)" fill="#fff"/><path d="M29.305,95.006a.511.511,0,0,0,.237-.434C29.328,94.645,29.3,94.816,29.305,95.006Z" transform="translate(82.412 104.981)" fill="#fff"/><path d="M35.9,94.778a.517.517,0,0,0,.216.434A.419.419,0,0,0,35.9,94.778Z" transform="translate(82.412 104.981)" fill="#fff"/><path d="M28.433,94.764a.483.483,0,0,0-.263.408C28.394,95.125,28.43,94.955,28.433,94.764Z" transform="translate(82.412 104.981)" fill="#fff"/><path d="M29.106,95.5a.639.639,0,0,0,.208-.506C29.094,95.1,29.086,95.294,29.106,95.5Z" transform="translate(82.412 104.981)" fill="#fff"/><path d="M28.011,95.412a.476.476,0,0,0-.258.406C27.959,95.762,28,95.6,28.011,95.412Z" transform="translate(82.412 104.981)" fill="#fff"/><path d="M19.916,95.838a.574.574,0,0,0-.194-.523C19.7,95.521,19.706,95.718,19.916,95.838Z" transform="translate(82.412 104.981)" fill="#fff"/><path d="M27.591,96.068a.467.467,0,0,0-.252.4A.388.388,0,0,0,27.591,96.068Z" transform="translate(82.412 104.981)" fill="#fff"/><path d="M20.371,96.894a.509.509,0,0,0-.211-.46C20.13,96.633,20.148,96.81,20.371,96.894Z" transform="translate(82.412 104.981)" fill="#fff"/><path d="M20.583,97.321a.488.488,0,0,0-.224-.447C20.342,97.07,20.366,97.244,20.583,97.321Z" transform="translate(82.412 104.981)" fill="#fff"/><path d="M26.933,97.1a.5.5,0,0,0-.269.407C26.9,97.472,26.934,97.3,26.933,97.1Z" transform="translate(82.412 104.981)" fill="#fff"/><path d="M20.8,97.742a.5.5,0,0,0-.234-.441C20.555,97.5,20.58,97.672,20.8,97.742Z" transform="translate(82.412 104.981)" fill="#fff"/><path d="M36.306,97.47a.59.59,0,0,0-.174.5A.464.464,0,0,0,36.306,97.47Z" transform="translate(82.412 104.981)" fill="#fff"/><path d="M29.289,98.19a.566.566,0,0,0-.193-.477A.443.443,0,0,0,29.289,98.19Z" transform="translate(82.412 104.981)" fill="#fff"/><path d="M26.513,97.754a.48.48,0,0,0-.262.409C26.474,98.114,26.51,97.944,26.513,97.754Z" transform="translate(82.412 104.981)" fill="#fff"/><path d="M21.042,98.152a.525.525,0,0,0-.251-.43C20.772,97.925,20.8,98.108,21.042,98.152Z" transform="translate(82.412 104.981)" fill="#fff"/><path d="M29.517,98.613a.52.52,0,0,0-.227-.42A.424.424,0,0,0,29.517,98.613Z" transform="translate(82.412 104.981)" fill="#fff"/><path d="M26.093,98.4a.47.47,0,0,0-.257.4C26.039,98.75,26.08,98.589,26.093,98.4Z" transform="translate(82.412 104.981)" fill="#fff"/><path d="M21.436,98.813a.479.479,0,0,0-.251-.409C21.193,98.587,21.237,98.748,21.436,98.813Z" transform="translate(82.412 104.981)" fill="#fff"/><path d="M25.672,99.057a.464.464,0,0,0-.251.4A.394.394,0,0,0,25.672,99.057Z" transform="translate(82.412 104.981)" fill="#fff"/><path d="M21.863,99.453a.469.469,0,0,0-.259-.392C21.619,99.241,21.668,99.395,21.863,99.453Z" transform="translate(82.412 104.981)" fill="#fff"/><path d="M63.606,136.5a.633.633,0,0,0-.233.512C63.62,136.919,63.624,136.715,63.606,136.5Z" transform="translate(82.412 104.981)" fill="#fff"/><path d="M30.558,99.69a.487.487,0,0,0-.391-.269C30.217,99.628,30.377,99.675,30.558,99.69Z" transform="translate(82.412 104.981)" fill="#fff"/><path d="M34.833,99.663a.529.529,0,0,0-.407.241A.41.41,0,0,0,34.833,99.663Z" transform="translate(82.412 104.981)" fill="#fff"/><path d="M22.319,100.072a.489.489,0,0,0-.282-.383C22.05,99.876,22.1,100.038,22.319,100.072Z" transform="translate(82.412 104.981)" fill="#fff"/><path d="M34.415,99.909a.51.51,0,0,0-.428.2A.456.456,0,0,0,34.415,99.909Z" transform="translate(82.412 104.981)" fill="#fff"/><path d="M31.272,100.089a.6.6,0,0,0-.477-.226C30.884,100.087,31.071,100.1,31.272,100.089Z" transform="translate(82.412 104.981)" fill="#fff"/><path d="M31.936,100.3a.581.581,0,0,0-.5-.165A.474.474,0,0,0,31.936,100.3Z" transform="translate(82.412 104.981)" fill="#fff"/><path d="M25.014,100.091a.5.5,0,0,0-.269.408C24.982,100.46,25.015,100.287,25.014,100.091Z" transform="translate(82.412 104.981)" fill="#fff"/><path d="M32.916,100.338H32.5C32.638,100.545,32.778,100.542,32.916,100.338Z" transform="translate(82.412 104.981)" fill="#fff"/><path d="M24.594,100.742a.481.481,0,0,0-.263.409C24.554,101.1,24.59,100.932,24.594,100.742Z" transform="translate(82.412 104.981)" fill="#fff"/><path d="M71.1,117.185a.492.492,0,0,0,.28-.388C71.154,116.828,71.114,117,71.1,117.185Z" transform="translate(82.412 104.981)" fill="#fff"/><path d="M70.675,117.822a.479.479,0,0,0,.264-.4C70.731,117.476,70.685,117.636,70.675,117.822Z" transform="translate(82.412 104.981)" fill="#fff"/><path d="M70.267,118.491a.492.492,0,0,0,.253-.424C70.29,118.121,70.26,118.295,70.267,118.491Z" transform="translate(82.412 104.981)" fill="#fff"/><path d="M70.041,118.9a.48.48,0,0,0,.235-.424A.4.4,0,0,0,70.041,118.9Z" transform="translate(82.412 104.981)" fill="#fff"/><path d="M69.826,119.323a.457.457,0,0,0,.217-.43A.426.426,0,0,0,69.826,119.323Z" transform="translate(82.412 104.981)" fill="#fff"/><path d="M69.611,119.753a.455.455,0,0,0,.214-.432A.429.429,0,0,0,69.611,119.753Z" transform="translate(82.412 104.981)" fill="#fff"/><path d="M69.412,120.2a.462.462,0,0,0,.2-.448A.417.417,0,0,0,69.412,120.2Z" transform="translate(82.412 104.981)" fill="#fff"/><path d="M69.212,120.685a.563.563,0,0,0,.208-.5C69.2,120.288,69.192,120.481,69.212,120.685Z" transform="translate(82.412 104.981)" fill="#fff"/><path d="M68.989,121.267a.445.445,0,0,0,.179-.452A.432.432,0,0,0,68.989,121.267Z" transform="translate(82.412 104.981)" fill="#fff"/><path d="M63.666,133.279a.59.59,0,0,0,.229-.5C63.658,132.879,63.648,133.071,63.666,133.279Z" transform="translate(82.412 104.981)" fill="#fff"/><path d="M65.117,133.156a.514.514,0,0,0-.2.463A.437.437,0,0,0,65.117,133.156Z" transform="translate(82.412 104.981)" fill="#fff"/><path d="M63.42,133.825a.426.426,0,0,0,.2-.417A.447.447,0,0,0,63.42,133.825Z" transform="translate(82.412 104.981)" fill="#fff"/><path d="M64.919,133.62a.436.436,0,0,0-.2.423A.446.446,0,0,0,64.919,133.62Z" transform="translate(82.412 104.981)" fill="#fff"/><path d="M63.216,134.267a.456.456,0,0,0,.2-.438A.444.444,0,0,0,63.216,134.267Z" transform="translate(82.412 104.981)" fill="#fff"/><path d="M64.673,134.16a.608.608,0,0,0-.231.506C64.684,134.572,64.691,134.372,64.673,134.16Z" transform="translate(82.412 104.981)" fill="#fff"/><path d="M63.014,134.709a.458.458,0,0,0,.2-.446A.417.417,0,0,0,63.014,134.709Z" transform="translate(82.412 104.981)" fill="#fff"/><path d="M64.456,134.643a.485.485,0,0,0-.21.457C64.46,135.014,64.483,134.839,64.456,134.643Z" transform="translate(82.412 104.981)" fill="#fff"/><path d="M62.812,135.149a.474.474,0,0,0,.208-.455C62.813,134.783,62.791,134.956,62.812,135.149Z" transform="translate(82.412 104.981)" fill="#fff"/><path d="M64.253,135.082a.468.468,0,0,0-.208.45A.393.393,0,0,0,64.253,135.082Z" transform="translate(82.412 104.981)" fill="#fff"/><path d="M62.614,135.59a.511.511,0,0,0,.209-.461C62.6,135.211,62.58,135.389,62.614,135.59Z" transform="translate(82.412 104.981)" fill="#fff"/><path d="M57.428,135.127a.461.461,0,0,0,.449.2A.426.426,0,0,0,57.428,135.127Z" transform="translate(82.412 104.981)" fill="#fff"/><path d="M57.875,135.327a.445.445,0,0,0,.428.2A.445.445,0,0,0,57.875,135.327Z" transform="translate(82.412 104.981)" fill="#fff"/><path d="M64.053,135.523a.444.444,0,0,0-.2.443A.434.434,0,0,0,64.053,135.523Z" transform="translate(82.412 104.981)" fill="#fff"/><path d="M58.4,135.571a.652.652,0,0,0,.515.238C58.829,135.555,58.621,135.554,58.4,135.571Z" transform="translate(82.412 104.981)" fill="#fff"/><path d="M58.9,135.793a.5.5,0,0,0,.46.209C59.271,135.781,59.1,135.762,58.9,135.793Z" transform="translate(82.412 104.981)" fill="#fff"/><path d="M63.85,135.968a.441.441,0,0,0-.2.426A.441.441,0,0,0,63.85,135.968Z" transform="translate(82.412 104.981)" fill="#fff"/><path d="M59.337,135.99a.467.467,0,0,0,.453.208A.388.388,0,0,0,59.337,135.99Z" transform="translate(82.412 104.981)" fill="#fff"/><path d="M62.148,136.613a.449.449,0,0,0,.2-.437A.449.449,0,0,0,62.148,136.613Z" transform="translate(82.412 104.981)" fill="#fff"/><path d="M59.777,136.19a.456.456,0,0,0,.444.207A.421.421,0,0,0,59.777,136.19Z" transform="translate(82.412 104.981)" fill="#fff"/><path d="M60.216,136.4a.447.447,0,0,0,.437.2A.447.447,0,0,0,60.216,136.4Z" transform="translate(82.412 104.981)" fill="#fff"/><path d="M57.5,136.566a.506.506,0,0,0-.46-.21C57.123,136.578,57.3,136.6,57.5,136.566Z" transform="translate(82.412 104.981)" fill="#fff"/><path d="M61.929,137.031c.2-.076.219-.245.22-.423A.43.43,0,0,0,61.929,137.031Z" transform="translate(82.412 104.981)" fill="#fff"/><path d="M57.989,136.789a.649.649,0,0,0-.515-.238C57.565,136.8,57.772,136.806,57.989,136.789Z" transform="translate(82.412 104.981)" fill="#fff"/><path d="M61.241,136.86a.5.5,0,0,0,.462.206C61.617,136.847,61.44,136.829,61.241,136.86Z" transform="translate(82.412 104.981)" fill="#fff"/><path d="M58.52,137.032a.445.445,0,0,0-.428-.2A.441.441,0,0,0,58.52,137.032Z" transform="translate(82.412 104.981)" fill="#fff"/><path d="M63.387,136.989a.484.484,0,0,0-.211.457C63.394,137.362,63.414,137.186,63.387,136.989Z" transform="translate(82.412 104.981)" fill="#fff"/><path d="M58.961,137.235a.447.447,0,0,0-.444-.2A.428.428,0,0,0,58.961,137.235Z" transform="translate(82.412 104.981)" fill="#fff"/><path d="M59.4,137.437a.469.469,0,0,0-.452-.208A.389.389,0,0,0,59.4,137.437Z" transform="translate(82.412 104.981)" fill="#fff"/><path d="M59.843,137.635a.493.493,0,0,0-.46-.209C59.469,137.645,59.645,137.659,59.843,137.635Z" transform="translate(82.412 104.981)" fill="#fff"/><path d="M63.166,137.707c.076.209.264.216.442.239C63.546,137.707,63.368,137.684,63.166,137.707Z" transform="translate(82.412 104.981)" fill="#fff"/><path d="M60.328,137.855a.643.643,0,0,0-.514-.235C59.912,137.87,60.118,137.873,60.328,137.855Z" transform="translate(82.412 104.981)" fill="#fff"/><path d="M63.586,137.931a.509.509,0,0,0,.46.211C63.965,137.915,63.787,137.9,63.586,137.931Z" transform="translate(82.412 104.981)" fill="#fff"/><path d="M60.863,138.1a.44.44,0,0,0-.425-.2A.44.44,0,0,0,60.863,138.1Z" transform="translate(82.412 104.981)" fill="#fff"/><path d="M64.025,138.13a.481.481,0,0,0,.456.208C64.393,138.13,64.218,138.108,64.025,138.13Z" transform="translate(82.412 104.981)" fill="#fff"/><path d="M61.254,138.314c-.054-.211-.223-.212-.391-.214A.4.4,0,0,0,61.254,138.314Z" transform="translate(82.412 104.981)" fill="#fff"/><path d="M64.464,138.33a.459.459,0,0,0,.449.206A.414.414,0,0,0,64.464,138.33Z" transform="translate(82.412 104.981)" fill="#fff"/><path d="M64.9,138.534a.452.452,0,0,0,.44.2A.443.443,0,0,0,64.9,138.534Z" transform="translate(82.412 104.981)" fill="#fff"/><path d="M61.08,138.959a.435.435,0,0,0,.2-.43A.443.443,0,0,0,61.08,138.959Z" transform="translate(82.412 104.981)" fill="#fff"/><path d="M65.349,138.738a.43.43,0,0,0,.418.2A.448.448,0,0,0,65.349,138.738Z" transform="translate(82.412 104.981)" fill="#fff"/><path d="M65.894,138.983a.577.577,0,0,0,.5.229C66.3,138.975,66.108,138.965,65.894,138.983Z" transform="translate(82.412 104.981)" fill="#fff"/><path d="M60.877,139.4a.453.453,0,0,0,.2-.446A.425.425,0,0,0,60.877,139.4Z" transform="translate(82.412 104.981)" fill="#fff"/><path d="M66.369,139.2a.484.484,0,0,0,.456.21C66.742,139.2,66.564,139.175,66.369,139.2Z" transform="translate(82.412 104.981)" fill="#fff"/><path d="M63.652,139.372a.449.449,0,0,0-.442-.2A.436.436,0,0,0,63.652,139.372Z" transform="translate(82.412 104.981)" fill="#fff"/><path d="M66.809,139.4a.458.458,0,0,0,.449.205A.4.4,0,0,0,66.809,139.4Z" transform="translate(82.412 104.981)" fill="#fff"/><path d="M64.094,139.573a.469.469,0,0,0-.451-.206A.4.4,0,0,0,64.094,139.573Z" transform="translate(82.412 104.981)" fill="#fff"/><path d="M62.315,139.332a.5.5,0,0,0-.208.46C62.329,139.708,62.347,139.531,62.315,139.332Z" transform="translate(82.412 104.981)" fill="#fff"/><path d="M60.674,139.84a.468.468,0,0,0,.209-.451C60.68,139.475,60.657,139.649,60.674,139.84Z" transform="translate(82.412 104.981)" fill="#fff"/><path d="M67.25,139.6a.56.56,0,0,0,.426.238A.388.388,0,0,0,67.25,139.6Z" transform="translate(82.412 104.981)" fill="#fff"/><path d="M64.53,139.775a.487.487,0,0,0-.455-.211C64.16,139.778,64.335,139.8,64.53,139.775Z" transform="translate(82.412 104.981)" fill="#fff"/><path d="M65.008,139.991a.584.584,0,0,0-.5-.229C64.6,140,64.8,140.009,65.008,139.991Z" transform="translate(82.412 104.981)" fill="#fff"/><path d="M62.119,139.773a.467.467,0,0,0-.208.454C62.114,140.14,62.136,139.964,62.119,139.773Z" transform="translate(82.412 104.981)" fill="#fff"/><path d="M60.475,140.281a.493.493,0,0,0,.209-.46C60.466,139.906,60.446,140.083,60.475,140.281Z" transform="translate(82.412 104.981)" fill="#fff"/><path d="M65.553,140.236a.433.433,0,0,0-.421-.2A.447.447,0,0,0,65.553,140.236Z" transform="translate(82.412 104.981)" fill="#fff"/><path d="M66,140.44a.452.452,0,0,0-.44-.2A.437.437,0,0,0,66,140.44Z" transform="translate(82.412 104.981)" fill="#fff"/><path d="M61.917,140.214a.453.453,0,0,0-.2.446A.425.425,0,0,0,61.917,140.214Z" transform="translate(82.412 104.981)" fill="#fff"/><path d="M60.255,140.772a.636.636,0,0,0,.235-.513C60.24,140.35,60.237,140.555,60.255,140.772Z" transform="translate(82.412 104.981)" fill="#fff"/><path d="M67.892,140.416l-.268.422C67.863,140.793,67.892,140.616,67.892,140.416Z" transform="translate(82.412 104.981)" fill="#fff"/><path d="M66.436,140.644a.453.453,0,0,0-.448-.208A.4.4,0,0,0,66.436,140.644Z" transform="translate(82.412 104.981)" fill="#fff"/><path d="M66.876,140.84a.486.486,0,0,0-.456-.209C66.507,140.846,66.682,140.867,66.876,140.84Z" transform="translate(82.412 104.981)" fill="#fff"/><path d="M61.715,140.656a.439.439,0,0,0-.2.43A.439.439,0,0,0,61.715,140.656Z" transform="translate(82.412 104.981)" fill="#fff"/><path d="M60.011,141.3a.443.443,0,0,0,.2-.427A.443.443,0,0,0,60.011,141.3Z" transform="translate(82.412 104.981)" fill="#fff"/><path d="M61.472,141.189a.648.648,0,0,0-.24.514C61.488,141.614,61.489,141.406,61.472,141.189Z" transform="translate(82.412 104.981)" fill="#fff"/><path d="M59.808,141.745a.443.443,0,0,0,.2-.443A.43.43,0,0,0,59.808,141.745Z" transform="translate(82.412 104.981)" fill="#fff"/><path d="M61.247,141.676a.5.5,0,0,0-.208.461C61.262,142.056,61.28,141.876,61.247,141.676Z" transform="translate(82.412 104.981)" fill="#fff"/><path d="M59.6,142.185a.466.466,0,0,0,.207-.451A.392.392,0,0,0,59.6,142.185Z" transform="translate(82.412 104.981)" fill="#fff"/><path d="M61.05,142.122a.467.467,0,0,0-.208.454A.384.384,0,0,0,61.05,142.122Z" transform="translate(82.412 104.981)" fill="#fff"/><path d="M59.406,142.626a.488.488,0,0,0,.21-.458C59.4,142.253,59.375,142.429,59.406,142.626Z" transform="translate(82.412 104.981)" fill="#fff"/><path d="M60.849,142.56a.457.457,0,0,0-.2.446A.42.42,0,0,0,60.849,142.56Z" transform="translate(82.412 104.981)" fill="#fff"/><path d="M60.646,143a.528.528,0,0,0-.225.428A.411.411,0,0,0,60.646,143Z" transform="translate(82.412 104.981)" fill="#fff"/><path d="M67.29,169.556a.5.5,0,0,0,.168-.507A.479.479,0,0,0,67.29,169.556Z" transform="translate(82.412 104.981)" fill="#fff"/><path d="M66.885,171.156l-.042-.4C66.617,170.915,66.614,171.05,66.885,171.156Z" transform="translate(82.412 104.981)" fill="#fff"/><path d="M67.474,171.609a.489.489,0,0,0-.378-.288C67.117,171.555,67.29,171.6,67.474,171.609Z" transform="translate(82.412 104.981)" fill="#fff"/><path d="M68.322,172.252a.475.475,0,0,0-.38-.284C67.975,172.187,68.136,172.237,68.322,172.252Z" transform="translate(82.412 104.981)" fill="#fff"/><path d="M65.773,172.68a.466.466,0,0,0,.272-.4C65.818,172.321,65.78,172.491,65.773,172.68Z" transform="translate(82.412 104.981)" fill="#fff"/><path d="M69.169,172.894a.468.468,0,0,0-.377-.282C68.828,172.827,68.986,172.877,69.169,172.894Z" transform="translate(82.412 104.981)" fill="#fff"/><path d="M68.347,173.093a.476.476,0,0,0,.376.281C68.686,173.163,68.529,173.112,68.347,173.093Z" transform="translate(82.412 104.981)" fill="#fff"/><path d="M69.194,173.736a.476.476,0,0,0,.376.285C69.538,173.8,69.379,173.753,69.194,173.736Z" transform="translate(82.412 104.981)" fill="#fff"/><path d="M70.043,174.379a.486.486,0,0,0,.374.288C70.391,174.444,70.23,174.4,70.043,174.379Z" transform="translate(82.412 104.981)" fill="#fff"/><path d="M71.3,174.993c.214-.126.232-.262.02-.41Z" transform="translate(82.412 104.981)" fill="#fff"/><path d="M63.228,174.851a.472.472,0,0,0,.429-.242C63.466,174.6,63.295,174.634,63.228,174.851Z" transform="translate(82.412 104.981)" fill="#fff"/><path d="M65.812,175.214a.455.455,0,0,0-.265-.389C65.564,175.007,65.613,175.162,65.812,175.214Z" transform="translate(82.412 104.981)" fill="#fff"/><path d="M62.8,175.061a.462.462,0,0,0,.448-.224C63.051,174.818,62.877,174.842,62.8,175.061Z" transform="translate(82.412 104.981)" fill="#fff"/><path d="M70.9,175.019c.135.185.267.246.392-.008Z" transform="translate(82.412 104.981)" fill="#fff"/><path d="M62.364,175.257a.464.464,0,0,0,.454-.208C62.626,175.03,62.454,175.052,62.364,175.257Z" transform="translate(82.412 104.981)" fill="#fff"/><path d="M65.059,175.279a.5.5,0,0,0,.278.394C65.331,175.481,65.3,175.309,65.059,175.279Z" transform="translate(82.412 104.981)" fill="#fff"/><path d="M61.932,175.44a.43.43,0,0,0,.447-.189A.43.43,0,0,0,61.932,175.44Z" transform="translate(82.412 104.981)" fill="#fff"/><path d="M66.224,175.865a.455.455,0,0,0-.247-.4A.4.4,0,0,0,66.224,175.865Z" transform="translate(82.412 104.981)" fill="#fff"/><path d="M61.3,175.683a.581.581,0,0,0,.524-.2C61.612,175.46,61.412,175.463,61.3,175.683Z" transform="translate(82.412 104.981)" fill="#fff"/><path d="M60.862,175.856a.436.436,0,0,0,.445-.18A.436.436,0,0,0,60.862,175.856Z" transform="translate(82.412 104.981)" fill="#fff"/><path d="M66.469,176.273a.487.487,0,0,0-.254-.423C66.207,176.046,66.236,176.221,66.469,176.273Z" transform="translate(82.412 104.981)" fill="#fff"/><path d="M65.487,175.916a.513.513,0,0,0,.263.417C65.758,176.134,65.729,175.957,65.487,175.916Z" transform="translate(82.412 104.981)" fill="#fff"/><path d="M60.226,176.1a.527.527,0,0,0,.5-.194A.446.446,0,0,0,60.226,176.1Z" transform="translate(82.412 104.981)" fill="#fff"/><path d="M59.8,176.288a.454.454,0,0,0,.432-.193A.443.443,0,0,0,59.8,176.288Z" transform="translate(82.412 104.981)" fill="#fff"/><path d="M65.739,176.316a.481.481,0,0,0,.24.421A.391.391,0,0,0,65.739,176.316Z" transform="translate(82.412 104.981)" fill="#fff"/><path d="M58.945,176.735a.466.466,0,0,0,.4-.228A.43.43,0,0,0,58.945,176.735Z" transform="translate(82.412 104.981)" fill="#fff"/><path d="M58.546,177a.5.5,0,0,0,.4-.266C58.76,176.74,58.591,176.777,58.546,177Z" transform="translate(82.412 104.981)" fill="#fff"/><path d="M56.614,179.1a.519.519,0,0,0,.266-.412C56.639,178.73,56.609,178.9,56.614,179.1Z" transform="translate(82.412 104.981)" fill="#fff"/><path d="M56.394,179.52a.485.485,0,0,0,.23-.432A.4.4,0,0,0,56.394,179.52Z" transform="translate(82.412 104.981)" fill="#fff"/><path d="M56.193,179.964a.483.483,0,0,0,.2-.454A.389.389,0,0,0,56.193,179.964Z" transform="translate(82.412 104.981)" fill="#fff"/><path d="M55.737,180.571a.441.441,0,0,0,.185.417l.059-.4Z" transform="translate(82.412 104.981)" fill="#fff"/><path d="M67.083,170.155a.441.441,0,0,0,.169-.467A.41.41,0,0,0,67.083,170.155Z" transform="translate(82.412 104.981)" fill="#fff"/><path d="M35.243,93.931a.3.3,0,0,0,.225.231A.321.321,0,0,0,35.243,93.931Z" transform="translate(82.412 104.981)" fill="#fff"/><path d="M61.686,137.056c.1.172.184.214.242-.024Z" transform="translate(82.412 104.981)" fill="#fff"/><path d="M30.14,93.908a.252.252,0,0,0,.221-.2Z" transform="translate(82.412 104.981)" fill="#fff"/><path d="M63.187,137.428c-.162.09-.219.184-.01.288C63.18,137.62,63.184,137.524,63.187,137.428Z" transform="translate(82.412 104.981)" fill="#fff"/><path d="M35.02,93.722a.287.287,0,0,0,.237.221A.314.314,0,0,0,35.02,93.722Z" transform="translate(82.412 104.981)" fill="#fff"/><path d="M30.36,93.71a.28.28,0,0,0,.242-.2Z" transform="translate(82.412 104.981)" fill="#fff"/><path d="M34.379,93.3a.255.255,0,0,0,.252.177Z" transform="translate(82.412 104.981)" fill="#fff"/><path d="M25.853,98.788a.24.24,0,0,0-.176.26Z" transform="translate(82.412 104.981)" fill="#fff"/><path d="M70.92,117.446a.252.252,0,0,0,.183-.262A.311.311,0,0,0,70.92,117.446Z" transform="translate(82.412 104.981)" fill="#fff"/><path d="M70.5,118.1a.248.248,0,0,0,.174-.268A.3.3,0,0,0,70.5,118.1Z" transform="translate(82.412 104.981)" fill="#fff"/><path d="M22.682,100.536a.25.25,0,0,0-.2-.245Z" transform="translate(82.412 104.981)" fill="#fff"/><path d="M67.657,139.824a.4.4,0,0,0,.216.3A.334.334,0,0,0,67.657,139.824Z" transform="translate(82.412 104.981)" fill="#fff"/><path d="M35.684,98.812a.283.283,0,0,0-.2.234Z" transform="translate(82.412 104.981)" fill="#fff"/><path d="M29.692,92.811a.24.24,0,0,0-.176.261Z" transform="translate(82.412 104.981)" fill="#fff"/><path d="M24.765,100.475a.263.263,0,0,0-.175.272A.282.282,0,0,0,24.765,100.475Z" transform="translate(82.412 104.981)" fill="#fff"/><path d="M35.881,98.522a.408.408,0,0,0-.206.3A.345.345,0,0,0,35.881,98.522Z" transform="translate(82.412 104.981)" fill="#fff"/><path d="M21.184,98.4a.256.256,0,0,0-.162-.277A.288.288,0,0,0,21.184,98.4Z" transform="translate(82.412 104.981)" fill="#fff"/><path d="M35.054,99.477a.28.28,0,0,0-.235.2Z" transform="translate(82.412 104.981)" fill="#fff"/><path d="M30.109,92.161a.248.248,0,0,0-.176.267A.3.3,0,0,0,30.109,92.161Z" transform="translate(82.412 104.981)" fill="#fff"/><path d="M30.523,91.51a.262.262,0,0,0-.174.273A.28.28,0,0,0,30.523,91.51Z" transform="translate(82.412 104.981)" fill="#fff"/><path d="M31.612,89.823a.24.24,0,0,0-.176.261Z" transform="translate(82.412 104.981)" fill="#fff"/><path d="M32.029,89.173a.248.248,0,0,0-.176.267A.3.3,0,0,0,32.029,89.173Z" transform="translate(82.412 104.981)" fill="#fff"/><path d="M32.443,88.517a.262.262,0,0,0-.174.273A.28.28,0,0,0,32.443,88.517Z" transform="translate(82.412 104.981)" fill="#fff"/><path d="M35.271,99.277a.247.247,0,0,0-.213.2Z" transform="translate(82.412 104.981)" fill="#fff"/><path d="M33.532,86.834a.24.24,0,0,0-.176.262Z" transform="translate(82.412 104.981)" fill="#fff"/><path d="M20.577,86.5a.247.247,0,0,0,.177-.263A.314.314,0,0,0,20.577,86.5Z" transform="translate(82.412 104.981)" fill="#fff"/><path d="M33.948,86.185a.248.248,0,0,0-.176.267A.3.3,0,0,0,33.948,86.185Z" transform="translate(82.412 104.981)" fill="#fff"/><path d="M21,85.862a.259.259,0,0,0,.2-.257A.3.3,0,0,0,21,85.862Z" transform="translate(82.412 104.981)" fill="#fff"/><path d="M34.367,85.534a.26.26,0,0,0-.174.273A.28.28,0,0,0,34.367,85.534Z" transform="translate(82.412 104.981)" fill="#fff"/><path d="M21.194,85.613a.235.235,0,0,0,.19-.237Z" transform="translate(82.412 104.981)" fill="#fff"/><path d="M60.428,143.418a.315.315,0,0,0-.24.214A.315.315,0,0,0,60.428,143.418Z" transform="translate(82.412 104.981)" fill="#fff"/><path d="M59.625,143.627a.322.322,0,0,0-.242-.219A.3.3,0,0,0,59.625,143.627Z" transform="translate(82.412 104.981)" fill="#fff"/><path d="M30.19,99.447a.274.274,0,0,0-.234-.234A.274.274,0,0,0,30.19,99.447Z" transform="translate(82.412 104.981)" fill="#fff"/><path d="M21.668,85.029a.288.288,0,0,0,.217-.248A.24.24,0,0,0,21.668,85.029Z" transform="translate(82.412 104.981)" fill="#fff"/><path d="M67.118,171.344a.292.292,0,0,0-.255-.21A.255.255,0,0,0,67.118,171.344Z" transform="translate(82.412 104.981)" fill="#fff"/><path d="M21.866,84.8a.286.286,0,0,0,.225-.242A.261.261,0,0,0,21.866,84.8Z" transform="translate(82.412 104.981)" fill="#fff"/><path d="M67.723,171.8a.243.243,0,0,0-.248-.194Z" transform="translate(82.412 104.981)" fill="#fff"/><path d="M67.966,171.989a.275.275,0,0,0-.261-.2A.271.271,0,0,0,67.966,171.989Z" transform="translate(82.412 104.981)" fill="#fff"/><path d="M22.069,84.582a.278.278,0,0,0,.234-.234A.27.27,0,0,0,22.069,84.582Z" transform="translate(82.412 104.981)" fill="#fff"/><path d="M67,172.063a.256.256,0,0,0,.255.2A.3.3,0,0,0,67,172.063Z" transform="translate(82.412 104.981)" fill="#fff"/><path d="M66.025,172.306a.25.25,0,0,0,.173-.271A.3.3,0,0,0,66.025,172.306Z" transform="translate(82.412 104.981)" fill="#fff"/><path d="M68.569,172.449a.238.238,0,0,0-.242-.193Z" transform="translate(82.412 104.981)" fill="#fff"/><path d="M35.485,99.053a.246.246,0,0,0-.2.21Z" transform="translate(82.412 104.981)" fill="#fff"/><path d="M68.816,172.633a.27.27,0,0,0-.261-.2A.28.28,0,0,0,68.816,172.633Z" transform="translate(82.412 104.981)" fill="#fff"/><path d="M67.852,172.707a.262.262,0,0,0,.256.2A.3.3,0,0,0,67.852,172.707Z" transform="translate(82.412 104.981)" fill="#fff"/><path d="M65.579,172.928a.248.248,0,0,0,.2-.251A.316.316,0,0,0,65.579,172.928Z" transform="translate(82.412 104.981)" fill="#fff"/><path d="M69.417,173.092a.235.235,0,0,0-.239-.191Z" transform="translate(82.412 104.981)" fill="#fff"/><path d="M68.1,172.9a.231.231,0,0,0,.24.188Z" transform="translate(82.412 104.981)" fill="#fff"/><path d="M65.385,173.165a.273.273,0,0,0,.208-.256A.266.266,0,0,0,65.385,173.165Z" transform="translate(82.412 104.981)" fill="#fff"/><path d="M69.665,173.278a.264.264,0,0,0-.259-.2A.287.287,0,0,0,69.665,173.278Z" transform="translate(82.412 104.981)" fill="#fff"/><path d="M27.772,95.8a.241.241,0,0,0-.176.261Z" transform="translate(82.412 104.981)" fill="#fff"/><path d="M68.7,173.353a.266.266,0,0,0,.259.2A.287.287,0,0,0,68.7,173.353Z" transform="translate(82.412 104.981)" fill="#fff"/><path d="M68.945,173.541a.237.237,0,0,0,.243.191Z" transform="translate(82.412 104.981)" fill="#fff"/><path d="M70.513,173.924a.258.258,0,0,0-.256-.2A.3.3,0,0,0,70.513,173.924Z" transform="translate(82.412 104.981)" fill="#fff"/><path d="M22.283,84.368a.281.281,0,0,0,.235-.232A.269.269,0,0,0,22.283,84.368Z" transform="translate(82.412 104.981)" fill="#fff"/><path d="M69.547,174a.271.271,0,0,0,.262.2A.271.271,0,0,0,69.547,174Z" transform="translate(82.412 104.981)" fill="#fff"/><path d="M69.793,174.185a.241.241,0,0,0,.246.191Z" transform="translate(82.412 104.981)" fill="#fff"/><path d="M71.328,174.591c0-.144-.087-.207-.22-.219Z" transform="translate(82.412 104.981)" fill="#fff"/><path d="M24.35,101.121a.25.25,0,0,0-.176.266A.305.305,0,0,0,24.35,101.121Z" transform="translate(82.412 104.981)" fill="#fff"/><path d="M65.362,174.588a.263.263,0,0,0-.2-.26A.289.289,0,0,0,65.362,174.588Z" transform="translate(82.412 104.981)" fill="#fff"/><path d="M21.6,99.049a.24.24,0,0,0-.177-.256Z" transform="translate(82.412 104.981)" fill="#fff"/><path d="M70.395,174.647a.276.276,0,0,0,.264.2A.262.262,0,0,0,70.395,174.647Z" transform="translate(82.412 104.981)" fill="#fff"/><path d="M65.539,174.815a.229.229,0,0,0-.185-.241Z" transform="translate(82.412 104.981)" fill="#fff"/><path d="M26.271,98.138a.248.248,0,0,0-.176.266A.3.3,0,0,0,26.271,98.138Z" transform="translate(82.412 104.981)" fill="#fff"/><path d="M70.641,174.828a.234.234,0,0,0,.251.188Z" transform="translate(82.412 104.981)" fill="#fff"/><path d="M23.6,101.56a.285.285,0,0,0-.234-.234A.24.24,0,0,0,23.6,101.56Z" transform="translate(82.412 104.981)" fill="#fff"/><path d="M64.71,174.807a.241.241,0,0,0,.191.246Z" transform="translate(82.412 104.981)" fill="#fff"/><path d="M30.816,99.882a.264.264,0,0,0-.248-.186Z" transform="translate(82.412 104.981)" fill="#fff"/><path d="M64.888,175.036a.275.275,0,0,0,.192.266A.269.269,0,0,0,64.888,175.036Z" transform="translate(82.412 104.981)" fill="#fff"/><path d="M22.5,84.156a.284.284,0,0,0,.247-.219A.252.252,0,0,0,22.5,84.156Z" transform="translate(82.412 104.981)" fill="#fff"/><path d="M65.973,175.453a.238.238,0,0,0-.178-.259Z" transform="translate(82.412 104.981)" fill="#fff"/><path d="M36.1,98.105a.335.335,0,0,0-.168.292A.343.343,0,0,0,36.1,98.105Z" transform="translate(82.412 104.981)" fill="#fff"/><path d="M22.035,99.686a.244.244,0,0,0-.187-.254Z" transform="translate(82.412 104.981)" fill="#fff"/><path d="M35.451,83.848a.241.241,0,0,0-.176.261Z" transform="translate(82.412 104.981)" fill="#fff"/><path d="M65.332,175.668a.265.265,0,0,0,.176.273A.281.281,0,0,0,65.332,175.668Z" transform="translate(82.412 104.981)" fill="#fff"/><path d="M56.622,135.372a.311.311,0,0,0,.245-.223A.269.269,0,0,0,56.622,135.372Z" transform="translate(82.412 104.981)" fill="#fff"/><path d="M23.32,83.467a.254.254,0,0,0,.256-.191A.317.317,0,0,0,23.32,83.467Z" transform="translate(82.412 104.981)" fill="#fff"/><path d="M28.189,95.148a.248.248,0,0,0-.176.267A.3.3,0,0,0,28.189,95.148Z" transform="translate(82.412 104.981)" fill="#fff"/><path d="M35.65,83.273a.364.364,0,0,0,.022.182C35.84,83.373,35.815,83.315,35.65,83.273Z" transform="translate(82.412 104.981)" fill="#fff"/><path d="M66.605,176.518a.228.228,0,0,0-.155-.266A.292.292,0,0,0,66.605,176.518Z" transform="translate(82.412 104.981)" fill="#fff"/><path d="M28.6,94.5a.261.261,0,0,0-.174.272A.279.279,0,0,0,28.6,94.5Z" transform="translate(82.412 104.981)" fill="#fff"/><path d="M59.364,176.5a.314.314,0,0,0,.318-.167A.385.385,0,0,0,59.364,176.5Z" transform="translate(82.412 104.981)" fill="#fff"/><path d="M22.5,100.31a.276.276,0,0,0-.2-.262A.273.273,0,0,0,22.5,100.31Z" transform="translate(82.412 104.981)" fill="#fff"/><path d="M66.653,176.988c.187-.121.144-.242,0-.365Z" transform="translate(82.412 104.981)" fill="#fff"/><path d="M29.521,94.6a.278.278,0,0,0,.2-.245Z" transform="translate(82.412 104.981)" fill="#fff"/><path d="M58.311,177.172a.264.264,0,0,0,.259-.194A.294.294,0,0,0,58.311,177.172Z" transform="translate(82.412 104.981)" fill="#fff"/><path d="M58.086,177.358a.24.24,0,0,0,.235-.193Z" transform="translate(82.412 104.981)" fill="#fff"/><path d="M57.035,178.461a.243.243,0,0,0,.2-.24Z" transform="translate(82.412 104.981)" fill="#fff"/><path d="M56.86,178.715a.274.274,0,0,0,.186-.268A.274.274,0,0,0,56.86,178.715Z" transform="translate(82.412 104.981)" fill="#fff"/><path d="M29.721,94.355a.257.257,0,0,0,.2-.225Z" transform="translate(82.412 104.981)" fill="#fff"/><path d="M23.955,83.028a.248.248,0,0,0,.267-.172A.314.314,0,0,0,23.955,83.028Z" transform="translate(82.412 104.981)" fill="#fff"/><path d="M26.684,97.49a.26.26,0,0,0-.174.272A.282.282,0,0,0,26.684,97.49Z" transform="translate(82.412 104.981)" fill="#fff"/><path d="M34.953,82.854a.311.311,0,0,0,.317.168A.383.383,0,0,0,34.953,82.854Z" transform="translate(82.412 104.981)" fill="#fff"/><path d="M35.452,94.145a.282.282,0,0,0,.219.242A.3.3,0,0,0,35.452,94.145Z" transform="translate(82.412 104.981)" fill="#fff"/><path d="M29.927,94.118a.247.247,0,0,0,.2-.2Z" transform="translate(82.412 104.981)" fill="#fff"/><path d="M97.451,191.411l13.69,5.017c-1.171-5-2.43-9.813-3.651-14.838C104.057,184.813,100.852,188.094,97.451,191.411Z" transform="translate(82.412 104.981)" fill="#f29441"/><path d="M183.911,219.578h0l-1.248-.721c-1.456-.842-2.829-1.635-4.231-2.433a.494.494,0,0,1-.262-.275.693.693,0,0,1,.157-.488l.008-.013c.469-.8.931-1.6,1.442-2.492l.1-.178c.349-.6.709-1.23,1.065-1.842.034-.058.065-.121.1-.181a1.1,1.1,0,0,1,.513-.589l1.411.815c1.21.7,2.582,1.492,3.907,2.249.184.106.275.2.3.308a.483.483,0,0,1-.085.361c-.819,1.4-1.616,2.778-2.46,4.237l-.026.045-.692,1.2Zm-2.059-7.715h0l-.5.859-.133.23,0,.009c-.5.857-.963,1.666-1.446,2.492a.347.347,0,0,0-.058.267.438.438,0,0,0,.234.244q.546.316,1.094.631l.054.031.024.014c.671.387,1.366.786,2.044,1.186a.463.463,0,0,0,.229.076c.168,0,.262-.164.346-.308.5-.869,1-1.737,1.519-2.643l.479-.834-.821-.477-3.063-1.778Z" transform="translate(97.219 -21.406)" fill="#f29441"/><path d="M184.96,146.546c-.031.3.25.483.5.685l4.763,3.918c.548.451,1.09.907,1.641,1.354.286.231.615.45.931.09.34-.386.128-.718-.206-.993-2.192-1.8-4.376-3.608-6.581-5.394C185.512,145.808,185,145.967,184.96,146.546Z" transform="translate(82.412 104.981)" fill="#1c1d29"/><path d="M175.828,119.064a.975.975,0,0,0-.628.357q-1.939,1.724-3.875,3.453a1.935,1.935,0,0,0-.3.3.553.553,0,0,0,.018.767.535.535,0,0,0,.682.076,1.74,1.74,0,0,0,.336-.255q1.981-1.758,3.957-3.522a1.5,1.5,0,0,0,.341-.4.526.526,0,0,0-.531-.776Z" transform="translate(82.412 104.981)" fill="#1c1d29"/><path d="M23.606,102.281a.338.338,0,0,1-.234-.14.243.243,0,0,1-.243-.241,2.35,2.35,0,0,1-.542-.6c-.055-.077-.117-.165-.181-.246l-.049-.046a.66.66,0,0,1-.156-.2.328.328,0,0,1-.2-.252c-.1-.033-.136-.124-.166-.212a.332.332,0,0,0-.111-.187,1.025,1.025,0,0,0-.07-.078.486.486,0,0,1-.126-.178.316.316,0,0,1-.137-.207.322.322,0,0,0-.125-.2l-.007-.012a.739.739,0,0,0-.077-.1.48.48,0,0,1-.1-.155A.347.347,0,0,1,20.94,99a.373.373,0,0,0-.113-.2c-.016-.02-.033-.036-.049-.053a.328.328,0,0,1-.124-.223c-.134-.051-.16-.166-.186-.277a.7.7,0,0,0-.046-.15.379.379,0,0,1-.176-.282.7.7,0,0,0-.057-.165.405.405,0,0,1-.168-.285.7.7,0,0,0-.057-.167.441.441,0,0,1-.177-.323.988.988,0,0,0-.037-.142c-.155-.075-.16-.215-.166-.35a.387.387,0,0,0-.1-.311v.009a.8.8,0,0,1-.164-.391c-.011-.051-.024-.109-.041-.163l.024-.072-.06-.048a.484.484,0,0,1-.107-.349.487.487,0,0,0-.1-.345v.011a.646.646,0,0,1-.127-.495.7.7,0,0,0-.094-.456.114.114,0,0,0-.006-.16l-.021-.015a1.846,1.846,0,0,1-.1-.859,1.877,1.877,0,0,0-.1-.847.569.569,0,0,0,0-.65,1.628,1.628,0,0,0,.1-.738,1.609,1.609,0,0,1,.1-.743.13.13,0,0,0,.036-.179l-.006-.008a.625.625,0,0,0,.1-.445.566.566,0,0,1,.142-.489l-.009.021a.479.479,0,0,0,.089-.317.4.4,0,0,1,.156-.374.927.927,0,0,0,.057-.176.546.546,0,0,1,.14-.289v.009a.513.513,0,0,0,.1-.223.483.483,0,0,1,.119-.24.418.418,0,0,0,.107-.21.409.409,0,0,1,.132-.237l-.006.012a.471.471,0,0,0,.09-.192.345.345,0,0,1,.16-.246.45.45,0,0,1,.129-.2c.019-.021.038-.041.055-.062a.37.37,0,0,0,.115-.2.3.3,0,0,1,.154-.217.447.447,0,0,1,.2-.252,1.032,1.032,0,0,1,.089-.109.925.925,0,0,0,.107-.134L21.053,85a.287.287,0,0,0,.118-.178c.031-.087.062-.177.173-.2a.233.233,0,0,1,.212-.24.285.285,0,0,1,.219-.233A.309.309,0,0,1,22,83.919a.3.3,0,0,1,.227-.224.262.262,0,0,1,.243-.214.805.805,0,0,1,.367-.323,1.3,1.3,0,0,0,.259-.176c.009-.011.02-.023.032-.035a.549.549,0,0,1,.219-.161.313.313,0,0,1,.214-.144.343.343,0,0,0,.2-.119h.006c.024-.018.048-.038.071-.059a.436.436,0,0,1,.193-.119.357.357,0,0,1,.26-.166.552.552,0,0,0,.186-.077l-.017.01a.423.423,0,0,1,.274-.157.634.634,0,0,0,.2-.077l-.018.011a.542.542,0,0,1,.353-.179,1.217,1.217,0,0,0,.179-.05l.081.019.054-.064a.756.756,0,0,1,.3-.117,1.069,1.069,0,0,0,.221-.069.14.14,0,0,0,.069.024.1.1,0,0,0,.085-.064.614.614,0,0,1,.366-.1.622.622,0,0,0,.361-.1.14.14,0,0,0,.079.028.124.124,0,0,0,.1-.058,1.057,1.057,0,0,1,.528-.1h.2a1.14,1.14,0,0,0,.519-.092,6.937,6.937,0,0,0,.9.056,7.958,7.958,0,0,0,.913-.053,1.192,1.192,0,0,0,.52.1h.395a1.174,1.174,0,0,1,.542.1.135.135,0,0,0,.1.057.15.15,0,0,0,.084-.03.58.58,0,0,0,.379.1h.167a.574.574,0,0,1,.4.115l.049.056.068-.029a.772.772,0,0,0,.331.07.568.568,0,0,1,.444.163l-.022-.011a.484.484,0,0,0,.313.084.4.4,0,0,1,.378.161,1.019,1.019,0,0,0,.171.051.608.608,0,0,1,.3.135.429.429,0,0,0,.233.11.5.5,0,0,1,.219.093l.046.065.077-.015a.513.513,0,0,1,.282.136l.055.041.015.007a.309.309,0,0,0,.2.127.307.307,0,0,1,.2.134.115.115,0,0,1,.062.055c.028.04.01.084-.05.136l.006-.015a.489.489,0,0,0-.086.2.362.362,0,0,1-.155.25.4.4,0,0,1-.113.174.993.993,0,0,0-.072.086v.009a.348.348,0,0,0-.123.2.332.332,0,0,1-.139.217,2.885,2.885,0,0,1-.444.685l.007-.012a.453.453,0,0,0-.084.182c-.029.1-.058.2-.178.243a.339.339,0,0,1-.154.242l-.031.027v-.006a.417.417,0,0,0-.1.193.316.316,0,0,1-.162.232.421.421,0,0,1-.139.216l-.046.048a.391.391,0,0,0-.111.2.325.325,0,0,1-.147.223.419.419,0,0,1-.111.173.748.748,0,0,0-.071.087l-.005.008a.353.353,0,0,0-.123.206.327.327,0,0,1-.139.215,2.828,2.828,0,0,1-.445.685l.009-.012a.449.449,0,0,0-.085.184c-.028.1-.058.2-.178.241a.34.34,0,0,1-.156.244l-.03.026.005-.006a.417.417,0,0,0-.1.193.313.313,0,0,1-.163.232.413.413,0,0,1-.138.216l-.046.048a.381.381,0,0,0-.112.2.327.327,0,0,1-.146.223.409.409,0,0,1-.111.172.873.873,0,0,0-.073.088v.008a.355.355,0,0,0-.122.2.336.336,0,0,1-.139.216,2.84,2.84,0,0,1-.444.686L31,91.1a.444.444,0,0,0-.084.183c-.029.1-.059.2-.179.243a.335.335,0,0,1-.153.242l-.012.011-.019.017v-.006a.41.41,0,0,0-.1.191.316.316,0,0,1-.163.235.415.415,0,0,1-.136.212l-.048.05a.384.384,0,0,0-.111.2.333.333,0,0,1-.148.223.417.417,0,0,1-.11.172.657.657,0,0,0-.071.087v.008a.344.344,0,0,0-.124.206.333.333,0,0,1-.138.215,2.979,2.979,0,0,1-.445.686v-.008a.441.441,0,0,0-.081.179c-.029.1-.059.2-.178.241a.339.339,0,0,1-.154.243l-.012.01-.019.016v-.006a.418.418,0,0,0-.1.193.317.317,0,0,1-.163.233.414.414,0,0,1-.135.212l-.049.052a.376.376,0,0,0-.111.2.334.334,0,0,1-.148.224.412.412,0,0,1-.111.171.767.767,0,0,0-.072.088l-.005.009a.352.352,0,0,0-.122.2.329.329,0,0,1-.138.215,3,3,0,0,1-.443.688l.007-.012a.422.422,0,0,0-.086.184c-.029.1-.058.2-.177.241a.339.339,0,0,1-.153.24l-.032.029v0a.408.408,0,0,0-.1.193.316.316,0,0,1-.16.232.414.414,0,0,1-.135.212l-.006.006a.619.619,0,0,0-.043.046.381.381,0,0,0-.114.2.327.327,0,0,1-.145.221.433.433,0,0,1-.109.167.717.717,0,0,0-.074.091v.009a.349.349,0,0,0-.124.207.334.334,0,0,1-.137.215,3.076,3.076,0,0,1-.435.675.4.4,0,0,0-.087.182c-.029.1-.058.2-.177.241a.344.344,0,0,1-.153.241l-.031.028v-.006a.413.413,0,0,0-.1.192.321.321,0,0,1-.161.234.424.424,0,0,1-.134.21l-.049.053c-.034.034-.066.073-.1.11C23.8,102.172,23.716,102.281,23.606,102.281Zm6.01-20.1a9.745,9.745,0,0,0-9.573,7.756,9.419,9.419,0,0,0,.181,4.467,15.084,15.084,0,0,0,3.288,5.918Q26.9,95.047,30.24,89.85L34.4,83.374a10.272,10.272,0,0,0-4.785-1.193Z" transform="translate(82.412 104.981)" fill="#f29441"/><path d="M65.952,139l-.079.012-.05-.062c-.122-.107-.317-.06-.425-.2h0c-.126-.117-.321-.087-.446-.2h.008c-.121-.136-.318-.109-.456-.209l.017.008c-.115-.157-.313-.132-.463-.212l.021.012c-.105-.181-.306-.154-.467-.215l.023.015c-.083-.2-.3-.163-.449-.243l.01.01a.3.3,0,0,1,.011-.293l-.011.018c.169-.11.142-.31.215-.465L63.4,137c.2-.119.175-.339.236-.519l-.014-.072.06-.04c.114-.122.069-.319.2-.432h0c.123-.125.1-.319.206-.45l0,.011c.144-.118.117-.315.212-.457l-.01.018c.164-.112.139-.312.213-.465l-.014.023c.2-.117.169-.337.234-.513l-.014-.075.062-.044c.111-.123.066-.319.2-.43h0c.125-.132.1-.33.2-.47l0-.373a.907.907,0,0,0-.451-.448l-.361.008a.648.648,0,0,0-.448.459l.014-.024c-.191.116-.162.333-.233.505l.013.079-.063.05c-.107.122-.06.317-.2.424h0c-.117.127-.085.321-.206.445V134.2c-.134.122-.106.318-.209.454l.008-.015c-.154.116-.129.314-.212.462l.012-.02c-.178.107-.153.307-.212.468l.016-.024c-.293.112-.056.469-.283.611v.008c-.113.128-.082.321-.2.444v-.005c-.132.114-.09.318-.224.43h0a.191.191,0,0,1-.246.024l.017.012c-.111-.171-.309-.148-.469-.209l.023.016c-.114-.29-.469-.054-.612-.281h-.008c-.127-.113-.321-.081-.443-.2h.005c-.122-.132-.318-.1-.451-.21l.013.006c-.117-.148-.315-.123-.46-.211l.02.011c-.11-.172-.309-.148-.468-.212l.025.016c-.116-.208-.339-.182-.523-.242l-.067.016-.037-.059c-.121-.118-.319-.074-.434-.2h0c-.126-.125-.319-.1-.456-.2l.015.007c-.215-.163-.424-.222-.613.039l.029-.024a.3.3,0,0,0-.248.227l.022-.026c-.24.193-.174.409-.048.63h0a.893.893,0,0,0,.47.407l-.02-.012c.108.174.308.148.467.213l-.025-.015c.115.208.339.181.523.242l.068-.016.037.058c.121.118.319.074.434.2h0c.124.126.319.1.451.207l-.011-.006c.118.147.315.12.458.211l-.019-.011c.111.169.31.144.467.212l-.025-.015c.117.2.34.178.522.239l.069-.014.038.059c.122.115.318.07.431.2h0c.1.123.308.066.4.217a.728.728,0,0,1,.069.14c.006.021-.029.052-.045.078-.116.123-.073.319-.2.437h0c-.128.124-.1.318-.207.453l.006-.013c-.148.116-.121.315-.212.458l.011-.019c-.169.111-.144.31-.212.467l.015-.024c-.2.117-.178.339-.239.521l.016.069-.06.039c-.117.122-.072.318-.2.434h0c-.126.124-.1.319-.208.45l0-.011c-.145.119-.118.316-.21.458l.01-.018c-.166.111-.141.31-.213.465l.015-.025a.624.624,0,0,0-.023.838l-.015-.02a.45.45,0,0,0,.245.223l-.025-.018a.391.391,0,0,0,.547.079.379.379,0,0,0,.073-.071l-.022.015a.586.586,0,0,0,.243-.217l-.008.011c.145-.109.1-.315.229-.434v0c.132-.123.1-.318.209-.453l-.007.014c.151-.117.125-.315.212-.461l-.012.02c.175-.109.15-.309.212-.468l-.016.025c.212-.113.184-.338.244-.522l-.016-.067.059-.038c.118-.122.075-.319.2-.437h0c.128-.123.1-.318.207-.452l-.006.013c.149-.117.123-.315.211-.461l-.011.02c.172-.11.148-.309.212-.468l-.013.021c.268-.252.545-.456.919-.188h0c.125.122.32.093.449.206h-.01c.12.141.316.115.458.209l-.018-.009c.111.163.312.136.462.215l-.023-.014c.117.191.334.164.508.233l.078-.014.048.063c.123.109.318.063.428.2h0c.126.12.32.09.447.206h-.008c.12.139.317.111.455.211l-.016-.009c.114.158.312.133.463.212l-.023-.014a.549.549,0,0,0,.776.02.417.417,0,0,0,.041-.043l-.034.031c.216-.062.154-.3.272-.428l-.019-.3a.37.37,0,0,0-.22-.3l.02.02c-.1-.166-.311-.122-.433-.242h.008c-.12-.138-.317-.111-.456-.208l.017.009c-.114-.16-.312-.135-.463-.213l.023.014C66.341,139.042,66.123,139.067,65.952,139Z" transform="translate(30.412 114.68)" fill="#1c1d29"/><g clip-path="url(#a)"><g transform="translate(-3.933 10.301)"><g transform="translate(112.206 150.368)"><g transform="translate(0 5.934)"><path d="M684.6,435.5S676.4,451.9,668.079,463.212c-3.312,4.5-6.644,8.2-9.489,9.745a22.676,22.676,0,0,0-7.091,6.454,51.784,51.784,0,0,0-7.382,15.154l-21.284-32.2s.726-31.476,3.282-36.741c3.725-7.673,5.524-23.175,6.955-26.262,1.062-2.29,4.093-14.116,4.384-14.985a2.889,2.889,0,0,1,2.445-.948,3.811,3.811,0,0,1,3.286,3.1,35.372,35.372,0,0,1-.432,17.823c.8,8.11-1.611,14.131.082,15.725.063.059.18.031.346-.074,2.934-1.884,21.146-28.434,23.389-29.008C668.937,390.4,684.6,435.5,684.6,435.5Z" transform="translate(-595.713 -372.282)" fill="#ffdec8"/><path d="M359.288,1326.52s-9.089,19.379-9.919,38.651H305.951c12.272-26.17,27.12-59.409,27.12-59.409S357.991,1312.84,359.288,1326.52Z" transform="translate(-305.951 -1215.679)" fill="#ffdec8"/><path d="M1335.357,260.929l-6.591,9.663-6.468,9.482a1.48,1.48,0,0,1-1.345.594c-1.552-.147-3.472-2.386-4.969-3.625l-.152-.125a4.669,4.669,0,0,1-.62-6.555l9.886-11.95h0l2.932-3.544a4.668,4.668,0,0,1,6.555-.62l.152.125A4.67,4.67,0,0,1,1335.357,260.929Z" transform="translate(-1227.865 -253.185)" fill="#ffdec8"/><path d="M1401.46,326.45l-6.468,9.482a1.481,1.481,0,0,1-1.345.594l4.145-22.255C1397.8,314.4,1398.507,324.381,1401.46,326.45Z" transform="translate(-1300.559 -309.043)" fill="#efa26f"/><path d="M871.258,1294.5c-3.312,4.5-6.644,8.2-9.488,9.745a22.674,22.674,0,0,0-7.091,6.454c-2.243-1.046-4.8-2.273-7.3-3.487a4.163,4.163,0,0,1-.179-7.4l.086-.047c2.793-1.6,5.656-7.242,5.656-7.242Z" transform="translate(-798.892 -1203.571)" fill="#f1ceb7"/><path d="M773.5,400.224l-1.725,6.962a3.658,3.658,0,0,0,2.476.138C775.224,406.845,776.014,400.6,773.5,400.224Z" transform="translate(-731.913 -387.64)" fill="#f8d5be"/><g transform="translate(90.423 35.271)"><path d="M1376.294,674.27l-.983.373-6.61,2.512a4.225,4.225,0,0,1-.468.149,4.515,4.515,0,0,1-5.338-2.758l-.1-.254a4.515,4.515,0,0,1,2.609-5.807l6.162-2.341.448-.17.983-.373a4.514,4.514,0,0,1,5.806,2.609l.1.254A4.515,4.515,0,0,1,1376.294,674.27Z" transform="translate(-1362.506 -665.307)" fill="#ffdec8"/><path d="M1390.079,713.753a26.37,26.37,0,0,1-4.168,1.313,1.76,1.76,0,0,1-1.378-.69,4.074,4.074,0,0,1-.831-1.5,4.766,4.766,0,0,1-.226-.957,4.045,4.045,0,0,1,.036-1.138,1.136,1.136,0,0,1,.631-.812l0,0a26.066,26.066,0,0,1,4.009-1.572,1.741,1.741,0,0,1,2.16.965l.139.379.709,1.943A1.664,1.664,0,0,1,1390.079,713.753Z" transform="translate(-1381.658 -704.639)" fill="#ffdec8"/><path d="M1397.307,725.369a26.361,26.361,0,0,1-4.168,1.313,1.76,1.76,0,0,1-1.378-.69c-.056-.129-.106-.266-.155-.412a4.774,4.774,0,0,1-.226-.957,4.036,4.036,0,0,1,.036-1.138,1.135,1.135,0,0,1,.63-.812l0,0a26.076,26.076,0,0,1,4.009-1.572,1.9,1.9,0,0,1,1.623.257l.709,1.943A1.664,1.664,0,0,1,1397.307,725.369Z" transform="translate(-1388.887 -716.255)" fill="#ffdec8"/></g><g transform="translate(92.273 47.215)"><path d="M1393.059,811.177l-5.1,1.388a2.927,2.927,0,0,1-3.583-2.049l-.157-.577a2.927,2.927,0,0,1,2.049-3.583l5.1-1.388a2.927,2.927,0,0,1,3.583,2.049l.157.577A2.927,2.927,0,0,1,1393.059,811.177Z" transform="translate(-1384.12 -804.866)" fill="#ffb27d"/><path d="M1399.933,830.1a22.994,22.994,0,0,1-3.516.74,1.718,1.718,0,0,1-1.391-1.1,3.853,3.853,0,0,1-.375-1.468,2.921,2.921,0,0,1,.114-.872.9.9,0,0,1,.576-.582l0,0a22.765,22.765,0,0,1,3.4-.95,1.442,1.442,0,0,1,1.7.881l.132.459.393,1.378A1.292,1.292,0,0,1,1399.933,830.1Z" transform="translate(-1393.75 -824.043)" fill="#ffd3b6"/><path d="M1402.837,838.286a22.984,22.984,0,0,1-3.516.739,1.717,1.717,0,0,1-1.391-1.1,3.247,3.247,0,0,1-.1-.7,2.923,2.923,0,0,1,.114-.872.906.906,0,0,1,.576-.582l0,0a22.627,22.627,0,0,1,3.4-.948,1.539,1.539,0,0,1,1.561.574l.392,1.378A1.293,1.293,0,0,1,1402.837,838.286Z" transform="translate(-1396.654 -832.225)" fill="#ffc197"/></g><g transform="translate(89.926 23.222)"><path d="M1370.815,535.768l-.11.037-6.682,1.716a5.524,5.524,0,0,1-6.752-3.533l-.4-1.382a5.123,5.123,0,0,1,3.587-6.177l2.206-.567,4.476-1.149a5.524,5.524,0,0,1,6.752,3.533l.4,1.382A5.113,5.113,0,0,1,1370.815,535.768Z" transform="translate(-1356.69 -524.526)" fill="#ffdec8"/><path d="M1418.97,561.712l-3.246,1.463-.021,0a3.488,3.488,0,0,1-.393.081c-.054.008-.11.015-.164.021a.431.431,0,0,1-.069,0,.516.516,0,0,1-.448-.73,3.23,3.23,0,0,0,.184-2.2l-.077-.283a.022.022,0,0,0,0-.008l-.251-.922a3.457,3.457,0,0,0-1.177-1.794c-.066-.054-.135-.105-.205-.154a.933.933,0,0,1,.273-1.66l.021-.006,3.563-.539a1.7,1.7,0,0,1,1.969,1.319l.286,1.05.609,2.239C1420.06,560.476,1419.851,561.473,1418.97,561.712Z" transform="translate(-1407.908 -552.335)" fill="#ffdec8"/><path d="M1425.423,577.2l-3.246,1.463-.02,0c-.076.014-.314.054-.626.1a.516.516,0,0,1-.448-.73,3.23,3.23,0,0,0,.184-2.2l-.077-.283a.022.022,0,0,0,0-.008l-.251-.922a3.456,3.456,0,0,0-1.177-1.794.905.905,0,0,1,.511-.364l.021-.006,3.563-.539a1.62,1.62,0,0,1,1.812.919l.609,2.239C1426.513,575.966,1426.3,576.963,1425.423,577.2Z" transform="translate(-1414.36 -567.825)" fill="#ffdec8"/></g><path d="M814.121,665.1s-1.458-12.726-2.8-15.207-2.483-7.451-.414-11.144,2.784-10.8,2.784-10.8c.8,8.11-1.611,14.131.082,15.725.063.059.18.031.346-.074Z" transform="translate(-766.651 -595.88)" fill="#f1ceb7"/></g><g transform="translate(47.239 0)"><path d="M-8742.3,972.767l1.947,116.2,55.64,1.341-1.117-119.1Z" transform="translate(8742.297 -971.21)" fill="#f8f8f8" stroke="#1c1d29" stroke-width="1.5"/><path d="M708.4,775.642a2.372,2.372,0,0,1-.111.257c-.343.616-.7,1.226-1.034,1.845-.155.284-.368.419-.663.252s-.248-.421-.108-.672c.356-.639.717-1.276,1.071-1.917a.436.436,0,0,1,.543-.239C708.308,775.224,708.39,775.385,708.4,775.642Z" transform="translate(-678.95 -764.038)" fill="#1c1d29"/><path d="M1.76,0H49.105a1.76,1.76,0,0,1,1.76,1.76V101.2a1.76,1.76,0,0,1-1.76,1.76H3.079a1.76,1.76,0,0,1-1.76-1.76L0,1.76A1.76,1.76,0,0,1,1.76,0Z" transform="translate(3.001 5.518)" fill="#d4eef3"/><rect width="11.946" height="0.971" rx="0.486" transform="translate(22.46 3.283)" fill="#b8ced2"/><ellipse cx="3.022" cy="3.022" rx="3.022" ry="3.022" transform="translate(25.411 110.592)" fill="#b8ced2"/><rect width="36.726" height="10.732" rx="5.366" transform="translate(10.07 85.46)" fill="#b8ced2"/><rect width="29.208" height="2.596" rx="1.298" transform="translate(13.829 53.406)" fill="#b8ced2"/><rect width="29.208" height="2.596" rx="1.298" transform="translate(13.829 62.889)" fill="#fff"/><g transform="translate(24.304 75.185)"><rect width="0.777" height="6.415" rx="0.388" transform="matrix(0.775, 0.632, -0.632, 0.775, 7.656, 0)" fill="#fff"/><rect width="0.777" height="6.415" rx="0.388" transform="matrix(-0.775, 0.632, -0.632, -0.775, 4.654, 4.974)" fill="#fff"/></g><path d="M1.148,4.283a9.382,9.382,0,0,1,12.293-3.19c6.069,2.879,7.469,8.948,5.369,12.371s-6.847,4.2-10.659,4.357S1.225,14.242.6,12.531-.564,6.928,1.148,4.283Z" transform="translate(41.991 29.504) rotate(131)" fill="#fff"/><g transform="translate(24.924 25.255)"><path d="M855.389,806.479v4.993c0,.556,6.788.556,6.788,0v-4.993Zm3.737,2.651v1.415a.343.343,0,1,1-.687,0v-1.418a.835.835,0,1,1,.687,0Z" transform="translate(-855.389 -802.987)" fill="#b8ced2"/><path d="M868.583,765.014H867.9v-.336a2.112,2.112,0,1,0-4.225,0v.336h-.687v-.336a2.8,2.8,0,1,1,5.6,0Z" transform="translate(-862.389 -761.878)" fill="#b8ced2"/></g></g><g transform="translate(93.509 65.706)"><path d="M1373.159,1002.406h-39.373c-1.888-1.266-11.693-7.954-15.751-12.94-.859-1.057-4-10.163-6.421-17.557-1.509-4.618-2.734-8.57-2.942-9.477a11.791,11.791,0,0,1-.149-1.789v-.009c-.1-3.024.038-8.854.182-13.486v-.021l0-.061c.007-.2.013-.4.02-.6v-.007c0-.02,0-.04,0-.06.026-.8.052-1.563.076-2.253.061-1.724.112-3.02.134-3.528l.008-.236h0c.062-.035,1.956-1.046,4.488.778a6.586,6.586,0,0,1,1.691,2.894c.33.887.639,1.905.926,2.978,1.106,4.128,1.9,9.062,2.323,10.384.683,2.135,8.733,11.526,9.236,12.109l.024.029V954.724l-6.077-16.261-2.495-6.675-1.254-3.355a60.477,60.477,0,0,1-3.536-6.955,32.844,32.844,0,0,1-1.754-5.143c-.1-.4-.177-.8-.242-1.195v0a8.674,8.674,0,0,1,.076-3.846,2.784,2.784,0,0,1,2.931-2.252c.105,0,.207.013.305.024a2.07,2.07,0,0,1,.293.057,2.038,2.038,0,0,1,.506.211s0,0,0,0a2.051,2.051,0,0,1,.661.618s.859,1.122,2.012,2.63c.758.993,1.644,2.152,2.495,3.27,1.515,1.992,2.922,3.85,3.309,4.394,2.091,2.943,7.72,12.534,7.72,12.534l6.59.276a4.37,4.37,0,0,1,2.8,1.172c2.343,2.188,7.4,6.924,8.015,7.628,0,.231,3.926,2.119,6.959,3.8a41.542,41.542,0,0,1,6.29,4.165,7.266,7.266,0,0,1,1.834,2.222c1.413,3.075,5.245,29.819,7.078,43.04C1372.747,999.333,1373.129,1002.186,1373.159,1002.406Z" transform="translate(-1308.488 -908.992)" fill="#ffdec8"/><path d="M1590.113,1186.445s6.1,9.965,6.913,10.414,3.95,1.077,4.309,0S1590.113,1186.445,1590.113,1186.445Z" transform="translate(-1566.011 -1162.658)" fill="#f1ceb7"/><path d="M1807.59,1301.456l-.031-.027a41.539,41.539,0,0,0-6.29-4.165c-2.784-1.544-6.321-3.261-6.882-3.711.646.739,5.193,5.884,6.942,6.27C1802.866,1300.162,1806.355,1301.116,1807.59,1301.456Z" transform="translate(-1752.802 -1260.6)" fill="#f1ceb7"/><path d="M1532.249,1457.685v-14.83s3.523,5.893,3.792,9.125S1534.578,1460.443,1532.249,1457.685Z" transform="translate(-1513.099 -1397.124)" fill="#f1ceb7"/><path d="M1363.63,914.654a26.64,26.64,0,0,1-1.755-3.381,1.69,1.69,0,0,1,.233-1.3,2.935,2.935,0,0,1,.924-.959,3.068,3.068,0,0,1,.649-.35,2.519,2.519,0,0,1,.83-.153.881.881,0,0,1,.709.412l0,0a25.841,25.841,0,0,1,1.911,3.2,1.642,1.642,0,0,1-.281,2.019l-.248.181-1.269.926A1.205,1.205,0,0,1,1363.63,914.654Z" transform="translate(-1357.262 -908.51)" fill="#ffd3b6"/><path d="M1363.63,922.768a26.635,26.635,0,0,1-1.755-3.381,1.69,1.69,0,0,1,.233-1.3c.083-.069.172-.135.268-.2a3.071,3.071,0,0,1,.649-.35,2.516,2.516,0,0,1,.83-.153.881.881,0,0,1,.709.412l0,0a25.839,25.839,0,0,1,1.911,3.2,1.95,1.95,0,0,1,.127,1.44l-1.269.926A1.205,1.205,0,0,1,1363.63,922.768Z" transform="translate(-1357.262 -916.625)" fill="#f8d5be"/><path d="M1386.773,1668.031l-11.761,6.089h-7.83c-1.888-1.266-11.693-7.954-15.751-12.94-.859-1.057-4-10.163-6.421-17.557v0c.321.982,7.066,15.347,8.986,16.98s12,11.14,14.789,11.043c2.7-.092,17.058-3.4,17.949-3.6Z" transform="translate(-1341.884 -1580.707)" fill="#f1ceb7"/><path d="M1309.108,1343.23h0c.715-.262,1.718-.435,2.206.38.76,1.268-2.062,12.459-2.415,13.867Z" transform="translate(-1308.866 -1305.825)" fill="#f1ceb7"/><path d="M1311.28,1275.253l-.243,6.769a3.468,3.468,0,0,0,2.233-.372C1314.079,1281.046,1313.651,1275.174,1311.28,1275.253Z" transform="translate(-1310.819 -1243.866)" fill="#eecbb4"/></g></g></g></g></g></svg>