<svg xmlns="http://www.w3.org/2000/svg" width="18" height="17.974" viewBox="0 0 18 17.974">
  <g id="logout" transform="translate(-5.001 -10.704)">
    <g id="Group_253" data-name="Group 253" transform="translate(5.001 10.704)">
      <path id="Path_262" data-name="Path 262" d="M11.891-501.275a2.275,2.275,0,0,0-1.779,1.519l-.095.257-.01,7.075c-.011,7.9-.025,7.339.239,7.881a2.277,2.277,0,0,0,1.266,1.118l.264.1H26.228l.264-.1a2.307,2.307,0,0,0,1.27-1.125c.25-.51.243-.376.239-4.223a26.912,26.912,0,0,0-.046-3.253,1.143,1.143,0,0,1-.116.316c-.042.067-.9.939-1.9,1.938-1.734,1.727-1.832,1.822-2.033,1.9a1.217,1.217,0,0,1-.918-.046,1.23,1.23,0,0,1-.521-.549c-.07-.155-.074-.221-.084-1.435l-.011-1.277-3.524-.007c-3.517-.01-3.524-.01-3.685-.084a1.173,1.173,0,0,1-.549-.534,1.177,1.177,0,0,1-.007-.957,1.168,1.168,0,0,1,.559-.559l.193-.091,3.506-.01,3.506-.007.011-1.277c.01-1.22.014-1.28.088-1.438a1.323,1.323,0,0,1,.556-.556.893.893,0,0,1,.457-.084c.517-.007.454-.053,2.486,1.973,1.779,1.776,1.927,1.941,2,2.24.014.06.025-1.473.021-3.407l-.007-3.517-.095-.257a2.3,2.3,0,0,0-1.445-1.438l-.288-.1-7.051,0C15.228-501.3,11.982-501.288,11.891-501.275Z" transform="translate(-10.001 501.296)" fill="#fff"/>
    </g>
  </g>
</svg>
