<svg xmlns="http://www.w3.org/2000/svg" xmlns:xlink="http://www.w3.org/1999/xlink" width="178.748" height="137.164" viewBox="0 0 178.748 137.164">
  <defs>
    <linearGradient id="linear-gradient" x1="0.5" x2="0.5" y2="1" gradientUnits="objectBoundingBox">
      <stop offset="0" stop-color="#ffc134"/>
      <stop offset="1" stop-color="#f85a59"/>
    </linearGradient>
  </defs>
  <g id="Group_351" data-name="Group 351" transform="translate(-92.3 -250.601)">
    <g id="Group_349" data-name="Group 349" transform="translate(-9 -23.665)">
      <path id="Path_6586" data-name="Path 6586" d="M5756.794,966.346q0,4.6-5.016,4.594a5.22,5.22,0,0,1-2.81-.621,9.088,9.088,0,0,1-2.206-2.324l-23-36.746V967.19a3.705,3.705,0,0,1-.979,2.846,4.637,4.637,0,0,1-3.227.9,5.2,5.2,0,0,1-3.4-.869,3.654,3.654,0,0,1-.994-2.884V922.061a6.029,6.029,0,0,1,1.3-4.23,5.8,5.8,0,0,1,9.274,1.585l22.463,36.325V920.256a3.937,3.937,0,0,1,.947-2.91,4.665,4.665,0,0,1,3.261-.915,5.059,5.059,0,0,1,3.427.9,3.861,3.861,0,0,1,.968,2.924v46.073Zm21.955.778a3.679,3.679,0,0,1-1.06,2.91,5.351,5.351,0,0,1-3.452.913,5.05,5.05,0,0,1-3.4-.9,3.773,3.773,0,0,1-.99-2.924V920.115a3.6,3.6,0,0,1,.946-2.806,5.339,5.339,0,0,1,3.516-.869,5.265,5.265,0,0,1,3.478.87,3.637,3.637,0,0,1,.944,2.8Zm21.956-6.2c0,.849.37,1.266,1.129,1.266h16.4a6.394,6.394,0,0,1,3.74.835,3.725,3.725,0,0,1,1.13,3.145,4.089,4.089,0,0,1-1.087,3.289,6.159,6.159,0,0,1-3.783.87h-19.275a7.448,7.448,0,0,1-5.241-1.74,6.23,6.23,0,0,1-1.914-4.842V920.506a4.033,4.033,0,0,1,1.043-3.108,5,5,0,0,1,3.421-.952,5.08,5.08,0,0,1,3.436.913,4.124,4.124,0,0,1,1,3.145Zm38.755-9.79V967.2a3.587,3.587,0,0,1-1.021,2.859,6.988,6.988,0,0,1-6.816,0,3.517,3.517,0,0,1-1.063-2.86V924.436a7.337,7.337,0,0,1,1.95-5.469,7.69,7.69,0,0,1,5.6-1.9h9.566c5.566,0,9.915,1.513,13.014,4.523a16.9,16.9,0,0,1,4.672,12.712,15.853,15.853,0,0,1-5.016,12.139,18.539,18.539,0,0,1-13.22,4.688Zm0-8.144h7.974a8.861,8.861,0,0,0,6.524-2.435,8.438,8.438,0,0,0,2.458-6.251,9.375,9.375,0,0,0-2.243-6.826,8.94,8.94,0,0,0-6.662-2.272h-6.684a1.2,1.2,0,0,0-1.01.458,1.637,1.637,0,0,0-.36,1.029v16.288Z" transform="translate(-5593.148 -641.902)" fill="url(#linear-gradient)"/>
    </g>
    <path id="Path_290" data-name="Path 290" d="M-30.448-17.719h-2.769V0h-2.175V-10.165h-6.17q0,.87-.02,1.49a5.47,5.47,0,0,1-.112,1.022,1.2,1.2,0,0,1-.277.587.7.7,0,0,1-.514.185,2.164,2.164,0,0,1-1.3-.448,5.043,5.043,0,0,1-1.081-1.081,5.982,5.982,0,0,1-.745-1.318,3.215,3.215,0,0,1-.277-1.16,1.05,1.05,0,0,1,.185-.659,1.12,1.12,0,0,1,.488-.356,2.326,2.326,0,0,1,.692-.145q.389-.026.784-.026h8.345v-5.643H-47.771v-1.938h17.323Zm15.873,0h-2.769V0h-2.162V-4.707l-.053-.013a7.391,7.391,0,0,1-.62.521,4.568,4.568,0,0,1-.817.488,5.705,5.705,0,0,1-1.035.363,5.25,5.25,0,0,1-1.285.145,5.562,5.562,0,0,1-2.38-.5,5.906,5.906,0,0,1-1.852-1.338,6.067,6.067,0,0,1-1.206-1.925,6.149,6.149,0,0,1-.428-2.274,5.652,5.652,0,0,1,.428-2.208,5.47,5.47,0,0,1,1.18-1.773A5.527,5.527,0,0,1-25.82-14.4a5.407,5.407,0,0,1,2.149-.428,7.574,7.574,0,0,1,.8.053,5.023,5.023,0,0,1,1.035.237,6.037,6.037,0,0,1,1.147.534,4.933,4.933,0,0,1,1.134.943l.053-.013v-4.641H-31.37v-1.938h16.8Zm-4.878,7.106a7.634,7.634,0,0,0-1.806-1.615,4.075,4.075,0,0,0-2.215-.613,3.423,3.423,0,0,0-1.655.369,3.509,3.509,0,0,0-1.114.929,3.672,3.672,0,0,0-.633,1.246,4.752,4.752,0,0,0-.2,1.318,4.269,4.269,0,0,0,.224,1.358,3.721,3.721,0,0,0,.666,1.206,3.43,3.43,0,0,0,1.1.87,3.352,3.352,0,0,0,1.542.336,3.892,3.892,0,0,0,1.661-.349,4.474,4.474,0,0,0,1.292-.89,3.974,3.974,0,0,0,.837-1.213,3.224,3.224,0,0,0,.3-1.305Zm30.494-7.106H8.273V0H6.111V-7.4H-.811v1.885a2.907,2.907,0,0,1-.033.422,1.313,1.313,0,0,1-.132.415.925.925,0,0,1-.264.316.667.667,0,0,1-.415.125,1.773,1.773,0,0,1-.719-.191,5.022,5.022,0,0,1-.857-.514,8.258,8.258,0,0,1-.87-.738,7.324,7.324,0,0,1-.765-.864,5.167,5.167,0,0,1-.547-.9,1.966,1.966,0,0,1-.211-.831.881.881,0,0,1,.4-.8,1.923,1.923,0,0,1,1.042-.25h1.279v-7.238a1.506,1.506,0,0,0-.33-1.048,1.075,1.075,0,0,0-.831-.363A1.212,1.212,0,0,0-5-17.561a1.479,1.479,0,0,0-.376,1.042,1.959,1.959,0,0,0,.026.29,1.4,1.4,0,0,0,.132.389,2.813,2.813,0,0,0,.316.488,4.051,4.051,0,0,0,.567.573L-5.5-13.342a3.96,3.96,0,0,1-.989-.732,3.435,3.435,0,0,1-.593-.824,3.25,3.25,0,0,1-.29-.824,3.876,3.876,0,0,1-.079-.745,3.7,3.7,0,0,1,.218-1.246,3.367,3.367,0,0,1,.653-1.107,3.25,3.25,0,0,1,1.088-.8,3.58,3.58,0,0,1,1.523-.3,3.464,3.464,0,0,1,1.358.25,2.65,2.65,0,0,1,1,.719,3.132,3.132,0,0,1,.606,1.121,4.862,4.862,0,0,1,.2,1.457v7.053H6.111V-19.657h4.931Zm7.014,0H15.286V0H13.124V-17.719H10.118v-1.938h7.937Zm13.2,0h-4.97a13.442,13.442,0,0,1,1.088,2.366,7.466,7.466,0,0,1,.415,2.446,5.733,5.733,0,0,1-.283,1.8,4.84,4.84,0,0,1-.831,1.542,4.3,4.3,0,0,1-1.358,1.107,4.416,4.416,0,0,1-1.865.481l-.026.066a27.2,27.2,0,0,0,2.663,3.487A24.737,24.737,0,0,0,29.5-1.305L28.088.316a21.845,21.845,0,0,1-2.129-1.8q-1.009-.969-1.905-2t-1.668-2.1q-.771-1.061-1.411-2.07t-1.14-1.938q-.5-.929-.857-1.694l1.806-.976a5.4,5.4,0,0,0,1.074,1.615,1.929,1.929,0,0,0,1.391.587,1.828,1.828,0,0,0,1.015-.29,2.582,2.582,0,0,0,.751-.745,3.593,3.593,0,0,0,.461-1,3.856,3.856,0,0,0,.158-1.074,4.762,4.762,0,0,0-.158-1.219,8.067,8.067,0,0,0-.409-1.173,11.474,11.474,0,0,0-.56-1.114q-.31-.541-.6-1.042H17.132v-1.938h14.12Zm16.519,0H45V0H42.853V-11.575H38.569a10.317,10.317,0,0,0-1.6.112,2.98,2.98,0,0,0-1.213.448,2.169,2.169,0,0,0-.771.936,3.875,3.875,0,0,0-.27,1.575,6.385,6.385,0,0,0,.415,2.333A8.655,8.655,0,0,0,36.2-4.212a12.159,12.159,0,0,0,1.43,1.641q.784.751,1.51,1.384L37.817.316Q37.7.25,37.257-.073a11.112,11.112,0,0,1-1.028-.877,14.844,14.844,0,0,1-1.239-1.345,11.508,11.508,0,0,1-1.2-1.786,11.373,11.373,0,0,1-.91-2.2,8.892,8.892,0,0,1-.363-2.584,5.774,5.774,0,0,1,.389-2.274,3.465,3.465,0,0,1,1.1-1.437,4.29,4.29,0,0,1,1.727-.745A11.181,11.181,0,0,1,38-13.526h4.852v-4.192H30.329v-1.938H47.771ZM-68.805,15.343v1.938h-2.769V35h-2.188V26.141H-81.4a3.6,3.6,0,0,1-1.674.554l-.026.066a29.782,29.782,0,0,0,2.808,3.731,23.858,23.858,0,0,0,3.48,3.2l-1.411,1.622a22.412,22.412,0,0,1-2.129-1.793q-1.009-.962-1.9-2t-1.668-2.1q-.778-1.061-1.424-2.09t-1.16-1.984q-.514-.956-.9-1.773l1.806-.976a7.268,7.268,0,0,0,.494.969,3.022,3.022,0,0,0,.494.62,1.551,1.551,0,0,0,.527.33,1.751,1.751,0,0,0,.593.1,1.45,1.45,0,0,0,1.338-.712,3.6,3.6,0,0,0,.428-1.872,6.94,6.94,0,0,0-.132-1.351,10.474,10.474,0,0,0-.336-1.279q-.2-.613-.442-1.154t-.448-.976h-6.1V15.343Zm-4.957,1.938h-7.027a14.47,14.47,0,0,1,.87,2.413,9.526,9.526,0,0,1,.316,2.413,6.853,6.853,0,0,1-.086,1.088,4.443,4.443,0,0,1-.283,1.009l.026.026h6.183Zm11.971,0H-64.56V35h-2.162V17.281h-3.006V15.343h7.937Zm14.436-1.938h4.931v1.938h-2.769V35h-2.162V23.543a12.767,12.767,0,0,1-2.485.751,12.35,12.35,0,0,1-2.221.211,9.945,9.945,0,0,1-2.01-.185,8.616,8.616,0,0,1-1.681-.527,13.129,13.129,0,0,0-1.1.831,6.157,6.157,0,0,0-.949,1,4.9,4.9,0,0,0-.672,1.219,4.18,4.18,0,0,0-.257,1.5,5.222,5.222,0,0,0,.125,1.068,2.984,2.984,0,0,0,.508,1.127,2.954,2.954,0,0,0,1.1.9,4.251,4.251,0,0,0,1.905.363,6.639,6.639,0,0,0,.837-.053,3.026,3.026,0,0,0,.719-.171,4.878,4.878,0,0,1-.079-.508,5.234,5.234,0,0,1-.026-.534,5.206,5.206,0,0,1,.138-1.187,3.622,3.622,0,0,1,.422-1.061,2.375,2.375,0,0,1,.719-.758,1.787,1.787,0,0,1,1.015-.29,1.665,1.665,0,0,1,.778.171,1.657,1.657,0,0,1,.554.461,2.006,2.006,0,0,1,.336.679,2.962,2.962,0,0,1,.112.824,3.3,3.3,0,0,1-.132.936,4.049,4.049,0,0,1-.349.837,4.622,4.622,0,0,1-.5.725,5.662,5.662,0,0,1-.6.613,7.951,7.951,0,0,0,.527,1.009,6.8,6.8,0,0,0,.573.791,6.971,6.971,0,0,0,.606.633q.31.283.613.534l-1.622,1.7a9.245,9.245,0,0,1-1.035-1.127,11.01,11.01,0,0,1-.719-1.048q-.29-.488-.475-.883t-.3-.633a3.779,3.779,0,0,1-.982.257,7.8,7.8,0,0,1-1.022.073,6.513,6.513,0,0,1-2.366-.415,5.327,5.327,0,0,1-1.839-1.167,5.224,5.224,0,0,1-1.187-1.8,6.106,6.106,0,0,1-.422-2.3,5.728,5.728,0,0,1,.3-1.918,5.477,5.477,0,0,1,.784-1.483,6.452,6.452,0,0,1,1.1-1.14q.613-.494,1.233-.9l.013-.053A4.936,4.936,0,0,1-58.8,20.9,4.391,4.391,0,0,1-59.234,19a4.005,4.005,0,0,1,.31-1.6,3.8,3.8,0,0,1,.837-1.233,3.8,3.8,0,0,1,1.213-.8,3.691,3.691,0,0,1,1.424-.283,3.794,3.794,0,0,1,1.4.264,3.729,3.729,0,0,1,1.2.758,3.661,3.661,0,0,1,.844,1.213,3.967,3.967,0,0,1,.316,1.615,3.835,3.835,0,0,1-.145,1.094,3.6,3.6,0,0,1-.4.9,3.908,3.908,0,0,1-.626.758,8.089,8.089,0,0,1-.8.666l.013.053a6.5,6.5,0,0,0,.778.112q.4.033.765.033a9.713,9.713,0,0,0,2.281-.29,9.184,9.184,0,0,0,2.479-1.042Zm-6.434,3.573a2.119,2.119,0,0,0-.125-.745,1.693,1.693,0,0,0-.356-.58,1.615,1.615,0,0,0-.534-.376,1.635,1.635,0,0,0-.659-.132,1.954,1.954,0,0,0-.554.086,1.505,1.505,0,0,0-.547.3,1.625,1.625,0,0,0-.422.58,2.219,2.219,0,0,0-.165.916,2.571,2.571,0,0,0,.389,1.43,3.419,3.419,0,0,0,1.18,1.061q.369-.25.7-.514a3.538,3.538,0,0,0,.573-.573,2.589,2.589,0,0,0,.382-.666A2.166,2.166,0,0,0-53.789,18.916Zm24.561-1.635H-34.2a13.442,13.442,0,0,1,1.088,2.366,7.466,7.466,0,0,1,.415,2.446,5.733,5.733,0,0,1-.283,1.8,4.84,4.84,0,0,1-.831,1.542,4.3,4.3,0,0,1-1.358,1.107,4.416,4.416,0,0,1-1.865.481l-.026.066A27.2,27.2,0,0,0-34.4,30.577a24.737,24.737,0,0,0,3.415,3.118l-1.411,1.622a21.845,21.845,0,0,1-2.129-1.8q-1.009-.969-1.905-2t-1.668-2.1q-.771-1.061-1.411-2.07t-1.14-1.938q-.5-.929-.857-1.694l1.806-.976a5.4,5.4,0,0,0,1.074,1.615,1.929,1.929,0,0,0,1.391.587,1.828,1.828,0,0,0,1.015-.29,2.582,2.582,0,0,0,.751-.745,3.593,3.593,0,0,0,.461-1,3.856,3.856,0,0,0,.158-1.074A4.762,4.762,0,0,0-35,20.61a8.067,8.067,0,0,0-.409-1.173,11.474,11.474,0,0,0-.56-1.114q-.31-.541-.6-1.042h-6.776V15.343h14.12Zm16.519,0h-2.769V35h-2.149V23.425h-4.285a10.317,10.317,0,0,0-1.6.112,2.98,2.98,0,0,0-1.213.448,2.169,2.169,0,0,0-.771.936,3.875,3.875,0,0,0-.27,1.575,6.385,6.385,0,0,0,.415,2.333,8.655,8.655,0,0,0,1.061,1.958,12.159,12.159,0,0,0,1.43,1.641q.784.751,1.51,1.384l-1.318,1.5q-.119-.066-.56-.389a11.112,11.112,0,0,1-1.028-.877,14.844,14.844,0,0,1-1.239-1.345,11.508,11.508,0,0,1-1.2-1.786,11.373,11.373,0,0,1-.91-2.2,8.892,8.892,0,0,1-.363-2.584,5.774,5.774,0,0,1,.389-2.274,3.465,3.465,0,0,1,1.1-1.437,4.29,4.29,0,0,1,1.727-.745,11.181,11.181,0,0,1,2.268-.211h4.852V17.281H-30.151V15.343h17.442Zm7.014,0H-8.464V35h-2.162V17.281h-3.006V15.343H-5.7Zm29.571,0H12.735v5.194l.066.026a5.167,5.167,0,0,1,1.674-1.483,4.434,4.434,0,0,1,2.2-.56,4.016,4.016,0,0,1,1.76.389,4.337,4.337,0,0,1,1.4,1.068,5.015,5.015,0,0,1,.929,1.6,6.1,6.1,0,0,1-.086,4.225A7.67,7.67,0,0,1,19.6,29.595a8.572,8.572,0,0,1-1.49,1.47,13.34,13.34,0,0,1-1.635,1.088l-1.173-2.03q.264-.145.646-.382t.8-.554a8.11,8.11,0,0,0,.817-.719,6.053,6.053,0,0,0,.725-.877,4.523,4.523,0,0,0,.521-1.028,3.462,3.462,0,0,0,.2-1.173,3.281,3.281,0,0,0-.178-1.081,2.856,2.856,0,0,0-.494-.9,2.361,2.361,0,0,0-.758-.606,2.11,2.11,0,0,0-.969-.224,2.726,2.726,0,0,0-1.332.356,5.105,5.105,0,0,0-1.173.89,6.015,6.015,0,0,0-.89,1.14,3.964,3.964,0,0,0-.481,1.121V35H10.573V29.951l-.053-.026q-.2.171-.5.415a4.48,4.48,0,0,1-.732.468,5.156,5.156,0,0,1-.989.382,4.633,4.633,0,0,1-1.259.158A5.1,5.1,0,0,1,4.9,30.9,5.314,5.314,0,0,1,3.2,29.68,5.664,5.664,0,0,1,2.07,27.868a6.044,6.044,0,0,1-.409-2.228,5.715,5.715,0,0,1,.376-2.1,5.067,5.067,0,0,1,1.028-1.655,4.7,4.7,0,0,1,1.529-1.081,4.612,4.612,0,0,1,1.892-.389,4.734,4.734,0,0,1,1.325.178,6.432,6.432,0,0,1,2.03.989q.4.3.679.534l.053-.013V17.281H-.356V15.343H23.875ZM6.8,22.476a2.744,2.744,0,0,0-1.325.31,3.062,3.062,0,0,0-.956.791,3.364,3.364,0,0,0-.573,1.081,3.872,3.872,0,0,0-.191,1.18,3.807,3.807,0,0,0,.864,2.386,3.3,3.3,0,0,0,1,.811,2.671,2.671,0,0,0,1.279.31,3.652,3.652,0,0,0,2.446-1,4.019,4.019,0,0,0,.9-1.312,4.65,4.65,0,0,0,.356-1.905v-.646a5.491,5.491,0,0,0-.745-.758,5.85,5.85,0,0,0-.923-.639A5.239,5.239,0,0,0,7.9,22.64,3.733,3.733,0,0,0,6.8,22.476Zm24.086-5.194H28.121V35H25.958V17.281H22.953V15.343h7.937Zm16.8,0H44.917V35H42.754V28.83l-.053-.013a6.339,6.339,0,0,1-.85.573,6.88,6.88,0,0,1-1.1.5,9.1,9.1,0,0,1-1.305.356,7.517,7.517,0,0,1-1.463.138,5.71,5.71,0,0,1-2.617-.554,5.4,5.4,0,0,1-1.819-1.483,7.377,7.377,0,0,1-1.154-2.123,12.913,12.913,0,0,1-.606-2.485,5.161,5.161,0,0,0,1.49-.409,3.284,3.284,0,0,0,1-.692,2.587,2.587,0,0,0,.56-.877,2.687,2.687,0,0,0,.178-.949,4.845,4.845,0,0,0-.059-.712,5.5,5.5,0,0,0-.2-.85,7.728,7.728,0,0,0-.382-.956,7.222,7.222,0,0,0-.593-1.015h-3.81V15.343H47.685Zm-11.575,0a7.415,7.415,0,0,1,.745,1.76,6.884,6.884,0,0,1,.27,1.879,4.8,4.8,0,0,1-.178,1.305,4.064,4.064,0,0,1-.547,1.18,4.271,4.271,0,0,1-.916.976,4.345,4.345,0,0,1-1.272.679,5.463,5.463,0,0,0,.58,1.51,3.724,3.724,0,0,0,.87,1.028,3.26,3.26,0,0,0,1.121.587,4.644,4.644,0,0,0,1.332.185,5.825,5.825,0,0,0,1.351-.158,5.946,5.946,0,0,0,1.266-.455,5.811,5.811,0,0,0,1.114-.719,5.468,5.468,0,0,0,.91-.949V17.281Zm11.971-7.7A4.887,4.887,0,0,0,47,8.62a2.222,2.222,0,0,0-1.173-.3,2.085,2.085,0,0,0-1.648.705,2.909,2.909,0,0,0-.62,1.984,5.434,5.434,0,0,0,.119,1.1,7.309,7.309,0,0,0,.343,1.154,8.064,8.064,0,0,0,.554,1.147,8.2,8.2,0,0,0,.751,1.081H43.137a8.888,8.888,0,0,1-1.187-2.3,7.217,7.217,0,0,1-.4-2.3A5.1,5.1,0,0,1,41.9,8.949a4.3,4.3,0,0,1,.929-1.437,4,4,0,0,1,1.351-.89,4.327,4.327,0,0,1,1.628-.31,4.5,4.5,0,0,1,2.05.455,5.159,5.159,0,0,1,1.694,1.457Zm22.913,7.7H59.854v5.194l.066.026a5.167,5.167,0,0,1,1.674-1.483,4.434,4.434,0,0,1,2.2-.56,4.016,4.016,0,0,1,1.76.389,4.337,4.337,0,0,1,1.4,1.068,5.015,5.015,0,0,1,.929,1.6,6.1,6.1,0,0,1-.086,4.225,7.67,7.67,0,0,1-1.081,1.852,8.572,8.572,0,0,1-1.49,1.47A13.34,13.34,0,0,1,63.6,32.152l-1.173-2.03q.264-.145.646-.382t.8-.554a8.11,8.11,0,0,0,.817-.719,6.052,6.052,0,0,0,.725-.877,4.523,4.523,0,0,0,.521-1.028,3.462,3.462,0,0,0,.2-1.173,3.281,3.281,0,0,0-.178-1.081,2.856,2.856,0,0,0-.494-.9,2.361,2.361,0,0,0-.758-.606,2.11,2.11,0,0,0-.969-.224,2.726,2.726,0,0,0-1.332.356,5.105,5.105,0,0,0-1.173.89,6.015,6.015,0,0,0-.89,1.14,3.964,3.964,0,0,0-.481,1.121V35H57.691V30.069l-.04-.013-6.987,5.26-1.279-1.569,3.639-2.61-.013-.04a4.9,4.9,0,0,1-1.734-.659,5.073,5.073,0,0,1-1.338-1.2,5.38,5.38,0,0,1-.857-1.628,6.236,6.236,0,0,1-.3-1.971,5.715,5.715,0,0,1,.376-2.1,5.067,5.067,0,0,1,1.028-1.655,4.7,4.7,0,0,1,1.529-1.081,4.612,4.612,0,0,1,1.892-.389,4.734,4.734,0,0,1,1.325.178,6.432,6.432,0,0,1,2.03.989q.4.3.679.534l.053-.013V17.281H46.762V15.343H70.994ZM53.921,22.476a2.744,2.744,0,0,0-1.325.31,3.062,3.062,0,0,0-.956.791,3.364,3.364,0,0,0-.573,1.081,3.872,3.872,0,0,0-.191,1.18,3.807,3.807,0,0,0,.864,2.386,3.3,3.3,0,0,0,1,.811,2.671,2.671,0,0,0,1.279.31,3.652,3.652,0,0,0,2.446-1,4.019,4.019,0,0,0,.9-1.312,4.65,4.65,0,0,0,.356-1.905v-.646a5.491,5.491,0,0,0-.745-.758,5.85,5.85,0,0,0-.923-.639,5.239,5.239,0,0,0-1.035-.442A3.733,3.733,0,0,0,53.921,22.476Zm35.253-5.194H86.405V35H84.243V27.6H76.992v1.569a7.074,7.074,0,0,1-.033.725,1.44,1.44,0,0,1-.145.527.773.773,0,0,1-.316.323,1.14,1.14,0,0,1-.547.112,1.78,1.78,0,0,1-.765-.2,4.545,4.545,0,0,1-.857-.554,7.843,7.843,0,0,1-.844-.791,7.572,7.572,0,0,1-.732-.923,5.554,5.554,0,0,1-.521-.956,2.283,2.283,0,0,1-.2-.87.93.93,0,0,1,.1-.455.657.657,0,0,1,.277-.27,1.294,1.294,0,0,1,.428-.125,4.38,4.38,0,0,1,.567-.033H74.83v-8.4H70.071V15.343h19.1Zm-12.182,0v8.4h7.251v-8.4Z" transform="translate(181.674 350.335)" fill="#202020" stroke="#000" stroke-width="0.4"/>
  </g>
</svg>
