<svg xmlns="http://www.w3.org/2000/svg" xmlns:xlink="http://www.w3.org/1999/xlink" width="239.411" height="121.068" viewBox="0 0 239.411 121.068">
  <defs>
    <linearGradient id="linear-gradient" x1="0.5" x2="0.5" y2="1" gradientUnits="objectBoundingBox">
      <stop offset="0" stop-color="#ffc134"/>
      <stop offset="1" stop-color="#f85a59"/>
    </linearGradient>
  </defs>
  <g id="Group_350" data-name="Group 350" transform="translate(-69.794 -274.266)">
    <g id="Group_349" data-name="Group 349">
      <path id="Path_6586" data-name="Path 6586" d="M5756.794,966.346q0,4.6-5.016,4.594a5.22,5.22,0,0,1-2.81-.621,9.088,9.088,0,0,1-2.206-2.324l-23-36.746V967.19a3.705,3.705,0,0,1-.979,2.846,4.637,4.637,0,0,1-3.227.9,5.2,5.2,0,0,1-3.4-.869,3.654,3.654,0,0,1-.994-2.884V922.061a6.029,6.029,0,0,1,1.3-4.23,5.8,5.8,0,0,1,9.274,1.585l22.463,36.325V920.256a3.937,3.937,0,0,1,.947-2.91,4.665,4.665,0,0,1,3.261-.915,5.059,5.059,0,0,1,3.427.9,3.861,3.861,0,0,1,.968,2.924v46.073Zm21.955.778a3.679,3.679,0,0,1-1.06,2.91,5.351,5.351,0,0,1-3.452.913,5.05,5.05,0,0,1-3.4-.9,3.773,3.773,0,0,1-.99-2.924V920.115a3.6,3.6,0,0,1,.946-2.806,5.339,5.339,0,0,1,3.516-.869,5.265,5.265,0,0,1,3.478.87,3.637,3.637,0,0,1,.944,2.8Zm21.956-6.2c0,.849.37,1.266,1.129,1.266h16.4a6.394,6.394,0,0,1,3.74.835,3.725,3.725,0,0,1,1.13,3.145,4.089,4.089,0,0,1-1.087,3.289,6.159,6.159,0,0,1-3.783.87h-19.275a7.448,7.448,0,0,1-5.241-1.74,6.23,6.23,0,0,1-1.914-4.842V920.506a4.033,4.033,0,0,1,1.043-3.108,5,5,0,0,1,3.421-.952,5.08,5.08,0,0,1,3.436.913,4.124,4.124,0,0,1,1,3.145Zm38.755-9.79V967.2a3.587,3.587,0,0,1-1.021,2.859,6.988,6.988,0,0,1-6.816,0,3.517,3.517,0,0,1-1.063-2.86V924.436a7.337,7.337,0,0,1,1.95-5.469,7.69,7.69,0,0,1,5.6-1.9h9.566c5.566,0,9.915,1.513,13.014,4.523a16.9,16.9,0,0,1,4.672,12.712,15.853,15.853,0,0,1-5.016,12.139,18.539,18.539,0,0,1-13.22,4.688Zm0-8.144h7.974a8.861,8.861,0,0,0,6.524-2.435,8.438,8.438,0,0,0,2.458-6.251,9.375,9.375,0,0,0-2.243-6.826,8.94,8.94,0,0,0-6.662-2.272h-6.684a1.2,1.2,0,0,0-1.01.458,1.637,1.637,0,0,0-.36,1.029v16.288Z" transform="translate(-5593.148 -641.902)" fill="url(#linear-gradient)"/>
    </g>
    <path id="Path_80753" data-name="Path 80753" d="M-44.25-1.219q0,1.406-1.512,1.406a1.563,1.563,0,0,1-.85-.193,2.688,2.688,0,0,1-.662-.709l-6.937-11.262V-.961a1.149,1.149,0,0,1-.293.873,1.4,1.4,0,0,1-.973.275A1.554,1.554,0,0,1-56.5-.076a1.13,1.13,0,0,1-.3-.885V-14.789a1.86,1.86,0,0,1,.393-1.3,1.706,1.706,0,0,1,1.307-.428,1.7,1.7,0,0,1,.861.2,1.773,1.773,0,0,1,.627.715L-46.84-4.465V-15.34a1.218,1.218,0,0,1,.281-.891,1.372,1.372,0,0,1,.984-.281,1.5,1.5,0,0,1,1.031.275,1.184,1.184,0,0,1,.293.9Zm6.621-8.52h4.8a2.05,2.05,0,0,1,1.078.229q.363.229.363.99a1.287,1.287,0,0,1-.316,1,1.74,1.74,0,0,1-1.125.275h-4.8v4.359q0,.387.34.387h5.18a1.97,1.97,0,0,1,1.119.246,1.13,1.13,0,0,1,.346.973,1.287,1.287,0,0,1-.316,1A1.787,1.787,0,0,1-32.109,0h-6.07a2.192,2.192,0,0,1-1.57-.533,1.944,1.944,0,0,1-.562-1.482v-12.07a1.994,1.994,0,0,1,.577-1.687,1.994,1.994,0,0,1,1.7-.551h5.977a1.85,1.85,0,0,1,1.1.246,1.192,1.192,0,0,1,.322.984,1.218,1.218,0,0,1-.334,1.02,1.857,1.857,0,0,1-1.084.246h-5.156a.379.379,0,0,0-.293.129.469.469,0,0,0-.117.328Zm19.254-.937q-.492,2.145-1.2,4.3t-1.207,3.293q-.5,1.137-.961,2.021A2.757,2.757,0,0,1-22.529.006a1.49,1.49,0,0,1-.744.182,1.719,1.719,0,0,1-.838-.164,1.656,1.656,0,0,1-.557-.633,25.1,25.1,0,0,1-1.711-4.3q-.48-1.488-.9-3.035t-.785-3.152q-.363-1.6-.545-2.707a11.244,11.244,0,0,1-.182-1.7.839.839,0,0,1,.469-.762,2.4,2.4,0,0,1,1.207-.27.864.864,0,0,1,.674.24,1.734,1.734,0,0,1,.311.885q.328,2,.7,3.844t.8,3.527a37.341,37.341,0,0,0,1.406,4.746,43.351,43.351,0,0,0,1.77-5.121q.668-2.461,1.131-4.365t.65-2.748q.2-1.008,1.418-1.008a1.558,1.558,0,0,1,.961.252,1.181,1.181,0,0,1,.41.8q.152,1.043.5,2.643t.9,3.768A44.859,44.859,0,0,0-13.77-3.293a46.655,46.655,0,0,0,1.781-5.238q.422-1.512.832-3.234t.8-3.645A1.708,1.708,0,0,1-10-16.283a.988.988,0,0,1,.738-.252,2.1,2.1,0,0,1,1.172.275.844.844,0,0,1,.41.732,2.781,2.781,0,0,1-.07.668q-.457,2.086-.979,4.043T-9.844-7.031q-.6,1.828-1.172,3.27t-1.107,2.484a3.608,3.608,0,0,1-.861,1.254,1.559,1.559,0,0,1-.855.211,1.581,1.581,0,0,1-1.113-.4,3.674,3.674,0,0,1-.6-1.078q-.381-.879-.926-2.426T-17.5-7q-.477-1.742-.875-3.676ZM3.023-.984a1.123,1.123,0,0,1-.323.89A1.56,1.56,0,0,1,1.664.188,1.506,1.506,0,0,1,.639-.088a1.17,1.17,0,0,1-.3-.9v-14.4a1.122,1.122,0,0,1,.287-.861,1.594,1.594,0,0,1,1.061-.264,1.546,1.546,0,0,1,1.049.27,1.125,1.125,0,0,1,.287.855Zm16.488-.234Q19.512.188,18,.188A1.563,1.563,0,0,1,17.15,0a2.688,2.688,0,0,1-.662-.709L9.551-11.977V-.961a1.149,1.149,0,0,1-.293.873,1.4,1.4,0,0,1-.973.275A1.554,1.554,0,0,1,7.26-.076a1.13,1.13,0,0,1-.3-.885V-14.789a1.86,1.86,0,0,1,.393-1.3,1.706,1.706,0,0,1,1.307-.428,1.7,1.7,0,0,1,.861.2,1.773,1.773,0,0,1,.627.715L16.922-4.465V-15.34a1.218,1.218,0,0,1,.281-.891,1.372,1.372,0,0,1,.984-.281,1.5,1.5,0,0,1,1.031.275,1.184,1.184,0,0,1,.293.9ZM25.582,0a2.2,2.2,0,0,1-1.576-.527,1.952,1.952,0,0,1-.557-1.488v-12.07a2.26,2.26,0,0,1,.568-1.676,2.331,2.331,0,0,1,1.7-.562h3.246a7.322,7.322,0,0,1,5.578,2.162A7.992,7.992,0,0,1,36.6-8.426a8.9,8.9,0,0,1-2.033,6.141A7.105,7.105,0,0,1,28.969,0Zm.551-2.883q0,.387.34.387h2.355a4.694,4.694,0,0,0,3.756-1.541,6.365,6.365,0,0,0,1.33-4.295,5.754,5.754,0,0,0-1.336-4.037,4.829,4.829,0,0,0-3.75-1.459H26.543a.379.379,0,0,0-.293.129.469.469,0,0,0-.117.328Zm16.2,1.9a1.123,1.123,0,0,1-.322.891,1.56,1.56,0,0,1-1.037.281,1.506,1.506,0,0,1-1.025-.275,1.17,1.17,0,0,1-.3-.9v-14.4a1.122,1.122,0,0,1,.287-.861A1.594,1.594,0,0,1,41-16.511a1.546,1.546,0,0,1,1.049.27,1.125,1.125,0,0,1,.287.855ZM54.6-4.465H48.574Q48.152-3.187,47.461-.82a1.532,1.532,0,0,1-.369.785,1.009,1.009,0,0,1-.709.223A2.2,2.2,0,0,1,45.2-.082.815.815,0,0,1,44.777-.8a7.96,7.96,0,0,1,.334-1.693q.334-1.236,1.014-3.24t1.324-3.744q.656-1.74,1.289-3.229A16.061,16.061,0,0,1,50.432-16.1a1.668,1.668,0,0,1,1.213-.416,1.48,1.48,0,0,1,1.09.363,17.787,17.787,0,0,1,1.934,4q1.254,3.094,2.578,7.242a21.372,21.372,0,0,1,1.043,4,.909.909,0,0,1-.457.814,2.219,2.219,0,0,1-1.2.287A.921.921,0,0,1,56.018,0a1.644,1.644,0,0,1-.393-.814Q55.242-2.344,54.6-4.465Zm-3-8.707q-1.055,2.426-2.285,6.211H53.85a50.648,50.648,0,0,0-2.25-6.211ZM-116.508,25.117q0,.387.34.387h4.945a1.894,1.894,0,0,1,1.125.258,1.144,1.144,0,0,1,.34.961,1.256,1.256,0,0,1-.328,1.008,1.823,1.823,0,0,1-1.137.27h-5.812a2.235,2.235,0,0,1-1.582-.533,1.923,1.923,0,0,1-.574-1.482V12.73a1.241,1.241,0,0,1,.316-.949,1.492,1.492,0,0,1,1.031-.293,1.505,1.505,0,0,1,1.037.281,1.281,1.281,0,0,1,.3.961Zm11.73,1.9a1.123,1.123,0,0,1-.322.891,1.56,1.56,0,0,1-1.037.281,1.506,1.506,0,0,1-1.025-.275,1.17,1.17,0,0,1-.3-.9v-14.4a1.122,1.122,0,0,1,.287-.861,1.594,1.594,0,0,1,1.061-.264,1.546,1.546,0,0,1,1.049.27,1.125,1.125,0,0,1,.287.855Zm13.125-15.34a1.167,1.167,0,0,1,.879.275,1.434,1.434,0,0,1,.258.979,1.385,1.385,0,0,1-.264.979,1.2,1.2,0,0,1-.873.264h-3.574V27.016a1.109,1.109,0,0,1-.328.9,1.61,1.61,0,0,1-1.043.275,1.485,1.485,0,0,1-1.014-.275,1.17,1.17,0,0,1-.3-.9V14.172h-3.527a1.171,1.171,0,0,1-.914-.3,1.385,1.385,0,0,1-.27-.937,1.4,1.4,0,0,1,.27-.961,1.2,1.2,0,0,1,.914-.293Zm5.977,6.586h4.8a2.05,2.05,0,0,1,1.078.229q.363.229.363.99a1.287,1.287,0,0,1-.316,1,1.74,1.74,0,0,1-1.125.275h-4.8v4.359q0,.387.34.387h5.18a1.97,1.97,0,0,1,1.119.246,1.13,1.13,0,0,1,.346.973,1.287,1.287,0,0,1-.316,1A1.787,1.787,0,0,1-80.156,28h-6.07a2.192,2.192,0,0,1-1.57-.533,1.944,1.944,0,0,1-.562-1.482V13.914a1.994,1.994,0,0,1,.577-1.687,1.994,1.994,0,0,1,1.7-.551h5.977a1.85,1.85,0,0,1,1.1.246,1.192,1.192,0,0,1,.322.984,1.218,1.218,0,0,1-.334,1.02,1.857,1.857,0,0,1-1.084.246H-85.26a.379.379,0,0,0-.293.129.469.469,0,0,0-.117.328Zm12.6,3V27.04a1.163,1.163,0,0,1-.287.873,1.522,1.522,0,0,1-1.049.275,1.547,1.547,0,0,1-1.055-.275,1.149,1.149,0,0,1-.293-.873V13.914a1.994,1.994,0,0,1,.577-1.687,1.994,1.994,0,0,1,1.7-.551h2.813a6.374,6.374,0,0,1,4.1,1.137,4.063,4.063,0,0,1,1.4,3.352,4.23,4.23,0,0,1-1,2.771,4.482,4.482,0,0,1-2.783,1.529,4.829,4.829,0,0,1,1.283.908,6.628,6.628,0,0,1,1.066,1.4,16.9,16.9,0,0,1,.908,1.8l.68,1.6a2.664,2.664,0,0,1,.258.949.973.973,0,0,1-.475.8,2.012,2.012,0,0,1-1.2.34A1.086,1.086,0,0,1-67,28.135a1.249,1.249,0,0,1-.434-.639,19.445,19.445,0,0,0-2.49-4.887A3.273,3.273,0,0,0-72.5,21.262Zm0-2.5h2.262a3.457,3.457,0,0,0,2.2-.6,2.109,2.109,0,0,0,.756-1.752,2.167,2.167,0,0,0-.68-1.77,3.229,3.229,0,0,0-2.086-.562h-2.039a.385.385,0,0,0-.287.129.456.456,0,0,0-.123.328Zm19.57,4.77h-6.023q-.422,1.277-1.113,3.645a1.532,1.532,0,0,1-.369.785,1.009,1.009,0,0,1-.709.223,2.2,2.2,0,0,1-1.178-.27.815.815,0,0,1-.428-.715,7.96,7.96,0,0,1,.334-1.693q.334-1.236,1.014-3.24t1.324-3.744q.656-1.74,1.289-3.229A16.061,16.061,0,0,1-57.674,11.9a1.668,1.668,0,0,1,1.213-.416,1.48,1.48,0,0,1,1.09.363,17.787,17.787,0,0,1,1.934,4q1.254,3.094,2.578,7.242a21.372,21.372,0,0,1,1.043,4,.909.909,0,0,1-.457.814,2.219,2.219,0,0,1-1.2.287A.921.921,0,0,1-52.088,28a1.644,1.644,0,0,1-.393-.814q-.382-1.527-1.027-3.648Zm-3-8.707q-1.055,2.426-2.285,6.211h4.535a50.65,50.65,0,0,0-2.252-6.209Zm15.164,13.406A6.734,6.734,0,0,1-46.67,26.02a8.846,8.846,0,0,1-1.951-6.059A8.818,8.818,0,0,1-46.5,13.744a7.062,7.062,0,0,1,5.438-2.3,8.7,8.7,0,0,1,2.08.24,5.585,5.585,0,0,1,1.74.738,4.281,4.281,0,0,1,1,.814,1.135,1.135,0,0,1,.24.7,1.359,1.359,0,0,1-.387.914,1.115,1.115,0,0,1-.832.434,1.927,1.927,0,0,1-1.031-.41,4.441,4.441,0,0,0-1.383-.738,5.334,5.334,0,0,0-1.523-.2A4.254,4.254,0,0,0-44.6,15.549a6.65,6.65,0,0,0-1.33,4.365,6.572,6.572,0,0,0,1.254,4.33,4.447,4.447,0,0,0,3.609,1.494,4.31,4.31,0,0,0,1.564-.27,9.089,9.089,0,0,0,1.693-.937,1.428,1.428,0,0,1,.8-.246,1.1,1.1,0,0,1,.82.393,1.184,1.184,0,0,1,.363.8q0,.973-1.711,1.863a8.123,8.123,0,0,1-3.806.893Zm13.465-6.527v5.309a1.109,1.109,0,0,1-.328.9,1.61,1.61,0,0,1-1.043.275,1.506,1.506,0,0,1-1.025-.275,1.17,1.17,0,0,1-.3-.9V21.707a15.085,15.085,0,0,1-2.965-4.4,11.4,11.4,0,0,1-1.23-4.646,1.184,1.184,0,0,1,.293-.9,1.591,1.591,0,0,1,1.078-.275,1.491,1.491,0,0,1,.961.24,1.122,1.122,0,0,1,.328.791,14.327,14.327,0,0,0,.938,3.92,10.858,10.858,0,0,0,1.945,3.041,13.248,13.248,0,0,0,2.145-3.24,11.606,11.606,0,0,0,1-3.58,1.466,1.466,0,0,1,.363-.914,1.459,1.459,0,0,1,.984-.258,1.553,1.553,0,0,1,1.043.275,1.156,1.156,0,0,1,.3.9,10.489,10.489,0,0,1-1.3,4.553,17.07,17.07,0,0,1-3.194,4.493Zm15.141.41v4.922a1.108,1.108,0,0,1-.311.879,1.558,1.558,0,0,1-1.025.27,1.584,1.584,0,0,1-1.031-.27,1.1,1.1,0,0,1-.316-.879v-13.1a2.268,2.268,0,0,1,.586-1.676,2.284,2.284,0,0,1,1.688-.586h2.883A5.346,5.346,0,0,1-6.34,13.064a5.23,5.23,0,0,1,1.406,3.9,4.9,4.9,0,0,1-1.512,3.721,5.547,5.547,0,0,1-3.984,1.436Zm0-2.5h2.4a2.649,2.649,0,0,0,1.969-.744,2.6,2.6,0,0,0,.738-1.916A2.9,2.9,0,0,0-8.3,14.869a2.672,2.672,0,0,0-2.01-.7h-2.016a.358.358,0,0,0-.3.141.514.514,0,0,0-.1.316ZM.293,21.262v5.777a1.163,1.163,0,0,1-.287.873,1.522,1.522,0,0,1-1.049.275A1.547,1.547,0,0,1-2.1,27.912a1.149,1.149,0,0,1-.293-.873V13.914a1.994,1.994,0,0,1,.578-1.688,1.994,1.994,0,0,1,1.7-.55H2.7a6.374,6.374,0,0,1,4.1,1.137,4.063,4.063,0,0,1,1.4,3.352,4.23,4.23,0,0,1-1,2.771,4.482,4.482,0,0,1-2.783,1.529,4.829,4.829,0,0,1,1.283.908,6.628,6.628,0,0,1,1.066,1.4,16.9,16.9,0,0,1,.908,1.8l.68,1.6a2.664,2.664,0,0,1,.258.949.973.973,0,0,1-.475.8,2.012,2.012,0,0,1-1.2.34,1.086,1.086,0,0,1-.551-.135,1.249,1.249,0,0,1-.434-.639,19.445,19.445,0,0,0-2.49-4.887A3.273,3.273,0,0,0,.867,21.262Zm0-2.5H2.555a3.457,3.457,0,0,0,2.2-.6,2.109,2.109,0,0,0,.756-1.752,2.167,2.167,0,0,0-.68-1.77,3.229,3.229,0,0,0-2.086-.562H.7a.385.385,0,0,0-.287.129.456.456,0,0,0-.123.328ZM18.2,28.234a6.57,6.57,0,0,1-5.355-2.391,9.161,9.161,0,0,1-1.969-6.023,9.073,9.073,0,0,1,1.975-6.006,6.6,6.6,0,0,1,5.35-2.373,6.481,6.481,0,0,1,5.3,2.373A9.18,9.18,0,0,1,25.44,19.82a9.24,9.24,0,0,1-1.94,6.035,6.474,6.474,0,0,1-5.3,2.379Zm0-14.3a3.956,3.956,0,0,0-3.393,1.717A6.939,6.939,0,0,0,13.57,19.82a7,7,0,0,0,1.236,4.2A3.951,3.951,0,0,0,18.2,25.738,3.87,3.87,0,0,0,21.533,24a7.066,7.066,0,0,0,1.225-4.184,7,7,0,0,0-1.219-4.172A3.882,3.882,0,0,0,18.2,13.938ZM40.781,24.977a2.329,2.329,0,0,1-.516,1.559,4.829,4.829,0,0,1-1.922,1.154,9.2,9.2,0,0,1-3.328.545A6.916,6.916,0,0,1,29.607,26a8.693,8.693,0,0,1-2.01-6.041,8.749,8.749,0,0,1,2.15-6.211,7.158,7.158,0,0,1,5.479-2.309,8.861,8.861,0,0,1,3.018.434,6.433,6.433,0,0,1,1.723.867,1.207,1.207,0,0,1,.545.926,1.506,1.506,0,0,1-.352.949,1.009,1.009,0,0,1-.8.445,1.87,1.87,0,0,1-.86-.26,7.051,7.051,0,0,0-3.187-.867,4.581,4.581,0,0,0-3.627,1.594A6.447,6.447,0,0,0,30.3,19.91a6.333,6.333,0,0,0,1.33,4.3,4.692,4.692,0,0,0,3.732,1.523,5.573,5.573,0,0,0,1.594-.223,2.46,2.46,0,0,0,.943-.422.792.792,0,0,0,.193-.574V21.426H35.4a1.337,1.337,0,0,1-.914-.264,1.347,1.347,0,0,1-.293-1.014,1.26,1.26,0,0,1,.293-.937,1.358,1.358,0,0,1,.961-.281h4.008q1.324,0,1.324,1.219Zm6.258-3.715v5.777a1.163,1.163,0,0,1-.287.873,1.522,1.522,0,0,1-1.049.275,1.547,1.547,0,0,1-1.055-.275,1.149,1.149,0,0,1-.293-.873V13.914a1.994,1.994,0,0,1,2.273-2.238h2.813a6.374,6.374,0,0,1,4.1,1.137,4.063,4.063,0,0,1,1.4,3.352,4.23,4.23,0,0,1-1,2.771,4.482,4.482,0,0,1-2.783,1.529,4.829,4.829,0,0,1,1.283.908,6.628,6.628,0,0,1,1.066,1.4,16.9,16.9,0,0,1,.908,1.8l.68,1.6a2.664,2.664,0,0,1,.258.949.973.973,0,0,1-.475.8,2.012,2.012,0,0,1-1.2.34,1.086,1.086,0,0,1-.551-.135,1.249,1.249,0,0,1-.434-.639,19.445,19.445,0,0,0-2.49-4.887,3.273,3.273,0,0,0-2.584-1.348Zm0-2.5H49.3a3.457,3.457,0,0,0,2.2-.6,2.109,2.109,0,0,0,.756-1.752,2.167,2.167,0,0,0-.68-1.77,3.229,3.229,0,0,0-2.086-.562H47.449a.385.385,0,0,0-.287.129.456.456,0,0,0-.123.328Zm19.57,4.77H60.586q-.422,1.277-1.113,3.645a1.532,1.532,0,0,1-.369.785,1.009,1.009,0,0,1-.709.223,2.2,2.2,0,0,1-1.178-.27.815.815,0,0,1-.428-.715,7.96,7.96,0,0,1,.334-1.693q.334-1.236,1.014-3.24t1.324-3.744q.656-1.74,1.289-3.229A16.061,16.061,0,0,1,62.443,11.9a1.668,1.668,0,0,1,1.213-.416,1.48,1.48,0,0,1,1.09.363,17.787,17.787,0,0,1,1.934,4q1.254,3.094,2.578,7.242a21.371,21.371,0,0,1,1.043,4,.909.909,0,0,1-.457.814,2.219,2.219,0,0,1-1.2.287A.921.921,0,0,1,68.029,28a1.644,1.644,0,0,1-.393-.814q-.382-1.527-1.027-3.648Zm-3-8.707q-1.055,2.426-2.285,6.211h4.535a50.65,50.65,0,0,0-2.25-6.208ZM87.7,27.039a1.194,1.194,0,0,1-.275.873,1.5,1.5,0,0,1-1.049.275,1.34,1.34,0,0,1-.961-.264,1.241,1.241,0,0,1-.258-.885V16.07L81.7,22.211a1.787,1.787,0,0,1-.7.779,1.882,1.882,0,0,1-.791.158,1.836,1.836,0,0,1-.809-.17,1.755,1.755,0,0,1-.68-.744l-3.434-6.07V27.039a1.244,1.244,0,0,1-.258.879,1.361,1.361,0,0,1-.984.27,1.45,1.45,0,0,1-1.031-.275,1.211,1.211,0,0,1-.27-.873V13.117q0-1.629,1.559-1.629a1.689,1.689,0,0,1,.908.211,2.126,2.126,0,0,1,.65.773l4.348,7.8,4.441-7.98a1.719,1.719,0,0,1,.563-.6,1.8,1.8,0,0,1,.949-.205,1.573,1.573,0,0,1,1.148.381,1.7,1.7,0,0,1,.387,1.248Zm18.891,0a1.194,1.194,0,0,1-.275.873,1.5,1.5,0,0,1-1.049.275,1.34,1.34,0,0,1-.961-.264,1.241,1.241,0,0,1-.258-.885V16.07l-3.457,6.141a1.787,1.787,0,0,1-.7.779,1.882,1.882,0,0,1-.791.158,1.836,1.836,0,0,1-.809-.17,1.755,1.755,0,0,1-.68-.744l-3.434-6.07V27.039a1.244,1.244,0,0,1-.258.879,1.361,1.361,0,0,1-.984.27,1.45,1.45,0,0,1-1.031-.275,1.211,1.211,0,0,1-.27-.873V13.117q0-1.629,1.559-1.629a1.689,1.689,0,0,1,.908.211,2.126,2.126,0,0,1,.65.773l4.348,7.8,4.441-7.98a1.719,1.719,0,0,1,.563-.6,1.8,1.8,0,0,1,.949-.205,1.573,1.573,0,0,1,1.148.381,1.7,1.7,0,0,1,.387,1.248Zm6.621-8.777h4.8a2.05,2.05,0,0,1,1.078.229q.363.229.363.99a1.287,1.287,0,0,1-.316,1,1.74,1.74,0,0,1-1.125.275h-4.8v4.359q0,.387.34.387h5.18a1.97,1.97,0,0,1,1.119.246,1.13,1.13,0,0,1,.346.973,1.287,1.287,0,0,1-.316,1,1.787,1.787,0,0,1-1.148.275h-6.07a2.192,2.192,0,0,1-1.57-.533,1.944,1.944,0,0,1-.562-1.482V13.914a1.994,1.994,0,0,1,2.273-2.238h5.977a1.85,1.85,0,0,1,1.1.246,1.192,1.192,0,0,1,.322.984,1.218,1.218,0,0,1-.334,1.02,1.857,1.857,0,0,1-1.084.246h-5.156a.379.379,0,0,0-.293.129.469.469,0,0,0-.117.328Z" transform="translate(188.991 367.066)" fill="#202020"/>
  </g>
</svg>
