<svg xmlns="http://www.w3.org/2000/svg" width="141.298" height="56.053" viewBox="0 0 141.298 56.053">
  <g id="hindi-logo-black" transform="translate(-1116.002 -235.563)">
    <path id="National_Curriculum_Framework" data-name="National Curriculum Framework" d="M7.251-13.484H5.066a6.076,6.076,0,0,1,.395.952,3.245,3.245,0,0,1,.148.976,2.767,2.767,0,0,1-.127.846,2.106,2.106,0,0,1-.395.716,2.3,2.3,0,0,1-.681.542,3.237,3.237,0,0,1-.988.322L3.4-9.1q.274.372.557.719t.594.682q.313.335.668.663t.769.663L4.916-5.238a10.077,10.077,0,0,1-.988-.846q-.479-.462-.909-.961T2.21-8.065q-.378-.514-.695-1T.947-10Q.7-10.446.521-10.8l1.441-.7a2.118,2.118,0,0,0,.476.786.79.79,0,0,0,.535.229.773.773,0,0,0,.346-.08.833.833,0,0,0,.287-.238,1.259,1.259,0,0,0,.2-.384,1.665,1.665,0,0,0,.074-.524,2.874,2.874,0,0,0-.157-.893,3.062,3.062,0,0,0-.456-.88H-.308v-1.39H7.251Zm4.108,0H9.938v7.848h-1.7v-7.848H6.794v-1.392h4.565Zm2.1,4.6a1.3,1.3,0,0,1-.427-.238,1.538,1.538,0,0,1-.349-.423,2.353,2.353,0,0,1-.238-.629,3.725,3.725,0,0,1-.088-.858v-2.449H10.9v-1.393h8.909v1.4H18.39v2.16a3.606,3.606,0,0,1-.114.959,2.654,2.654,0,0,1-.306.716,2.171,2.171,0,0,1-.456.521,3.556,3.556,0,0,1-.561.378,4.678,4.678,0,0,1-.617.282q-.32.118-.633.229-.332.118-.629.236a2.524,2.524,0,0,0-.519.276,1.261,1.261,0,0,0-.358.378,1.027,1.027,0,0,0-.134.542,1.212,1.212,0,0,0,.143.6,1.318,1.318,0,0,0,.388.437,1.763,1.763,0,0,0,.574.267,2.679,2.679,0,0,0,.707.086,3.292,3.292,0,0,0,.646-.065,4.541,4.541,0,0,0,.646-.18,5.737,5.737,0,0,0,.629-.269q.309-.155.61-.335v1.643a4.836,4.836,0,0,1-1.132.468A4.874,4.874,0,0,1,16.017-4,5.156,5.156,0,0,1,14.5-4.212a3.543,3.543,0,0,1-1.16-.586,2.648,2.648,0,0,1-.748-.908,2.564,2.564,0,0,1-.264-1.165,2.53,2.53,0,0,1,.085-.669,2.117,2.117,0,0,1,.238-.558,2,2,0,0,1,.358-.434,2.076,2.076,0,0,1,.445-.31Zm2.654-1.129-2.061-2.8-.026.006v1.665a2.657,2.657,0,0,0,.094.776,1.268,1.268,0,0,0,.255.48.874.874,0,0,0,.371.248,1.342,1.342,0,0,0,.437.071q.274-.1.505-.2a2.714,2.714,0,0,0,.421-.223Zm-1.434-3.452,1.983,2.8.026.006a1.036,1.036,0,0,0,.026-.164q.007-.084.007-.183v-2.48H14.679ZM19.658-2.381,17.894-3.844,16.152-2.381l-.959-1.11,2.7-2.158,2.752,2.27Zm4.265-11.1H22.5v7.848H20.8v-7.848H19.354v-1.392h1.468a4.59,4.59,0,0,0-.313-.98,3.274,3.274,0,0,0-.411-.676,2.033,2.033,0,0,0-.46-.427,2.272,2.272,0,0,0-.46-.236,1.816,1.816,0,0,0-.414-.1,2.93,2.93,0,0,0-.316-.022,1.416,1.416,0,0,0-.926.257.81.81,0,0,0-.306.648,1.5,1.5,0,0,0,.251.781,3.675,3.675,0,0,0,.727.825H16.319a3.543,3.543,0,0,1-.617-.967,2.5,2.5,0,0,1-.206-.961,1.744,1.744,0,0,1,.176-.772,1.74,1.74,0,0,1,.528-.629,2.708,2.708,0,0,1,.884-.423,4.485,4.485,0,0,1,1.249-.155,4.382,4.382,0,0,1,1.707.3,3.43,3.43,0,0,1,1.2.818A3.881,3.881,0,0,1,22-16.378a6.6,6.6,0,0,1,.4,1.5h1.526Zm-.456,0v-1.392h9.362v1.4H31.406v7.845H29.7v-2.3l-.019-.006a3.829,3.829,0,0,1-.329.207,2.722,2.722,0,0,1-.395.183,2.906,2.906,0,0,1-.476.13,3.118,3.118,0,0,1-.58.049,3.207,3.207,0,0,1-1.457-.309,3.288,3.288,0,0,1-1.054-.828,4.141,4.141,0,0,1-.685-1.156,5.892,5.892,0,0,1-.352-1.314,2.5,2.5,0,0,0,.7-.174,1.432,1.432,0,0,0,.456-.3,1.056,1.056,0,0,0,.248-.391,1.33,1.33,0,0,0,.074-.443,1.685,1.685,0,0,0-.1-.571,2.821,2.821,0,0,0-.332-.626Zm4.1,1.451a1.769,1.769,0,0,1-.326,1.058,2.181,2.181,0,0,1-.965.722,2.1,2.1,0,0,0,.257.626,1.63,1.63,0,0,0,.381.423,1.479,1.479,0,0,0,.47.242,1.8,1.8,0,0,0,.528.078,1.9,1.9,0,0,0,1.057-.288,2.283,2.283,0,0,0,.737-.8v-3.509H27.089a2.974,2.974,0,0,1,.362.747,2.38,2.38,0,0,1,.114.7Zm16.478-1.451H42.621v7.848h-1.7V-8.022l-.026-.006a3.058,3.058,0,0,1-1.6.465q-.143,0-.4-.025a2.576,2.576,0,0,1-.568-.127,2.9,2.9,0,0,1-.626-.3,2.135,2.135,0,0,1-.577-.552,2.991,2.991,0,0,1-.424-.877,4.279,4.279,0,0,1-.166-1.277v-2.759H35.069v-1.391h8.974Zm-3.124,0H38.225v2.858a2.622,2.622,0,0,0,.094.772,1.239,1.239,0,0,0,.255.474.83.83,0,0,0,.375.238,1.568,1.568,0,0,0,.456.065,1.553,1.553,0,0,0,.874-.233,2.3,2.3,0,0,0,.639-.667Zm7.232,0H46.729v7.848h-1.7v-7.848H43.586v-1.392H48.15Zm8.511,4.792a3.078,3.078,0,0,1-.264,1.28A2.954,2.954,0,0,1,55.645-6.4a3.514,3.514,0,0,1-1.177.669,4.639,4.639,0,0,1-1.539.242,4.615,4.615,0,0,1-1.7-.29,3.779,3.779,0,0,1-1.246-.776,3.3,3.3,0,0,1-.769-1.11,3.3,3.3,0,0,1-.264-1.3,2.64,2.64,0,0,1,.223-1.122,2.751,2.751,0,0,1,.571-.818,3.179,3.179,0,0,1,.779-.564,5.392,5.392,0,0,1,.848-.353q.418-.13.734-.2a2.039,2.039,0,0,0,.545-.2.6.6,0,0,0,.245-.226.743.743,0,0,0,.074-.363v-.676H47.747v-1.387H57.98v1.4H54.673v.705a2.762,2.762,0,0,1-.056.58,2,2,0,0,1-.16.468,4.537,4.537,0,0,1,1.65,1.287A2.841,2.841,0,0,1,56.662-8.692Zm-5.974-.093a1.849,1.849,0,0,0,.157.769,1.771,1.771,0,0,0,.437.6,2.014,2.014,0,0,0,.668.391,2.431,2.431,0,0,0,.835.141,2.446,2.446,0,0,0,.857-.15,2.182,2.182,0,0,0,.7-.412,1.9,1.9,0,0,0,.466-.629,1.877,1.877,0,0,0,.168-.8,1.8,1.8,0,0,0-.094-.6,1.975,1.975,0,0,0-.245-.484,2.077,2.077,0,0,0-.339-.378,2.767,2.767,0,0,0-.378-.282,3.255,3.255,0,0,0-.355-.189q-.166-.074-.278-.111-.234.074-.519.155a5.909,5.909,0,0,0-.57.195,4.53,4.53,0,0,0-.561.257,2.052,2.052,0,0,0-.482.36,1.644,1.644,0,0,0-.336.5A1.654,1.654,0,0,0,50.688-8.785Zm3.918-4.339H58.33a3.636,3.636,0,0,1,1.1.149,2.058,2.058,0,0,1,.776.427,1.746,1.746,0,0,1,.46.682,2.549,2.549,0,0,1,.154.911,1.933,1.933,0,0,1-.323,1.141,2.357,2.357,0,0,1-.965.756,1.451,1.451,0,0,0,.257.48,1.305,1.305,0,0,0,.358.3,1.462,1.462,0,0,0,.43.158,2.4,2.4,0,0,0,.473.047,2.025,2.025,0,0,0,1.086-.273,2.251,2.251,0,0,0,.758-.817v-4.321H56.479v-1.392h9.535v1.4H64.592v7.845h-1.7V-7.123l-.019-.006a3.948,3.948,0,0,1-.336.212,2.514,2.514,0,0,1-.395.18,3.113,3.113,0,0,1-.479.127,3.251,3.251,0,0,1-.594.049,3.4,3.4,0,0,1-1.4-.269,3.173,3.173,0,0,1-1.027-.719,3.535,3.535,0,0,1-.675-1.029,4.953,4.953,0,0,1-.349-1.193,2.788,2.788,0,0,0,.668-.171,1.45,1.45,0,0,0,.45-.282,1.036,1.036,0,0,0,.255-.369,1.178,1.178,0,0,0,.082-.44,1.279,1.279,0,0,0-.056-.366.887.887,0,0,0-.185-.335.974.974,0,0,0-.352-.245,1.417,1.417,0,0,0-.561-.1h-3.57Zm20.855-.36H74.094v7.848H72.346V-7.563l-.026-.018a2.606,2.606,0,0,1-.482.313,3.173,3.173,0,0,1-.515.2,3.39,3.39,0,0,1-.515.111,3.683,3.683,0,0,1-.489.034A3.028,3.028,0,0,1,69.236-7.1,2.589,2.589,0,0,1,68.4-7.61a2.249,2.249,0,0,1-.541-.75,2.217,2.217,0,0,1-.192-.917,2.365,2.365,0,0,1,.111-.691,1.952,1.952,0,0,1,.4-.7l-.007-.037H66.509v-1.392h5.1v1.4H70.82a1.864,1.864,0,0,0-.72.118,1.223,1.223,0,0,0-.437.294.963.963,0,0,0-.218.382,1.36,1.36,0,0,0-.059.372,1.2,1.2,0,0,0,.065.382,1.017,1.017,0,0,0,.209.356,1.08,1.08,0,0,0,.371.264,1.351,1.351,0,0,0,.554.1,1.76,1.76,0,0,0,.568-.09,2.211,2.211,0,0,0,.486-.233,2.281,2.281,0,0,0,.4-.322,3.214,3.214,0,0,0,.306-.36v-4.048H65.557v-1.392h9.906Zm-.456,0v-1.392H84.37v1.4H82.95v7.845h-1.7v-2.3l-.019-.006a3.829,3.829,0,0,1-.329.207,2.723,2.723,0,0,1-.395.183,2.906,2.906,0,0,1-.476.13,3.118,3.118,0,0,1-.58.049,3.207,3.207,0,0,1-1.457-.313,3.289,3.289,0,0,1-1.051-.824,4.142,4.142,0,0,1-.685-1.156,5.892,5.892,0,0,1-.352-1.314,2.5,2.5,0,0,0,.7-.174,1.432,1.432,0,0,0,.456-.3,1.056,1.056,0,0,0,.248-.391,1.33,1.33,0,0,0,.074-.443,1.685,1.685,0,0,0-.1-.571,2.82,2.82,0,0,0-.332-.626Zm4.1,1.451a1.769,1.769,0,0,1-.326,1.058,2.181,2.181,0,0,1-.965.722,2.1,2.1,0,0,0,.257.626,1.63,1.63,0,0,0,.381.423,1.479,1.479,0,0,0,.47.242,1.8,1.8,0,0,0,.528.078,1.9,1.9,0,0,0,1.057-.288,2.283,2.283,0,0,0,.737-.8v-3.509H78.632a2.974,2.974,0,0,1,.362.747,2.38,2.38,0,0,1,.115.7Zm9.371-1.451H87.056v7.848h-1.7v-7.848H83.915v-1.392h4.565Zm-.326-3.769a1.35,1.35,0,0,0-.445-.384,1.081,1.081,0,0,0-.5-.124.957.957,0,0,0-.32.053.748.748,0,0,0-.264.158.762.762,0,0,0-.183.267.944.944,0,0,0-.068.372,1.662,1.662,0,0,0,.078.49,3.5,3.5,0,0,0,.212.524,5.823,5.823,0,0,0,.309.545q.176.276.365.542H85.658a3.966,3.966,0,0,1-.708-1.141,2.987,2.987,0,0,1-.212-1.058,2.058,2.058,0,0,1,.189-.9,1.9,1.9,0,0,1,.519-.663,2.321,2.321,0,0,1,.779-.409,3.234,3.234,0,0,1,.968-.141,2.8,2.8,0,0,1,1.135.22,2.5,2.5,0,0,1,.928.729ZM7.642,9.459a4.121,4.121,0,0,0,.718-.446,3.135,3.135,0,0,0,.512-.5A2.009,2.009,0,0,0,9.178,8a1.35,1.35,0,0,0,.1-.494,1.365,1.365,0,0,0-.046-.335.958.958,0,0,0-.154-.329A.893.893,0,0,0,8.8,6.593a.814.814,0,0,0-.417-.1,1.094,1.094,0,0,0-.5.121,1.822,1.822,0,0,0-.45.322,2.821,2.821,0,0,0-.381.458,3.53,3.53,0,0,0-.3.536V12H5.06V9.959l-.013-.006q-.078.049-.206.121a2.388,2.388,0,0,1-.3.141,2.729,2.729,0,0,1-.4.118,2.368,2.368,0,0,1-.5.049,2.731,2.731,0,0,1-1.106-.233A3.1,3.1,0,0,1,.933,8.575,2.745,2.745,0,0,1,.689,7.428a2.63,2.63,0,0,1,.18-.967,2.406,2.406,0,0,1,.515-.806A2.457,2.457,0,0,1,2.2,5.1a2.784,2.784,0,0,1,1.1-.2,2.79,2.79,0,0,1,.848.13,3.424,3.424,0,0,1,.9.471l.013-.006V4.15H-.308V2.758H12.246v1.4H6.762V5.617l.013.006A2.366,2.366,0,0,1,7.244,5.3a2.678,2.678,0,0,1,.476-.192,2.766,2.766,0,0,1,.445-.093,3.232,3.232,0,0,1,.378-.025,2.329,2.329,0,0,1,1.024.217,2.42,2.42,0,0,1,.763.564,2.488,2.488,0,0,1,.479.8,2.591,2.591,0,0,1,.166.911,2.683,2.683,0,0,1-.176.952,3.521,3.521,0,0,1-.5.9,4.721,4.721,0,0,1-.791.8,6.394,6.394,0,0,1-1.039.679ZM5.1,7.015q-.131-.124-.28-.254a2.123,2.123,0,0,0-.326-.233,1.874,1.874,0,0,0-.385-.167A1.527,1.527,0,0,0,3.651,6.3a1.318,1.318,0,0,0-.528.1,1.143,1.143,0,0,0-.385.267,1.1,1.1,0,0,0-.234.391,1.414,1.414,0,0,0-.078.471,1.44,1.44,0,0,0,.1.533,1.287,1.287,0,0,0,.727.725,1.53,1.53,0,0,0,.584.105,1.3,1.3,0,0,0,.612-.133,1.075,1.075,0,0,0,.388-.338,1.333,1.333,0,0,0,.206-.459,2.226,2.226,0,0,0,.059-.5ZM16.355,4.15H14.933V12h-1.7V4.15H11.793V2.758H13.26a4.59,4.59,0,0,0-.313-.98,3.274,3.274,0,0,0-.413-.679,2.033,2.033,0,0,0-.46-.427,2.272,2.272,0,0,0-.46-.236,1.816,1.816,0,0,0-.414-.1,2.929,2.929,0,0,0-.316-.022A1.416,1.416,0,0,0,9.958.57a.81.81,0,0,0-.306.648A1.5,1.5,0,0,0,9.9,2a3.675,3.675,0,0,0,.727.825H8.75a3.543,3.543,0,0,1-.617-.967A2.5,2.5,0,0,1,7.928.9,1.744,1.744,0,0,1,8.1.124a1.74,1.74,0,0,1,.528-.629,2.708,2.708,0,0,1,.884-.423,4.485,4.485,0,0,1,1.249-.155,4.382,4.382,0,0,1,1.707.3,3.43,3.43,0,0,1,1.2.818,3.881,3.881,0,0,1,.763,1.218,6.6,6.6,0,0,1,.4,1.5h1.526ZM30.417,9.122a10.2,10.2,0,0,0-.633-1.091,5.457,5.457,0,0,0-.695-.852,2.947,2.947,0,0,0-.757-.552,1.837,1.837,0,0,0-.825-.2,1.353,1.353,0,0,0-.783.192.609.609,0,0,0-.274.527.59.59,0,0,0,.223.494.974.974,0,0,0,.617.176,1.929,1.929,0,0,0,.8-.174l.248,1.091a2.94,2.94,0,0,1-1.261.248,3.1,3.1,0,0,1-.841-.111,2.268,2.268,0,0,1-.708-.332,1.75,1.75,0,0,1-.5-.549,1.676,1.676,0,0,1-.218-.756.575.575,0,0,0-.1-.04q-.065-.022-.14-.044t-.148-.037L24.311,7.1A2.164,2.164,0,0,1,23.6,8a2.97,2.97,0,0,1-1.295.511l-.013.025q.274.372.557.719t.594.682q.313.335.668.663t.769.663L23.808,12.4a10.079,10.079,0,0,1-.991-.846q-.476-.462-.907-.964T21.1,9.569q-.378-.514-.695-1t-.568-.933q-.251-.443-.427-.8l1.441-.7a2.118,2.118,0,0,0,.476.787.79.79,0,0,0,.535.229.773.773,0,0,0,.346-.08.833.833,0,0,0,.287-.238,1.259,1.259,0,0,0,.2-.384,1.665,1.665,0,0,0,.074-.524,2.846,2.846,0,0,0-.157-.889,3.162,3.162,0,0,0-.456-.883H18.6V2.758H32.852v1.4H23.969a6.329,6.329,0,0,1,.343.791,3.635,3.635,0,0,1,.18.794,4.234,4.234,0,0,1,.424.08,2.911,2.911,0,0,1,.391.118,2.447,2.447,0,0,1,.923-.549,3.5,3.5,0,0,1,1.145-.19,4,4,0,0,1,1.22.176,4.463,4.463,0,0,1,1.008.458,4.577,4.577,0,0,1,.812.638,7.073,7.073,0,0,1,.636.719,7.532,7.532,0,0,1,.476.694q.2.332.336.564ZM41.366,4.15H39.948V12h-1.7V9.612l-.026-.006a3.058,3.058,0,0,1-1.6.465q-.143,0-.4-.025a2.576,2.576,0,0,1-.568-.127,2.9,2.9,0,0,1-.626-.3,2.135,2.135,0,0,1-.577-.552,2.991,2.991,0,0,1-.424-.877,4.279,4.279,0,0,1-.166-1.277V4.15H32.4V2.758h8.974Zm-3.124,0H35.549V7.008a2.622,2.622,0,0,0,.094.772,1.239,1.239,0,0,0,.255.474.83.83,0,0,0,.381.239,1.713,1.713,0,0,0,1.33-.167,2.3,2.3,0,0,0,.639-.667Zm12.923,0H48.984a6.076,6.076,0,0,1,.395.952,3.245,3.245,0,0,1,.148.976,2.767,2.767,0,0,1-.127.846,2.106,2.106,0,0,1-.395.716,2.3,2.3,0,0,1-.681.542,3.238,3.238,0,0,1-.988.322l-.013.025q.274.372.557.719t.594.682q.313.335.668.663t.769.663l-1.076,1.134a10.079,10.079,0,0,1-.991-.846q-.476-.462-.907-.964t-.809-1.016q-.378-.514-.695-1t-.568-.933q-.251-.443-.427-.8l1.441-.7a2.118,2.118,0,0,0,.476.787.79.79,0,0,0,.535.229.773.773,0,0,0,.346-.08.833.833,0,0,0,.287-.238,1.259,1.259,0,0,0,.2-.384,1.665,1.665,0,0,0,.074-.524,2.874,2.874,0,0,0-.157-.893,3.062,3.062,0,0,0-.456-.88H43.61V2.758h7.559ZM48.584,2.929l-.189-.335q-.339-.607-.594-1.035a7.914,7.914,0,0,0-.467-.71,3.1,3.1,0,0,0-.388-.44,1.323,1.323,0,0,0-.355-.236,1.236,1.236,0,0,0-.378-.1q-.2-.018-.445-.018H44.432V-1.333h1.213q.515,0,.884.031a2,2,0,0,1,.662.164,1.889,1.889,0,0,1,.557.4,4.777,4.777,0,0,1,.574.745q.309.474.708,1.187t.959,1.736Zm11.545,8.976a5.256,5.256,0,0,1-.594.186q-.3.074-.571.118t-.519.059q-.248.016-.45.016a5.464,5.464,0,0,1-1.842-.316A5.979,5.979,0,0,1,54.442,11a8.837,8.837,0,0,1-1.569-1.649,15.016,15.016,0,0,1-1.417-2.361l1.369-.751a2.2,2.2,0,0,0,.44.679.606.606,0,0,0,.395.183.548.548,0,0,0,.47-.3,1.523,1.523,0,0,0,.189-.812,3.318,3.318,0,0,0-.137-.908,5.416,5.416,0,0,0-.358-.927h-3.11V2.758H63.983v1.4H62.561V12h-1.7V9.451l-.026-.006a2.35,2.35,0,0,1-.76.391A2.737,2.737,0,0,1,57.422,9.2a2.677,2.677,0,0,1-.594-.84A2.519,2.519,0,0,1,56.606,7.3a2.628,2.628,0,0,1,.154-.893,2.193,2.193,0,0,1,1.188-1.28,2.4,2.4,0,0,1,.994-.2,2.767,2.767,0,0,1,1.034.186,3.632,3.632,0,0,1,.858.484l.026-.006V4.15H55.538a5.945,5.945,0,0,1,.346.952A3.677,3.677,0,0,1,56,6.035a3.366,3.366,0,0,1-.088.772,2.248,2.248,0,0,1-.29.694,2.172,2.172,0,0,1-.535.571,2.615,2.615,0,0,1-.821.4V8.5a7.547,7.547,0,0,0,1.076,1.224,5.154,5.154,0,0,0,1.031.729,3.59,3.59,0,0,0,.968.353,4.706,4.706,0,0,0,.89.09,4.376,4.376,0,0,0,.922-.1,6.525,6.525,0,0,0,.975-.3Zm.789-4.892q-.1-.093-.257-.226a2.731,2.731,0,0,0-.358-.251,2.449,2.449,0,0,0-.437-.2,1.493,1.493,0,0,0-.5-.084,1.211,1.211,0,0,0-.493.1,1.1,1.1,0,0,0-.6.616,1.17,1.17,0,0,0,.019.9,1.239,1.239,0,0,0,.278.391,1.342,1.342,0,0,0,.933.366,1.632,1.632,0,0,0,.47-.074,1.347,1.347,0,0,0,.46-.245,1.3,1.3,0,0,0,.349-.449,1.552,1.552,0,0,0,.137-.688Zm7.174-2.864H66.671V12h-1.7V4.15H63.527V2.758h4.565Z" transform="translate(1168.043 271.704)" fill="#333"/>
    <g id="Group_10" data-name="Group 10" transform="translate(1116.002 235.563)">
      <path id="Path_336" data-name="Path 336" d="M504.19,519.391l-19.361-10.749V516.1a3.976,3.976,0,0,0,2.046,3.475l19.362,10.748v-7.456a3.975,3.975,0,0,0-2.045-3.474Z" transform="translate(-484.829 -487.007)" fill="#fcb316"/>
      <path id="Path_337" data-name="Path 337" d="M504.19,581.885l-19.361-10.748v7.456a3.976,3.976,0,0,0,2.046,3.475l19.362,10.749v-7.456a3.976,3.976,0,0,0-2.046-3.477Z" transform="translate(-484.829 -536.764)" fill="#fcb316"/>
      <path id="Path_338" data-name="Path 338" d="M602.751,519.391a3.976,3.976,0,0,0-2.046,3.476v7.456l19.361-10.748a3.976,3.976,0,0,0,2.046-3.476v-7.455Z" transform="translate(-577.089 -487.007)" fill="#fcb316"/>
      <path id="Path_339" data-name="Path 339" d="M600.705,585.361v7.455l19.361-10.749a3.975,3.975,0,0,0,2.046-3.476v-7.455l-19.361,10.748a3.976,3.976,0,0,0-2.046,3.476Z" transform="translate(-577.089 -536.764)" fill="#fcb316"/>
      <circle id="Ellipse_4" data-name="Ellipse 4" cx="7.974" cy="7.974" r="7.974" transform="translate(14.537 11.598)" fill="#fcb316"/>
      <path id="Path_340" data-name="Path 340" d="M592.893,409.83a.616.616,0,0,0,.611-.611v-6.114a.612.612,0,1,0-1.223,0v6.114a.616.616,0,0,0,.611.611Z" transform="translate(-570.383 -402.494)" fill="#fcb316"/>
      <path id="Path_341" data-name="Path 341" d="M548.917,421.185a.612.612,0,1,0,1.06-.611l-3.061-5.295a.616.616,0,0,0-1.06.611Z" transform="translate(-533.358 -412.434)" fill="#fcb316"/>
      <path id="Path_342" data-name="Path 342" d="M512.039,450.155l5.294,3.061a.612.612,0,0,0,.611-1.06l-5.295-3.061a.616.616,0,0,0-.616,1.06Z" transform="translate(-506.254 -439.534)" fill="#fcb316"/>
      <path id="Path_343" data-name="Path 343" d="M647.479,453.275a.607.607,0,0,0,.308-.082l5.294-3.061a.616.616,0,1,0-.611-1.06l-5.294,3.061a.611.611,0,0,0,.308,1.141Z" transform="translate(-613.842 -439.514)" fill="#fcb316"/>
      <path id="Path_344" data-name="Path 344" d="M624.1,421.392a.61.61,0,0,0,.835-.224L628,415.873a.612.612,0,1,0-1.059-.611l-3.061,5.295a.616.616,0,0,0,.224.835Z" transform="translate(-595.473 -412.416)" fill="#fcb316"/>
    </g>
  </g>
</svg>
