<?xml version="1.0" encoding="utf-8"?>
<!-- Generator: Adobe Illustrator 25.4.1, SVG Export Plug-In . SVG Version: 6.00 Build 0)  -->
<svg version="1.1" id="Layer_1" xmlns="http://www.w3.org/2000/svg" xmlns:xlink="http://www.w3.org/1999/xlink" x="0px" y="0px"
	 viewBox="0 0 127 47.1" style="enable-background:new 0 0 127 47.1;" xml:space="preserve">
<style type="text/css">
	.st0{fill-rule:evenodd;clip-rule:evenodd;fill:#1A1818;}
	.st1{fill:#181818;}
</style>
<g>
	<path id="Path_886" class="st0" d="M11.8,5.5h1.9V6h-0.2v2.4H13V7.9c-0.5,0.4-1.1,0.2-1.2-0.6c0-0.8,0.4-1,1-0.9v0.4
		c-0.2,0-0.3,0-0.4,0.2c-0.1,0.2-0.1,0.4,0,0.6c0.1,0.1,0.4,0.2,0.5,0C13,7.4,13,7.4,13,7.3V6h-1.3L11.8,5.5z M23.4,5.5h2.1V6h-0.3
		v2.4h-0.5V7.1h-0.6v0.5h-0.3L23.5,7V6.6h0.2V6h-0.3L23.4,5.5z M24.8,6h-0.6v0.6h0.6V6z M18.8,8.4V6h-0.2V5.5h0.9V6h-0.2v2.4H18.8z
		 M17.8,8.4V7.8c-0.3,0.3-0.8,0.3-1.1,0c-0.3-0.3-0.3-0.7-0.3-1.2c0.3,0,0.5,0,0.5-0.2L17,6h-0.6V5.5h2.1V6h-0.2v2.4H17.8z M17.4,6
		v0.5C17.4,6.8,17.2,7,17,7c0,0.3,0.1,0.5,0.4,0.5c0.2,0,0.4-0.1,0.5-0.3V6L17.4,6z M15.5,8.4V8.1c-0.2,0.1-0.4,0.2-0.7,0.2
		c-0.4,0-0.7-0.3-0.7-0.7c0-0.2,0.1-0.4,0.3-0.5c-0.4-0.5-0.1-1,0.3-1V6h-0.7V5.5h2.2V6h-0.2v2.4H15.5z M15.1,6
		C15.1,6,15.1,6,15.1,6c0,0.2,0,0.4-0.1,0.5c-0.1,0-0.1,0.1-0.2,0.1c-0.1,0-0.2,0-0.2,0.2c0,0.1,0.1,0.2,0.2,0.2c0.1,0,0.2,0,0.3,0
		v0.5c-0.1,0-0.3,0-0.4,0c-0.3,0-0.3,0.5,0.2,0.5c0.2,0,0.4-0.1,0.5-0.3V6L15.1,6z M11,5.5V4.9c0.1-0.5,0.5-0.5,0.9-0.4L12.8,5v0.4
		l-1-0.4c-0.2-0.1-0.4-0.1-0.4,0.1v0.4h0.2V6h-0.2v2.4H11V6h-0.2V5.5H11z M22.3,6.2V5.7c-0.3-0.2-0.8-0.2-1.1,0
		c-0.3,0.2-0.4,0.5-0.3,0.8C21,6.8,21.1,6.9,21.3,7c0.2,0.1,0.3,0.2,0.4,0.3c0.2,0.1,0.3,0.2,0.3,0.5C21.9,8.1,21.5,8,21.2,8
		c-0.1,0-0.3-0.1-0.4-0.2v0.5c0.2,0.1,0.4,0.2,0.6,0.2c0.4,0.1,0.8-0.1,0.9-0.4c0.1-0.2,0.1-0.5,0.1-0.7c-0.1-0.3-0.4-0.5-0.8-0.7
		c-0.4-0.2-0.3-0.6-0.1-0.6C21.8,6,22.1,6,22.3,6.2 M25.2,9V8.6c-0.3-0.1-0.6,0.1-0.7,0.4c0,0.2,0,0.4,0.1,0.5
		c0.2,0.2,0.4,0.3,0.6,0.2V9.2H25c-0.1,0-0.1-0.1-0.1-0.1c0,0,0-0.1,0.1-0.1L25.2,9z M27,6.5h-0.6c-0.1,0-0.2,0-0.3,0.1
		c-0.1,0.1-0.2,0.2-0.3,0.4c-0.1,0.3-0.1,0.6,0,0.9c0.1,0.2,0.2,0.4,0.5,0.4h0.4V8h-0.1c-0.1,0-0.2,0-0.2-0.1
		c-0.1-0.1-0.2-0.3-0.1-0.5c0-0.3,0.2-0.4,0.3-0.4H27v1.4h0.5V6h0.3V5.5h-2.1V6H27L27,6.5z M30.4,6.7V6.2h0.3V6h-0.4V5.5h1.6V6h-0.7
		v0.2c0.1,0,0.1,0,0.2,0.1c0.2,0.1,0.4,0.4,0.4,0.7c0,0.5-0.3,0.7-0.6,0.7C31,7.7,31,7.8,31,7.8c0.1,0.2,0.3,0.4,0.4,0.6h-0.6
		c-0.1-0.2-0.3-0.5-0.4-0.7V7.3l0.5,0c0.4-0.1,0.4-0.5,0-0.6L30.4,6.7z M32,6.6h1.3V6h-1.4V5.5H34V6h-0.2v2.4h-0.5V7.1h-0.6v0.5
		h-0.3L32,7V6.6z M28,5.5h2.1V6h-0.3v2.4h-0.5V7.1h-0.6v0.5h-0.3L28.1,7V6.6h0.2V6H28L28,5.5z M29.3,6h-0.6v0.6h0.6V6z M35.6,6.5
		h-0.6c-0.1,0-0.2,0-0.3,0.1c-0.1,0.1-0.2,0.2-0.3,0.4c-0.1,0.3-0.1,0.6,0,0.9c0.1,0.2,0.2,0.4,0.5,0.4h0.4V8h-0.1
		c-0.1,0-0.2,0-0.3-0.1c-0.1-0.1-0.2-0.3-0.1-0.5C34.7,7.1,34.9,7,35,7h0.5v1.4H36V6h0.3V5.5h-2.1V6h1.4L35.6,6.5z M35.6,5.2h0.5
		l-0.5-0.9H35L35.6,5.2z M33.4,9V8.6c0.2-0.1,0.5,0,0.7,0.2c0.1,0.2,0.1,0.5-0.1,0.7c-0.1,0.1-0.3,0.2-0.4,0.2c-0.2,0-0.5,0-0.7-0.1
		V9.2c0.2,0,0.4,0.1,0.5,0.1c0.1,0,0.1,0,0.2,0C33.7,9.2,33.7,8.9,33.4,9 M24.5,41.9l2.1-0.3v-0.3l-2.7-0.3c-0.6,0-1.2,0-1.7,0.1
		c-0.3,0-0.5,0.1-0.8,0.1c-0.3,0.1-0.5,0.4-0.4,0.7c0.1,0.4,0.3,0.4,0.7,0.5v0.1c-0.3-0.1-0.6,0.1-0.6,0.4c0,0,0,0.1,0,0.1
		c0,0.5,0.5,0.6,1.2,0.7L24,44c0.4,0.1,0.9,0.1,1.3,0l1.3-0.2v-0.3l-2.1,0.3c-0.5,0-0.4-0.7,0.1-0.8l1.9-0.3v-0.3l-2,0.3
		c-0.2,0-0.4-0.1-0.4-0.4C24.1,42.1,24.2,41.9,24.5,41.9L24.5,41.9 M28.7,42.6c0.1,0,0.2-0.1,0.3-0.2c0.3-0.2,0.3-0.7,0.1-0.9
		c0,0,0,0,0,0c-0.2-0.2-0.4-0.3-0.6-0.2h-1.1v2.5h0.6v-1.1h0.2l0.6,1.1h0.7L28.7,42.6z M27.8,42.4h0.3c0.2,0,0.3-0.1,0.3-0.3
		c0-0.2-0.1-0.3-0.3-0.3c0,0,0,0-0.1,0h-0.3L27.8,42.4z M29.6,41.7c0.2-0.1,0.5-0.1,0.7-0.1v2.2h0.6v-2.2c0.2,0,0.4,0,0.6,0.1v-0.4
		h-1.9L29.6,41.7z M15.6,43.8H16l0-1.6l1.4,1.6h0.4v-2.5h-0.3v1.5L16,41.3h-0.3L15.6,43.8z M18.4,43.3c0.1,0.1,0.2,0.2,0.3,0.3
		c0.5,0.3,1,0.4,1.5,0.2c0.1,0,0.2-0.1,0.2-0.1c0-0.1,0-0.1,0-0.2c0-0.1,0-0.1-0.1-0.1c0,0-0.1,0.1-0.2,0.1
		c-0.4,0.2-0.8,0.1-1.1-0.2c-0.4-0.5-0.3-1.2,0.2-1.6c0.1,0,0.1-0.1,0.2-0.1c0.3-0.1,0.5,0,0.8,0.1c0.1,0.2,0.2,0.1,0.2,0
		c0-0.1,0-0.2,0-0.3c0-0.1,0-0.1-0.1-0.1c-0.4-0.1-0.8-0.1-1.2,0c-0.7,0.1-1.1,0.8-1,1.5C18.3,43,18.3,43.1,18.4,43.3 M18.1,38.7
		h0.4V38h-0.8C17.8,38.4,17.9,38.6,18.1,38.7 M19.1,37.7h0.7v-0.2c0-0.1,0-0.1-0.1-0.1h-0.4c-0.1,0-0.2,0-0.2,0.1c0,0,0,0,0,0V37.7z
		 M34.5,37.7h0.7v-0.2c0-0.1,0-0.1-0.1-0.1h-0.4c-0.1,0-0.2,0-0.2,0.1L34.5,37.7z M32.2,37.7V38H34v0.4h-1.1c-0.9,0-0.9,1.4,0,1.5
		h1.7v-0.3h-1.4c-0.4,0-0.4-0.7,0-0.8h1.4V38h0.7v1.8h0.6V38h0.4v-0.3h-0.4v-0.3c0-0.2-0.2-0.4-0.5-0.4h-1c-0.2,0-0.4,0.1-0.4,0.3
		v0.4L32.2,37.7z M29.5,37.7V38H30c0.5,0.1,0.4,0.6,0,0.6l-0.4,0l0,0.3l0.3,0c0.1,0.1,0.2,0.2,0.2,0.4c0.1,0.3,0.2,0.6,0.4,0.6h0.6
		l0.1-0.4h-0.3c-0.2,0-0.1-0.4-0.3-0.6c0.4-0.1,0.5-0.4,0.3-1l0.5,0.1v-0.3L29.5,37.7z M28,37.7V38h0.4v1.9H29V38h0.4v-0.3H28z
		 M26.8,37.7V38h0.3v0.6h-0.5c0.1-0.2,0-0.4,0-0.6c-0.1-0.2-0.3-0.3-0.6-0.3h-0.4c-0.3,0-0.7,0.2-0.7,0.6v0.1h0.5
		c0-0.2,0.1-0.3,0.3-0.3h0.2c0.2,0,0.3,0.1,0.3,0.3c0,0,0,0,0,0.1c-0.1,0.2-0.2,0.2-0.4,0.2h-0.5V39h0.6c0.2,0,0.2,0.1,0.3,0.2v0.2
		c-0.1,0.1-0.2,0.2-0.3,0.2h-0.2c-0.1-0.1-0.2-0.2-0.2-0.3h-0.5v0.2c0,0.2,0.1,0.3,0.3,0.4c0.4,0.1,0.7,0.1,1.1,0
		c0.2-0.1,0.3-0.2,0.4-0.4c0.1-0.2,0-0.4-0.1-0.6c-0.1-0.1,0-0.2,0.1-0.1l0.1,0.2h0.4v0.9h0.5V38h0.2v-0.3L26.8,37.7z M21.5,37.6V38
		h1.7v0.2h-1.2c-0.2,0-0.5,0.1-0.5,0.4v0.2c0,0.2,0.1,0.3,0.3,0.3c0,0,0,0,0,0H23c0.2,0,0.2,0.3,0,0.3h-0.7c-0.1,0-0.2,0-0.2-0.1
		h-0.6v0.9h0.6v-0.5l1.1,0.1c0.2,0,0.4-0.2,0.4-0.5v-0.2c0-0.2-0.2-0.4-0.4-0.4l-1.2,0c-0.1,0-0.1-0.1-0.1-0.1
		c0-0.1,0.1-0.1,0.1-0.1l1.3,0c0.2,0,0.3-0.1,0.3-0.3c0,0,0,0,0,0V38H24v-0.3L21.5,37.6z M23.8,37.5v-0.2h-0.9c-0.2,0-0.2-0.2,0-0.3
		h1v-0.3h-1.2c-0.2,0-0.3,0.1-0.3,0.3v0.2c0,0.2,0.2,0.3,0.3,0.3L23.8,37.5z M18.5,37.6h-2.1V38H17c0.1,0,0.2,0,0.2,0.2v0.3
		c0,0.1-0.1,0.1-0.2,0.1l-0.6,0v0.3l0.2,0c0.2,0.1,0.3,0.3,0.3,0.5c0.1,0.3,0.3,0.5,0.6,0.5h0.4l0.1-0.3l-0.3,0
		c-0.2,0-0.2-0.1-0.3-0.4c0-0.1-0.1-0.1,0-0.1c0.2,0,0.3-0.1,0.4-0.3L18,39l0.6,0v0.9h0.6V38h0.6v1.9h0.6V38h0.4v-0.4h-0.4v-0.3
		c0-0.2-0.2-0.3-0.4-0.3c0,0,0,0,0,0h-1.1c-0.2,0-0.3,0.2-0.3,0.3c0,0,0,0,0,0V37.6z M13.4,38h1.4v0.6H14c-0.2,0-0.4,0.1-0.5,0.3
		c-0.1,0.3,0.1,0.6,0.5,0.5c0.2,0,0.3-0.2,0.4-0.5h0.6v0.9h0.6V38h0.3v-0.4h-2.4L13.4,38z M10.9,38h0.2v1.2c0,0.3,0.1,0.6,0.5,0.6
		h0.9V40h0.6v-0.3c0-0.2-0.2-0.3-0.4-0.3H12c-0.2,0-0.3,0-0.3-0.3v-1c0-0.1,0.1-0.2,0.2-0.2c0,0,0,0,0,0h0.5v1l-0.1,0.2h0.4
		c0.2,0,0.3-0.1,0.3-0.3V38h0.2v-0.4h-2.4L10.9,38z M28.5,23.4c-0.2-0.8-0.5-1.6-0.9-2.3c0,0.8-0.1,1.6-0.3,2.3
		C27.8,23.3,28.2,23.3,28.5,23.4 M23.3,27.7c-0.6-0.4-1.2-0.8-1.7-1.3c-0.2,0.3-0.4,0.7-0.7,0.9C21.7,27.6,22.5,27.7,23.3,27.7
		 M21.8,19.8c-0.2-0.3-0.4-0.7-0.5-1.1c-0.5,0.6-1,1.2-1.3,1.9C20.6,20.2,21.2,20,21.8,19.8 M28.3,24.6c0.2,0,0.3,0.1,0.3,0.3
		c0,0.2-0.1,0.3-0.3,0.3c-0.2,0-0.3-0.1-0.3-0.3C28,24.7,28.1,24.6,28.3,24.6L28.3,24.6 M19.8,26c0.2,0,0.3,0.1,0.3,0.3
		c0,0.2-0.1,0.3-0.3,0.3c-0.2,0-0.3-0.1-0.3-0.3C19.4,26.1,19.6,26,19.8,26L19.8,26 M22.8,17.7c0.2,0,0.3,0.1,0.3,0.3
		c0,0.2-0.1,0.3-0.3,0.3c-0.2,0-0.3-0.1-0.3-0.3C22.5,17.9,22.6,17.7,22.8,17.7L22.8,17.7 M20.8,24.4c0.3-0.4,0.7-0.7,1.2-0.8
		c0.3-0.1,0.7-0.1,1.1-0.1c0.2,0,0.5,0,0.7,0c0.5,1.1,1.6,1.9,2.8,2c0-1.2,0.4-1.8,1.3-1.9c0.5,0,1,0.2,1.4,0.5
		c0.4,0.5,0.6,1.1,0.5,1.7c-0.1,0.8-0.5,1.4-1.1,1.9c-0.2,0.1-0.3,0.2-0.5,0.3c-1.1,0.6-2.2,0.3-3.3-0.1c-0.5-0.2-1-0.5-1.5-0.8
		c-0.6-0.4-1.2-0.9-1.6-1.4c0-0.1-0.1-0.2-0.1-0.3C21.4,25,21.1,24.7,20.8,24.4 M24,20.1c-0.4,0.2-0.8,0.3-1.2,0.2
		c-0.3-0.1-0.7-0.1-1,0.1c-1.9,0.6-3.2,1.5-4.1,2.7c-0.6,0.8-0.7,1.9-0.3,2.8c0.2,0.6,0.7,1.1,1.3,1.5c0.9,0.5,2.2,0.1,2.6-0.9
		c0.1-0.3,0.1-0.6,0-0.9c-0.2-0.5-0.6-0.9-1.1-1.1c0.7-1,1.8-1.5,3-1.5C23.7,22.5,24.4,21.1,24,20.1 M23.9,22.7
		c0.6-1.1,0.7-2.2,0.4-3.1c-1.4,0.8-2.3,0.3-2.6-0.7c-0.3-1,0.3-2.1,1.3-2.3c0,0,0,0,0.1,0c0.5-0.1,1-0.2,1.5-0.1
		c0.5,0.1,0.9,0.3,1.3,0.6c0.7,0.6,1.1,1.4,1.2,2.3c0.3,1.5,0.1,3.1-0.4,4.6c-0.3,0.4-0.5,0.8-0.5,1.3C24.9,24.9,24.3,24,23.9,22.7
		 M24.3,34.5c-0.2,0-0.5,0-0.8,0c-5.8,0-10.6-4.3-11.3-10c-0.1-0.9,0-1.9,0.3-2.7c0.2-0.6,0.4-1.2,0.8-1.7c0.8-1.3,2.2-2.2,3.8-2.4
		c1.2-0.2,2.5,0.2,3.7,1.4c-0.5,0.5-0.8,1.2-1.1,1.8c-0.6,0.3-1.1,0.7-1.5,1.2c-1.2-0.2-2.4,0.5-2.9,1.6c-0.4,0.9-0.5,2-0.2,2.9
		c0.4,1.6,1.4,2.5,2.6,3.5c0.1-0.1,0.2-0.2,0.3-0.3c-0.8-0.6-1.4-1.3-1.8-2.1c-0.6-0.9-0.8-2-0.6-3c0.2-1,0.9-1.7,1.9-1.7
		c-0.2,0.3-0.3,0.7-0.4,1.1c-0.2,0.8-0.1,1.6,0.2,2.3c0.5,1.1,1.7,1.9,2.9,1.5c0.2,0,0.3-0.1,0.5-0.2l0.2,0.1
		c-0.9,2.4,0.3,5.3,3.2,6.7C24.1,34.4,24.2,34.4,24.3,34.5 M33.1,16.9c3.4,5.3,1.9,12.4-3.4,15.8c-0.1,0-0.1,0.1-0.2,0.1
		c-0.8,0.6-1.8,0.9-2.9,0.9c-3.6,0.1-6.1-2.6-5.3-5.9c0.8,0.2,1.6,0.3,2.4,0.3c0.5,0.3,1.1,0.5,1.6,0.6c0.9,2.1,3.6,2.2,5.4,0.4
		c0.7-0.8,1.2-1.7,1.5-2.7c0.1-0.4,0.2-0.9,0.3-1.3l-0.4,0c-0.3,1.8-1.2,3.9-3.1,4.5c-1.1,0.4-2.2,0.1-2.6-0.7c1.8,0,3.2-1,3.5-2.8
		c0.1-1.1-0.2-1.9-1.1-2.4c0-0.1-0.1-0.1-0.1-0.2c1-0.1,1.9-0.6,2.6-1.3c0.9-0.9,1.4-2,1.6-3.2C33.1,18.3,33.2,17.6,33.1,16.9
		 M23.5,11.7c2,0,3.9,0.5,5.6,1.5c0.7,0.4,1.3,0.9,1.8,1.5c0.3,0.5,0.6,1,0.8,1.5c0.5,1.3,0.5,2.8-0.1,4.1c-0.5,1.3-1.7,2.2-3,2.4
		c-0.2-0.8-0.6-1.5-1-2.2c0-0.6-0.1-1.3-0.3-1.9c0.6-0.6,0.8-1.7,0.4-2.7c-0.5-1.2-1.7-2-2.9-2.2c-1.3-0.3-2.7,0-4.2,0.6
		c0,0.1,0.1,0.3,0.1,0.4c1.4-0.6,3-0.8,4.5-0.3c0.9,0.3,1.7,1,1.9,1.9c0.1,0.5,0.1,1-0.2,1.3c-0.6-0.9-1.5-1.5-2.6-1.6
		c-0.2,0-0.4,0-0.7,0c-0.9,0-1.8,0.6-2.2,1.4c0,0.1-0.1,0.1-0.1,0.2c-0.1,0.2-0.1,0.4-0.1,0.6c-0.1,0-0.1,0.1-0.1,0.1
		c-2-2.2-4.8-2.4-7.8-0.4l0,0C15.2,14.1,19.2,11.7,23.5,11.7 M23.5,10.8c6.8,0,12.3,5.5,12.3,12.3c0,6.8-5.5,12.3-12.3,12.3
		c-6.8,0-12.3-5.5-12.3-12.3C11.2,16.3,16.7,10.8,23.5,10.8"/>
	<g>
		<path class="st1" d="M77,19.5c-1.6,0-3.2,0-4.8,0c-0.3,0-0.3-0.1-0.2-0.3c1.4-2.4,3.4-3.8,6.2-4.2c1.2-0.2,2.5,0,3.7-0.1
			c0.2,0,0.2,0.1,0.2,0.3c0,1.4,0,2.7,0,4.1c0,0.3-0.2,0.3-0.4,0.3C80.1,19.5,78.5,19.5,77,19.5z"/>
		<path class="st1" d="M56.7,19.5c-0.7,0-1.3,0-2,0c-2.1,0-4.3,0-6.4,0c-0.4,0-0.5-0.1-0.5-0.5c0-1.2,0-2.3,0-3.5
			c0-0.3,0.1-0.4,0.4-0.4c1.8,0,3.7,0,5.5,0c0.2,0,0.3,0,0.5,0.2C55,16.7,55.8,18,56.7,19.5z"/>
		<path class="st1" d="M67.5,19.5c-0.8,0-1.6,0-2.4,0c-0.2,0-0.3-0.1-0.3-0.3c0-1.3,0-2.5,0-3.8c0-0.2,0.1-0.3,0.3-0.3
			c1.6,0,3.2,0,4.7,0c0.2,0,0.3,0.1,0.3,0.3c0,1.3,0,2.5,0,3.8c0,0.3-0.1,0.3-0.3,0.3C69.1,19.5,68.3,19.5,67.5,19.5z"/>
		<path class="st1" d="M63.4,22.3c-0.1,0.1-0.2,0.1-0.4,0.1c-4.9,0-9.8,0-14.8,0c-0.3,0-0.4-0.1-0.4-0.4c0-0.5,0-1.1,0-1.6
			c0-0.2,0-0.3,0.3-0.3c2.9,0,5.8,0,8.7,0c0.2,0,0.3,0.1,0.4,0.2c0.3,0.5,0.6,1,0.9,1.5c0.1,0.1,0.1,0.3,0.3,0.3
			c0.1,0.2,0.3,0.1,0.4,0.1C60.4,22.3,61.9,22.3,63.4,22.3z"/>
		<path class="st1" d="M60.9,15.1c0.7,0,1.5,0,2.2,0c0.2,0,0.3,0.1,0.3,0.3c0,1.3,0,2.5,0,3.8c0,0.2-0.1,0.3-0.3,0.3
			c-1.5,0-3,0-4.6,0c-0.2,0-0.3-0.1-0.3-0.3c0-1.3,0-2.6,0-3.9c0-0.2,0.1-0.3,0.3-0.3C59.3,15.1,60.1,15.1,60.9,15.1z"/>
		<path class="st1" d="M47.9,23c0.1-0.1,0.2,0,0.4,0c4.9,0,9.7,0,14.6,0c0.3,0,0.5,0.1,0.5,0.4c0,0.3,0,0.7,0.1,1
			c0,0.3-0.1,0.4-0.4,0.4c-1.8,0-3.7,0-5.5,0c-1,0-2,0-3,0c-0.4,0-0.6-0.1-0.7-0.4c-0.2-0.4-0.4-0.9-0.8-1.2
			C52.9,23,52.8,23,52.6,23C51,23,49.5,23,47.9,23z"/>
		<path class="st1" d="M77.6,20.1c-0.6,0.6-1,1.3-1.1,2.1c0,0.2-0.2,0.2-0.3,0.2c-1.4,0-2.7,0-4.1,0c-0.2,0-0.5,0-0.7,0
			c-0.2,0-0.3-0.1-0.2-0.3c0.1-0.6,0.2-1.2,0.4-1.8c0.1-0.2,0.1-0.2,0.3-0.2C73.7,20.1,75.6,20.1,77.6,20.1z"/>
		<path class="st1" d="M76.9,25.3c1.6,0,3.2,0,4.9,0c0.3,0,0.4,0.1,0.4,0.4c0,0.8,0,0.8-0.8,0.8c-2.9,0-5.7,0-8.6,0
			c-0.3,0-0.5-0.1-0.7-0.4c-0.4-0.8-0.4-0.8,0.5-0.8C74,25.3,75.4,25.3,76.9,25.3z"/>
		<path class="st1" d="M67.5,20.1c0.8,0,1.5,0,2.3,0c0.2,0,0.3,0,0.3,0.3c0,0.6,0,1.1,0,1.7c0,0.2-0.1,0.3-0.3,0.3
			c-1.6,0-3.1,0-4.7,0c-0.2,0-0.3,0-0.3-0.3c0-0.6,0-1.2,0-1.7c0-0.2,0.1-0.3,0.3-0.3C65.9,20.1,66.7,20.1,67.5,20.1z"/>
		<path class="st1" d="M63.4,22.3c-1.5,0-3,0-4.5,0c-0.2,0-0.3,0-0.4-0.1c0-0.6-0.1-1.2-0.1-1.8c0-0.2,0-0.3,0.3-0.3
			c1.5,0,3,0,4.5,0c0.2,0,0.3,0,0.3,0.2C63.4,21,63.4,21.6,63.4,22.3z"/>
		<path class="st1" d="M54.5,25.4c0.1-0.1,0.3-0.1,0.4-0.1c2.7,0,5.4,0,8.1,0c0.4,0,0.4,0.1,0.4,0.4c0,0.8,0,0.8-0.8,0.8
			c-2.3,0-4.7,0-7,0c-0.2,0-0.4-0.1-0.5-0.3C54.9,25.9,54.7,25.7,54.5,25.4z"/>
		<path class="st1" d="M77.6,24.7c-0.3,0-0.5,0-0.7,0c-1.7,0-3.4,0-5,0c-0.3,0-0.4-0.1-0.5-0.4c0-0.4-0.1-0.8-0.2-1.1
			c0-0.3,0.1-0.3,0.3-0.3c1.6,0,3.2,0,4.8,0c0.1,0,0.3,0,0.3,0.1C76.7,23.7,77.1,24.2,77.6,24.7z"/>
		<path class="st1" d="M87.5,18c0-0.8,0-1.6,0-2.4c0-0.4,0.2-0.4,0.5-0.4c0.3,0,0.4,0,0.4,0.4c0,1.2,0,2.4,0,3.6
			c0,0.3-0.1,0.4-0.4,0.4c-0.4,0-0.6-0.1-0.8-0.5c-0.4-0.8-0.9-1.6-1.4-2.4c-0.1,0.1-0.1,0.2-0.1,0.3c0,0.8,0,1.6,0,2.4
			c0,0.4-0.2,0.3-0.4,0.3c-0.2,0-0.4,0.1-0.4-0.3c0-1.3,0-2.5,0-3.8c0-0.2,0.1-0.3,0.3-0.3c0.5,0,0.8,0.1,1,0.6
			C86.5,16.5,87,17.2,87.5,18C87.5,18,87.5,18,87.5,18z"/>
		<path class="st1" d="M98.8,21.7c0.6-0.6,1.1-0.6,1.7-0.1c0.1,0.1,0.2,0,0.2,0c0.4-0.4,0.8-0.4,1.3-0.2c0.4,0.2,0.6,0.6,0.5,1.1
			c0,0.6,0,1.2,0,1.9c0,0.2-0.1,0.3-0.3,0.3c-0.7,0-0.6,0-0.6-0.6c0-0.5,0-1,0-1.4c0-0.3-0.1-0.6-0.5-0.6c-0.3,0-0.5,0.2-0.5,0.6
			c0,0.6,0,1.1,0,1.7c0,0.2-0.1,0.3-0.3,0.3c-0.6,0-0.6,0-0.6-0.6c0-0.5,0-1,0-1.4c0-0.3-0.1-0.5-0.5-0.5c-0.4,0-0.5,0.2-0.5,0.6
			c0,0.6,0,1.1,0,1.7c0,0.5-0.3,0.3-0.5,0.3c-0.3,0-0.4,0-0.4-0.3c0-0.8,0-1.7,0-2.5c0-0.2-0.1-0.4,0.2-0.4
			C98.4,21.4,98.8,21.1,98.8,21.7z"/>
		<path class="st1" d="M67.5,24.7c-0.8,0-1.6,0-2.4,0c-0.2,0-0.3-0.1-0.3-0.3c0-0.4,0-0.8,0-1.3c0-0.2,0-0.3,0.2-0.3
			c1.6,0,3.2,0,4.8,0c0.2,0,0.3,0.1,0.3,0.2c0,0.4,0,0.9,0,1.3c0,0.2-0.1,0.2-0.3,0.2C69.1,24.7,68.3,24.7,67.5,24.7z"/>
		<path class="st1" d="M47.9,23c1.6,0,3.1,0,4.7,0c0.2,0,0.3,0,0.4,0.2c0,0.5,0.1,0.9,0.1,1.4c0,0.2,0,0.2-0.2,0.2
			c-1.6,0-3.2,0-4.8,0c-0.1,0-0.2,0-0.2-0.2C47.9,24,47.8,23.5,47.9,23z"/>
		<path class="st1" d="M84.7,27.8c0-0.4,0-0.9,0.2-1.3c0.3-0.7,0.9-1.2,1.8-1.2c0.9,0,1.5,0.4,1.8,1.1c0.2,0.4,0.2,0.5-0.3,0.5
			c-0.3,0-0.5,0-0.7-0.4c-0.3-0.5-1.2-0.5-1.5,0.1c-0.4,0.7-0.4,1.4-0.1,2c0.2,0.4,0.5,0.5,0.9,0.5c0.4,0,0.6-0.2,0.8-0.6
			c0.1-0.2,0.8-0.4,0.9-0.2c0.1,0.1,0,0.2,0,0.3c-0.2,0.8-0.9,1.3-1.8,1.3c-0.9,0-1.6-0.5-1.9-1.4C84.7,28.3,84.7,28.1,84.7,27.8z"
			/>
		<path class="st1" d="M72.7,27.1c1,0,2,0,2.9,0c2,0,4.1,0,6.1,0c0.3,0,0.3,0.2,0.3,0.4c0,0.2,0.1,0.5-0.3,0.4c-2.7,0-5.4,0-8.1,0
			C73.1,28,73,27.5,72.7,27.1z"/>
		<path class="st1" d="M106.2,19.5c-0.3,0.1-0.7,0.1-0.9,0c-0.3-0.4-0.5,0-0.7,0c-0.4,0.1-0.9,0.1-1.2-0.2c-0.3-0.3-0.3-0.6-0.2-1
			c0.1-0.4,0.4-0.6,0.8-0.7c0.3-0.1,0.6-0.1,0.9-0.2c0.2,0,0.3-0.1,0.3-0.3c0-0.2-0.2-0.3-0.3-0.3c-0.3,0-0.6-0.1-0.7,0.3
			c0,0.1-0.7,0.2-0.8,0.1c-0.1-0.2,0-0.3,0-0.5c0.3-0.6,0.8-0.6,1.3-0.6c0.2,0,0.4,0,0.6,0.1c0.6,0.1,0.8,0.4,0.8,1
			c0,0.4,0,0.9,0,1.3C105.9,18.9,105.9,19.2,106.2,19.5z M104.4,19c0.2,0,0.4-0.1,0.5-0.2c0.2-0.2,0.3-0.5,0.2-0.7
			c-0.1-0.2-0.3,0-0.4,0c-0.1,0-0.3,0-0.4,0.1c-0.2,0.1-0.3,0.2-0.3,0.5C104,18.9,104.2,19,104.4,19z"/>
		<path class="st1" d="M102.1,28.5c-0.3,0-0.6,0-0.9,0c-0.3,0-0.3,0.1-0.2,0.3c0.2,0.5,0.8,0.6,1.2,0.3c0.3-0.3,0.6-0.2,0.9-0.2
			c0.2,0,0.1,0.1,0.1,0.2c-0.1,0.2-0.2,0.3-0.3,0.4c-0.5,0.5-1.3,0.6-2,0.2c-0.7-0.3-0.9-0.9-0.8-1.9c0.1-0.7,0.5-1.2,1.2-1.3
			c1.1-0.3,2.1,0.5,2,1.6c0,0.2-0.1,0.3-0.3,0.3C102.7,28.4,102.4,28.5,102.1,28.5z M101.7,27.9c0.2,0,0.3,0,0.5,0
			c0.3,0,0.3-0.1,0.2-0.3c-0.2-0.4-0.8-0.5-1.1-0.1c-0.1,0.1-0.2,0.2-0.2,0.4c0,0.1,0.2,0.1,0.3,0.1
			C101.4,27.9,101.6,27.9,101.7,27.9z"/>
		<path class="st1" d="M90.9,28.5c-0.3,0-0.6,0-0.9,0c-0.2,0-0.2,0.1-0.2,0.3c0.2,0.5,0.9,0.7,1.2,0.3c0.3-0.3,0.6-0.2,0.9-0.2
			c0.2,0,0.1,0.1,0.1,0.2c-0.1,0.2-0.2,0.3-0.3,0.5c-0.5,0.5-1.3,0.5-2,0.2c-0.6-0.3-0.9-0.9-0.8-1.9c0.1-0.7,0.5-1.2,1.2-1.3
			c1.1-0.3,2.1,0.5,2,1.6c0,0.2-0.1,0.3-0.3,0.3C91.5,28.4,91.2,28.5,90.9,28.5z M90.5,27.9c0.1,0,0.2,0,0.2,0
			c0.2,0,0.4,0.1,0.4-0.1c0-0.2-0.1-0.4-0.4-0.5c-0.3-0.1-0.6-0.1-0.8,0.2c-0.1,0.1-0.2,0.2-0.1,0.4c0.1,0.1,0.2,0.1,0.3,0.1
			C90.2,27.9,90.4,27.9,90.5,27.9z"/>
		<path class="st1" d="M105.1,24.3c-0.4,0.3-0.8,0.5-1.3,0.4c-0.4-0.1-0.7-0.4-0.7-0.8c0-0.5,0.2-0.8,0.6-1c0.3-0.1,0.6-0.1,0.9-0.2
			c0.2,0,0.5,0,0.5-0.3c0-0.3-0.3-0.3-0.5-0.3c-0.2,0-0.3,0-0.4,0.2c-0.2,0.4-0.5,0.2-0.8,0.3c-0.2,0-0.1-0.1-0.1-0.2
			c0.1-0.4,0.3-0.6,0.6-0.8c0.4-0.1,0.8-0.2,1.1-0.1c0.8,0.1,1,0.4,1,1.2c0,0.5,0,1,0,1.4c0,0.1,0,0.2,0,0.2
			c-0.1,0.2,0.3,0.3,0.1,0.4C105.7,24.7,105.2,24.5,105.1,24.3z M104.3,24c0.5,0,0.8-0.4,0.8-0.8c0-0.1,0-0.2-0.1-0.1
			c-0.3,0.1-0.5,0.1-0.8,0.2c-0.2,0.1-0.3,0.2-0.2,0.5C104,24,104.2,24,104.3,24z"/>
		<path class="st1" d="M99.1,18c0,1.1-0.7,1.7-1.7,1.7c-1,0-1.7-0.7-1.6-1.8c0-1.1,0.7-1.7,1.8-1.7C98.5,16.2,99.1,16.9,99.1,18z
			 M96.7,18c0,0.1,0,0.2,0,0.3c0.1,0.5,0.3,0.6,0.7,0.6c0.4,0,0.6-0.2,0.7-0.7c0.1-0.3,0-0.5,0-0.8c-0.1-0.3-0.3-0.5-0.7-0.5
			C97,16.9,96.7,17.3,96.7,18z"/>
		<path class="st1" d="M93.5,24.7c-1,0-1.7-0.6-1.7-1.7c0-1.1,0.6-1.7,1.7-1.7c1,0,1.7,0.7,1.6,1.7C95.1,24,94.5,24.7,93.5,24.7z
			 M92.7,23c0,0.2,0,0.5,0.1,0.7c0.2,0.2,0.4,0.3,0.7,0.3c0.3,0,0.5-0.1,0.6-0.4c0.2-0.4,0.2-0.8,0-1.2C94,22.1,93.8,22,93.5,22
			c-0.3,0-0.5,0.1-0.7,0.4C92.7,22.6,92.7,22.8,92.7,23z"/>
		<path class="st1" d="M91.8,18.1c0.1,0.4-0.1,0.9,0.2,1.3c0.1,0.1,0,0.2-0.1,0.1c-0.3-0.1-0.7,0.2-0.9-0.2c0-0.1-0.2,0-0.2,0.1
			c-0.3,0.2-0.7,0.3-1.1,0.2c-0.5-0.1-0.7-0.4-0.8-0.8c-0.1-0.5,0.1-0.9,0.6-1.1c0.3-0.1,0.6-0.1,0.9-0.2c0.2,0,0.5,0,0.6-0.3
			c0-0.1-0.1-0.3-0.2-0.3c-0.3-0.1-0.6-0.1-0.7,0.1c-0.2,0.3-0.4,0.2-0.6,0.3c-0.3,0-0.4-0.1-0.3-0.4c0.2-0.5,0.7-0.8,1.4-0.8
			c0.1,0,0.3,0,0.4,0c0.7,0.1,0.9,0.4,0.9,1.1C91.8,17.6,91.8,17.8,91.8,18.1z M90.9,18.3c0-0.1,0.1-0.3-0.1-0.2
			c-0.3,0-0.5,0.1-0.8,0.2c-0.2,0.1-0.3,0.2-0.2,0.4c0,0.2,0.2,0.3,0.4,0.3C90.6,19,90.9,18.7,90.9,18.3z"/>
		<path class="st1" d="M114.8,24.7c-0.2,0-0.5,0-0.8-0.1c-0.3-0.1-0.6-0.3-0.7-0.6c-0.1-0.4-0.1-0.4,0.3-0.4c0.3,0,0.5,0,0.6,0.3
			c0.1,0.2,0.8,0.2,1,0.1c0.2-0.1,0.2-0.3-0.1-0.4c-0.3-0.1-0.7-0.2-1-0.3c-0.6-0.2-0.8-0.4-0.8-0.9c0-0.5,0.3-0.9,0.8-1
			c0.5-0.1,0.9-0.1,1.4,0.1c0.2,0.1,0.3,0.2,0.4,0.3c0.1,0.2,0.3,0.4,0.1,0.6c-0.1,0.1-0.7,0-0.8-0.2c-0.2-0.2-0.7-0.3-0.9-0.1
			c-0.2,0.1-0.2,0.3,0,0.4c0.2,0.1,0.4,0.1,0.6,0.2c0.2,0.1,0.4,0.1,0.6,0.2c0.4,0.2,0.7,0.4,0.7,0.9c0,0.4-0.2,0.8-0.7,1
			C115.3,24.7,115.1,24.7,114.8,24.7z"/>
		<path class="st1" d="M67.5,26.5c-0.8,0-1.6,0-2.4,0c-0.2,0-0.3-0.1-0.3-0.3c0-0.9,0-0.9,0.9-0.9c1.3,0,2.7,0,4,0
			c0.3,0,0.4,0.1,0.4,0.4c0,0.8,0,0.8-0.8,0.8C68.7,26.5,68.1,26.5,67.5,26.5z"/>
		<path class="st1" d="M50.5,26.5c-0.8,0-1.6,0-2.4,0c-0.2,0-0.3,0-0.3-0.3c0-0.9,0-0.9,0.9-0.9c1.3,0,2.7,0,4,0
			c0.3,0,0.4,0.1,0.4,0.4c0,0.8,0,0.8-0.8,0.8C51.8,26.5,51.2,26.5,50.5,26.5z"/>
		<path class="st1" d="M93.3,27c0.3-0.3,0.6-0.5,1-0.4c0.7,0,1,0.4,1.1,1c0,0.7,0,1.4,0,2c0,0.2-0.1,0.3-0.2,0.2c-0.1,0-0.3,0-0.4,0
			c-0.2,0-0.3-0.1-0.3-0.3c0-0.6,0-1.1,0-1.7c0-0.3-0.1-0.6-0.4-0.6c-0.3,0-0.6,0.1-0.7,0.5c-0.1,0.6,0,1.1-0.1,1.7
			c0,0.1,0.1,0.4-0.1,0.4c-0.2,0-0.5,0-0.7,0c-0.1,0-0.1-0.1-0.1-0.2c0-0.9,0-1.8,0-2.7c0-0.2,0.1-0.3,0.3-0.3
			C92.9,26.7,93.3,26.4,93.3,27z"/>
		<path class="st1" d="M87.3,21.7c0.3-0.4,0.6-0.5,1.1-0.5c0.6,0,1,0.4,1,1c0,0.7,0,1.3,0,2c0,0.2-0.1,0.3-0.3,0.3
			c-0.7,0-0.6,0-0.6-0.6c0-0.5,0-0.9,0-1.4c0-0.4-0.2-0.7-0.5-0.6c-0.4,0-0.6,0.2-0.6,0.6c0,0.5,0,1.1,0,1.6c0,0.5-0.3,0.3-0.5,0.3
			c-0.3,0-0.4,0-0.4-0.3c0-0.8,0-1.7,0-2.5c0-0.2-0.1-0.4,0.2-0.4C87.2,21.3,87.2,21.3,87.3,21.7z"/>
		<path class="st1" d="M100.5,16.7c0.4-0.4,0.8-0.5,1.2-0.4c0.5,0.1,0.8,0.4,0.8,0.9c0,0.7,0,1.4,0,2.2c0,0.2-0.1,0.2-0.2,0.2
			c-0.6,0-0.6,0.1-0.6-0.6c0-0.5,0-1,0-1.4c0-0.5-0.5-0.7-0.9-0.5c-0.2,0.1-0.3,0.4-0.3,0.6c0,0.5,0,1,0,1.5c0,0.4-0.2,0.4-0.5,0.4
			c-0.3,0-0.5,0-0.4-0.4c0-0.8,0-1.6,0-2.5c0-0.2-0.1-0.4,0.2-0.4C100.1,16.4,100.5,16.1,100.5,16.7z"/>
		<path class="st1" d="M55.7,27.1c0.1,0,0.2,0,0.3,0c2.3,0,4.6,0,7,0c0.4,0,0.4,0.2,0.4,0.4c0,0.3-0.1,0.4-0.4,0.4c-2,0-4.1,0-6.1,0
			C56.1,28,56,27.9,55.7,27.1z"/>
		<path class="st1" d="M110.9,23c0,0.2,0,0.3,0.1,0.5c0.1,0.3,0.3,0.4,0.5,0.4c0.3,0,0.4-0.1,0.5-0.4c0.1-0.2,0.7-0.3,0.9-0.2
			c0.1,0.1,0,0.2,0,0.3c-0.1,0.5-0.6,0.9-1.2,1c-0.8,0.1-1.3-0.2-1.6-0.7c-0.3-0.6-0.3-1.2,0-1.8c0.3-0.6,0.8-0.9,1.6-0.8
			c0.6,0.1,1,0.4,1.2,0.9c0.1,0.2,0.1,0.4-0.3,0.4c-0.3,0-0.6,0.1-0.7-0.3c-0.1-0.3-0.7-0.2-0.9,0.1C110.9,22.5,110.9,22.8,110.9,23
			z"/>
		<path class="st1" d="M74.1,28.5c2.6,0,5.1,0,7.7,0c0.3,0,0.3,0.1,0.3,0.3c0,0.2-0.1,0.3-0.3,0.3c-2.2,0-4.5,0-6.7,0
			C74.7,29.1,74.4,28.8,74.1,28.5z"/>
		<path class="st1" d="M97.1,29.9c-0.7,0-0.9-0.2-0.9-0.9c0-0.5,0-1,0-1.4c0-0.2,0-0.3-0.2-0.3c-0.3,0-0.2-0.2-0.2-0.3
			c0-0.2,0-0.3,0.2-0.3c0.3,0,0.2-0.2,0.2-0.4c0-0.5,0.3-0.7,0.8-0.5c0.2,0.1,0.1,0.2,0.1,0.3c0,0.3-0.1,0.6,0.4,0.6
			c0.2,0,0.1,0.2,0.1,0.4c0,0.2,0,0.3-0.2,0.2c-0.3,0-0.3,0.1-0.3,0.3c0,0.4,0,0.9,0,1.3c0,0.2,0,0.3,0.2,0.3c0.4,0,0.3,0.2,0.3,0.4
			c0,0.3-0.2,0.2-0.4,0.2C97.1,29.9,97.1,29.9,97.1,29.9z"/>
		<path class="st1" d="M90.2,23.3c0-0.3,0-0.6,0-0.9c0-0.2,0-0.4-0.3-0.4c-0.2,0-0.1-0.2-0.1-0.3c0-0.1,0-0.3,0.2-0.3
			c0.3,0,0.3-0.1,0.3-0.3c0-0.6,0.7-1.1,1.3-0.8c0.2,0.1,0.1,0.3,0.1,0.5c0,0.1,0,0.2-0.2,0.2c0,0-0.1,0-0.1,0
			c-0.2,0-0.2,0.1-0.2,0.3c0,0.2,0.1,0.2,0.3,0.2c0.2,0,0.3,0.1,0.3,0.3c0,0.2,0,0.3-0.3,0.3c-0.2,0-0.3,0.1-0.3,0.3
			c0,0.7,0,1.3,0,2c0,0.4-0.2,0.3-0.4,0.3c-0.2,0-0.5,0.1-0.4-0.3C90.2,24,90.2,23.6,90.2,23.3z"/>
		<path class="st1" d="M50.6,28c-0.8,0-1.6,0-2.4,0c-0.4,0-0.3-0.2-0.3-0.4c0-0.2,0-0.4,0.3-0.4c1.6,0,3.2,0,4.7,0
			c0.5,0,0.3,0.4,0.3,0.6c0.1,0.3-0.1,0.3-0.3,0.3C52.1,28,51.3,28,50.6,28z"/>
		<path class="st1" d="M106.7,23.1c0-0.2,0-0.5,0-0.7c0-0.2,0-0.4-0.3-0.4c-0.2,0-0.2-0.2-0.1-0.3c0-0.1-0.1-0.3,0.1-0.3
			c0.3,0,0.3-0.2,0.3-0.4c0-0.2-0.1-0.4,0.1-0.4c0.2-0.1,0.5-0.1,0.7,0c0.2,0,0.1,0.2,0.1,0.4c0,0.2-0.1,0.5,0.4,0.5
			c0.2,0,0.1,0.2,0.1,0.4c0,0.1,0,0.3-0.2,0.3c-0.3,0-0.3,0.1-0.3,0.4c0,0.4,0,0.8,0,1.2c0,0.2,0,0.3,0.2,0.3c0.4,0,0.3,0.2,0.3,0.4
			c0,0.3-0.2,0.2-0.4,0.2c-0.1,0-0.2,0-0.3,0c-0.5,0-0.6-0.2-0.7-0.7C106.7,23.6,106.7,23.4,106.7,23.1
			C106.7,23.1,106.7,23.1,106.7,23.1z"/>
		<path class="st1" d="M67.5,28c-0.8,0-1.5,0-2.3,0c-0.4,0-0.3-0.2-0.3-0.4c0-0.2,0-0.4,0.3-0.4c1.6,0,3.1,0,4.7,0
			c0.3,0,0.4,0.1,0.3,0.4c0,0.2,0.1,0.5-0.3,0.5C69.1,27.9,68.3,28,67.5,28z"/>
		<path class="st1" d="M92.5,18c0-0.2,0-0.5,0-0.7c0-0.2,0-0.4-0.3-0.4c-0.2,0-0.2-0.2-0.2-0.3c0-0.1-0.1-0.3,0.1-0.3
			c0.3,0,0.3-0.2,0.3-0.4c0-0.5,0.2-0.7,0.7-0.5c0.1,0,0.2,0.1,0.2,0.2c0,0.1,0,0.3,0,0.4c0,0.2,0,0.3,0.3,0.3
			c0.3,0,0.3,0.1,0.3,0.3c0,0.2,0,0.3-0.3,0.3c-0.2,0-0.3,0-0.3,0.3c0,0.4,0,0.9,0,1.3c0,0.2,0.1,0.4,0.3,0.3c0.3,0,0.2,0.2,0.2,0.4
			c0,0.2,0,0.3-0.2,0.3c-0.2,0-0.4,0-0.5,0c-0.4-0.1-0.6-0.3-0.6-0.7c0,0,0,0,0,0C92.5,18.5,92.5,18.3,92.5,18z"/>
		<path class="st1" d="M56.6,28.5c0.7,0,1.3,0,1.9,0c1.5,0,3.1,0,4.6,0c0.2,0,0.3,0,0.3,0.3c0,0.3-0.1,0.3-0.3,0.3
			c-1.9,0-3.9,0-5.8,0C56.8,29.2,56.8,28.8,56.6,28.5z"/>
		<path class="st1" d="M85.7,22.4c0,0.6,0,1.2,0,1.9c0,0.2-0.1,0.4-0.3,0.3c0,0-0.1,0-0.1,0c-0.6,0-0.5,0.1-0.5-0.5
			c0-1.2,0-2.3,0-3.5c0-0.3,0.1-0.4,0.4-0.4c0.7,0,0.6-0.1,0.6,0.6C85.7,21.3,85.7,21.9,85.7,22.4z"/>
		<path class="st1" d="M107.5,17.4c0,0.6,0,1.2,0,1.8c0,0.2-0.1,0.3-0.3,0.3c-0.7,0-0.6,0.1-0.6-0.6c0-1.1,0-2.3,0-3.4
			c0-0.4,0.2-0.4,0.5-0.4c0.3,0,0.5,0,0.4,0.4C107.5,16.2,107.5,16.8,107.5,17.4z"/>
		<path class="st1" d="M96.5,21.8c0.2-0.2,0.4-0.4,0.8-0.5c0.2,0,0.3,0,0.3,0.3c0,0.1,0,0.2,0,0.3c0,0.3,0,0.3-0.3,0.3
			c-0.5,0-0.7,0.3-0.7,0.7c0,0.5,0,0.9,0,1.4c0,0.2-0.1,0.3-0.3,0.3c-0.1,0-0.2,0-0.3,0c-0.2,0-0.3-0.1-0.3-0.3c0-0.9,0-1.8,0-2.7
			c0-0.2,0.1-0.3,0.3-0.2C96.1,21.4,96.6,21.2,96.5,21.8z"/>
		<path class="st1" d="M98.8,27.1c0.1-0.2,0.2-0.3,0.3-0.3c0.2-0.2,0.5-0.3,0.7-0.2c0.2,0.1,0.1,0.5,0.1,0.7c0,0.1-0.1,0.1-0.2,0.1
			c-0.6,0.1-0.8,0.2-0.8,0.9c0,0.4,0,0.8,0,1.2c0,0.4-0.2,0.4-0.5,0.4c-0.4,0-0.4-0.1-0.4-0.4c0-0.8,0-1.6,0-2.4
			c0-0.2-0.1-0.5,0.2-0.4C98.5,26.6,98.9,26.4,98.8,27.1z"/>
		<path class="st1" d="M50.6,29.1c-0.8,0-1.6,0-2.4,0c-0.2,0-0.3,0-0.3-0.3c0-0.2,0.1-0.3,0.3-0.3c1.6,0,3.2,0,4.8,0
			c0.3,0,0.3,0.1,0.3,0.3c0,0.3-0.1,0.3-0.3,0.3C52.2,29.1,51.4,29.1,50.6,29.1z"/>
		<path class="st1" d="M67.5,28.5c0.8,0,1.6,0,2.4,0c0.2,0,0.3,0.1,0.3,0.3c0,0.2-0.1,0.3-0.3,0.3c-1.6,0-3.2,0-4.7,0
			c-0.2,0-0.3-0.1-0.3-0.3c0-0.2,0-0.3,0.3-0.3C65.9,28.6,66.7,28.5,67.5,28.5z"/>
		<path class="st1" d="M95.4,17.9c0,0.4,0,0.9,0,1.3c0,0.2,0,0.3-0.3,0.3c-0.1,0-0.3,0-0.4,0c-0.2,0-0.2-0.1-0.2-0.2
			c0-0.9,0-1.8,0-2.7c0-0.2,0.1-0.3,0.2-0.3c0.1,0,0.3,0,0.4,0c0.2,0,0.2,0.1,0.2,0.3C95.4,17,95.4,17.5,95.4,17.9z"/>
		<path class="st1" d="M109.5,23c0,0.4,0,0.9,0,1.3c0,0.2-0.1,0.3-0.3,0.3c-0.7,0-0.6,0.1-0.6-0.6c0-0.8,0-1.6,0-2.3
			c0-0.4,0.2-0.3,0.4-0.3c0.2,0,0.5-0.1,0.4,0.3C109.5,22.1,109.5,22.5,109.5,23z"/>
		<path class="st1" d="M57.4,29.8c0.1-0.1,0.2-0.1,0.3-0.1c1.8,0,3.5,0,5.3,0c0.1,0,0.4-0.1,0.4,0.2c0,0.3-0.2,0.2-0.4,0.2
			c-1.7,0-3.4,0-5.1,0C57.7,30.2,57.5,30.1,57.4,29.8z"/>
		<path class="st1" d="M50.6,29.8c0.8,0,1.6,0,2.4,0c0.1,0,0.3-0.1,0.3,0.2c0,0.3-0.2,0.2-0.3,0.2c-1.6,0-3.2,0-4.9,0
			c-0.1,0-0.3,0.1-0.3-0.2c0-0.3,0.2-0.2,0.3-0.2C49,29.8,49.8,29.8,50.6,29.8z"/>
		<path class="st1" d="M67.5,29.8c0.8,0,1.6,0,2.4,0c0.1,0,0.3,0,0.3,0.2c0,0.2-0.1,0.2-0.3,0.2c-1.6,0-3.2,0-4.7,0
			c-0.1,0-0.3,0-0.3-0.2c0-0.2,0.1-0.2,0.3-0.2C65.9,29.8,66.7,29.8,67.5,29.8z"/>
		<path class="st1" d="M76.3,29.8c1.9,0,3.7,0,5.6,0c0.1,0,0.2,0,0.2,0.2c0,0.2-0.1,0.2-0.2,0.2c-1.6,0-3.1,0-4.7,0
			C76.9,30.1,76.6,29.9,76.3,29.8z"/>
		<path class="st1" d="M109.1,20.2c0.4-0.1,0.5,0,0.5,0.4c0,0.4-0.2,0.4-0.5,0.4c-0.3,0-0.4-0.1-0.4-0.4
			C108.7,20.3,108.8,20.1,109.1,20.2z"/>
		<path class="st1" d="M95,15.9c-0.3,0-0.5,0-0.5-0.4c0-0.4,0.1-0.4,0.4-0.4c0.3,0,0.5,0,0.5,0.4C95.4,15.9,95.3,16,95,15.9z"/>
	</g>
</g>
</svg>
