<svg xmlns="http://www.w3.org/2000/svg" xmlns:xlink="http://www.w3.org/1999/xlink" width="288" height="272.104" viewBox="0 0 288 272.104">
  <defs>
    <clipPath id="clip-path">
      <rect id="Rectangle_148" data-name="Rectangle 148" width="288" height="272" transform="translate(0 0.104)" fill="#fff" stroke="#707070" stroke-width="1"/>
    </clipPath>
  </defs>
  <g id="Group_7489" data-name="Group 7489" transform="translate(-34 -147)">
    <g id="Mask_Group_10" data-name="Mask Group 10" transform="translate(34 147)" clip-path="url(#clip-path)">
      <g id="Group_71" data-name="Group 71" transform="translate(-17.633 44.456) rotate(-16)">
        <path id="Path_131" data-name="Path 131" d="M41.28,60.521C47.366,53.161,95.959-5.506,151.663.42s98.965,66.964,104.3,112S235.813,230.35,158.775,252.869,33.735,221.461,24.846,211.386-10.709,150.348,4.7,120.125,35.193,67.882,41.28,60.521Z" transform="translate(0 1.111)" fill="#f2f4f4"/>
        <path id="Path_132" data-name="Path 132" d="M6.6,24.619c9.84-15.206,35.78-34.885,70.665-18.337S120.2,57.716,108.123,77.4,68.765,101.547,46.85,102.441,7.044,81.868,3.466,72.028-3.243,39.826,6.6,24.619Z" transform="translate(9.978 0)" fill="#d6f0f5"/>
      </g>
    </g>
    <path id="Path_5025" data-name="Path 5025" d="M624.42,381.651a.6.6,0,0,1,.387-.591.622.622,0,0,1,.751.149q1.354,1.488,2.678,3a.668.668,0,0,1-.983.9c-.91-.984-1.795-1.992-2.687-2.994A.617.617,0,0,1,624.42,381.651Z" transform="translate(-466.49 -110.121)" fill="#fefefe"/>
    <path id="Path_5026" data-name="Path 5026" d="M634.226,429.688a.63.63,0,0,1-.59-.394q-.735-1.59-1.465-3.183a.631.631,0,0,1,.312-.941.654.654,0,0,1,.922.39c.482,1.042.972,2.079,1.435,3.129A.66.66,0,0,1,634.226,429.688Z" transform="translate(-467.445 -115.617)" fill="#fdfdfe"/>
    <rect id="Rectangle_2252" data-name="Rectangle 2252" width="119.455" height="209.989" transform="translate(119.748 177.603)" fill="#fff" stroke="#1c1d29" stroke-width="1.5"/>
    <path id="Path_6181" data-name="Path 6181" d="M575.279,341.423q0-12.346-.016-24.692c0-.659.175-.828.818-.8,1.411.051,2.826.031,4.238.007.433-.007.635.115.583.563a2.88,2.88,0,0,0,0,.337q0,24.624.014,49.249c0,.649-.109.9-.828.86-1.3-.068-2.6-.012-3.9-.021-1.035-.007-.9.143-.9-.872Q575.275,353.735,575.279,341.423Z" transform="translate(-466.089 -107.535)" fill="#f29441"/>
    <path id="Path_6182" data-name="Path 6182" d="M615.972,505.825a4.952,4.952,0,0,0,.982,1.468l4.092,5.9c.192.276.387.549.579.825.426.612.45,1.107.032,1.346-.585.334-.9-.059-1.2-.487q-2.487-3.55-4.982-7.094c-.127-.181-.273-.35-.41-.525a7.434,7.434,0,0,1-1.175-1.45c-3.228-4.61-6.486-9.2-9.7-13.82a4.254,4.254,0,0,1-.456-.745.78.78,0,0,1,.254-.963.756.756,0,0,1,.936-.083,1.928,1.928,0,0,1,.619.607c3.294,4.727,6.617,9.434,9.925,14.152A2.632,2.632,0,0,1,615.972,505.825Z" transform="translate(-467.933 -118.843)" fill="#f29441"/>
    <path id="Path_6183" data-name="Path 6183" d="M599.321,505.765c-.612-.568-.625-.768-.091-1.424.189-.252.446-.2.7-.156a13.83,13.83,0,0,1,2.151,1.628l9.646,6.567c.055.037.11.076.167.11.468.282.817.656.443,1.2-.386.56-.849.281-1.28-.012q-2.107-1.435-4.221-2.861Q603.081,508.287,599.321,505.765Z" transform="translate(-467.621 -119.757)" fill="#f29441"/>
    <path id="Path_6184" data-name="Path 6184" d="M616.739,455.285c-4.1,0-8.205-.007-12.307.011-.482,0-.648-.09-.647-.617q.03-11,.014-22a2.112,2.112,0,0,1,.029-.468.717.717,0,0,1,1.426.085c.013.179,0,.358,0,.538,0,6.772.007,13.544-.015,20.315,0,.56.132.69.69.688q11.5-.031,23-.014c.179,0,.36-.012.539,0a.71.71,0,0,1,.171,1.377,2.177,2.177,0,0,1-.8.076Q622.793,455.287,616.739,455.285Z" transform="translate(-467.941 -115.046)" fill="#040147"/>
    <path id="Path_6185" data-name="Path 6185" d="M605.237,350.917c0-4.081.008-8.161-.011-12.241,0-.513.109-.679.655-.678q11,.028,21.991.014a2.442,2.442,0,0,1,.469.021.633.633,0,0,1,.554.658.655.655,0,0,1-.562.72,2.889,2.889,0,0,1-.6.013c-6.792,0-13.585.008-20.377-.013-.557,0-.693.127-.691.689q.031,11.5.014,23a2.819,2.819,0,0,1-.016.6.715.715,0,0,1-1.408-.012,2.93,2.93,0,0,1-.012-.537Z" transform="translate(-468.035 -108.968)" fill="#040147"/>
    <path id="Path_6186" data-name="Path 6186" d="M657.129,305.626a4.48,4.48,0,1,1,4.457,4.5A4.439,4.439,0,0,1,657.129,305.626Z" transform="translate(-471.405 -106.577)" fill="#030047"/>
    <path id="Path_6187" data-name="Path 6187" d="M649.842,300.784c.006-.6-.148-.732-.736-.73-6.926.022-13.852.014-20.778.014q-10.456,0-20.912-.012c-.528,0-.661.133-.656.658q.038,4.909,0,9.819c0,.5.11.627.62.626q20.913-.022,41.825,0c.5,0,.639-.108.635-.624C649.813,307.285,649.808,304.035,649.842,300.784Zm-1.463,8.344c0,.459-.1.595-.582.595q-19.5-.021-39,0c-.565,0-.653-.192-.648-.689.023-2.309.028-4.617,0-6.926-.007-.538.145-.664.67-.662q9.716.027,19.432.012c6.477,0,12.954.007,19.432-.014.553,0,.709.122.7.689C648.347,304.466,648.355,306.8,648.379,309.128Z" transform="translate(-468.135 -106.504)" fill="#030047"/>
    <rect id="Rectangle_2253" data-name="Rectangle 2253" width="57" height="86" transform="translate(149 242.104)" fill="#f29441"/>
    <g id="Group_7477" data-name="Group 7477" transform="translate(163.914 147)">
      <path id="Path_6188" data-name="Path 6188" d="M748.352,272.375a12.942,12.942,0,0,0-4.161-7.77.667.667,0,0,1-.206-.86c.617-1.58,1.206-3.17,1.8-4.759a14.2,14.2,0,0,0,.982-3.273,4.811,4.811,0,0,0-6.5-5.105A5.816,5.816,0,0,0,737,254.319c-.673,1.8-1.356,3.6-2.01,5.4-.14.4-.28.542-.739.486a13.169,13.169,0,0,0-5.124.421c-4.582,1.262-7.452,4.339-9.1,8.668-1.309,3.422-2.581,6.863-3.843,10.3l-.122.262-1.188,2.7q-2.665,7.153-5.33,14.288c-1.15,3.132-2.328,6.256-3.5,9.388q-4.1,10.954-8.182,21.927c-.9,2.394-1.8,4.778-2.674,7.181-.14.383-.271.776-.739.888a3.857,3.857,0,0,0-2.646,2.291c-.2.411-.281.888-.851,1.029a4.384,4.384,0,0,0-3.376,3.675,10.516,10.516,0,0,0-.009,1.879,1.776,1.776,0,0,1-.411,1.356,4.483,4.483,0,0,0-.253,5.508,6.735,6.735,0,0,0,.8,1.159,1.356,1.356,0,0,1,.243,1.6c-1.384,3.591-2.7,7.209-4.049,10.819l-.215.832-1.131,3-8.677,23.059L673,394.784l-.065.187-1.739,4.657q-3.9,10.463-7.8,20.917-2.23,5.989-4.47,11.969c-.056.122-.1.243-.15.374-2.506,6.667-4.984,13.353-7.481,20.02-.935,2.525-1.973,5.012-2.73,7.593a52.552,52.552,0,0,0-1.749,13.755,40.783,40.783,0,0,0,.393,6.489,20.453,20.453,0,0,0,2.833,8.818c.084.131.131.234.112.309a4.085,4.085,0,0,1-.365,2.085c0,.009-.009.009-.009.019a2,2,0,0,1-.168.411c-.5,1.272-1,2.534-1.515,3.8a2.536,2.536,0,0,0-.094,1.833,2.33,2.33,0,0,0,4.385.112q1.206-2.9,2.328-5.854a.707.707,0,0,1,.1-.206c0-.019,0-.028.009-.037a.694.694,0,0,1,.234-.234,5.982,5.982,0,0,1,1.982-.692,13.449,13.449,0,0,0,5.508-2.609,45.943,45.943,0,0,0,6.4-6.4,45.279,45.279,0,0,0,8.266-13.259q2.16-5.821,4.329-11.623,4.446-11.894,8.883-23.8c.056-.15.122-.29.178-.439a.009.009,0,0,0,.009-.009l3.722-10.763,19.052-51.344.07-.178c.019-.056.047-.112.065-.159l8.2-21.488,1.066-2.8c.056-.15.112-.3.159-.449,1.505-4.049,3.03-8.107,4.544-12.156.3-.814.608-1.627.907-2.44q5.162-13.8,10.3-27.612a2.321,2.321,0,0,0,.309-1.225c.047-.187.093-.383.159-.57q4.138-11.052,8.266-22.1A14.687,14.687,0,0,0,748.352,272.375Z" transform="translate(-646.805 -250.272)" fill="#037a92"/>
      <path id="Path_6189" data-name="Path 6189" d="M671.323,490.972A50.219,50.219,0,0,1,660.1,502.82a12.712,12.712,0,0,1-4.554,2.235,3.6,3.6,0,0,1-4.021-1.44,13.724,13.724,0,0,1-2.151-5.451,45.038,45.038,0,0,1-.813-9.267,61.558,61.558,0,0,1,.636-8.182c.093-.645.271-.57.711-.355q8.275,4.124,16.682,7.995c1.505.692,3,1.375,4.507,2.066C671.352,490.533,671.595,490.58,671.323,490.972Z" transform="translate(-646.919 -265.202)" fill="#fff"/>
      <path id="Path_6190" data-name="Path 6190" d="M743.544,295.621q-9.93,26.551-19.814,53.121l-.056.14L714.023,373.6l-13.4-4.394-11.37-3.92,3.1-8.042,7.013-18.832.1-.28q.94-2.511,1.879-5.031,1.908-5.105,3.815-10.22,6.985-18.725,13.961-37.431c.178-.5.337-.561.813-.365,7.78,3.179,15.522,6.443,23.255,9.725C743.628,294.985,743.731,295.144,743.544,295.621Z" transform="translate(-649.561 -252.525)" fill="#fff"/>
      <path id="Path_6191" data-name="Path 6191" d="M722.685,280.747s4.5-13.358,9.34-16.14c2.419-1.574,8.119-2.628,11.192-1.292,5.334,2.319,7.721,6.4,8.148,10.553.773,7.519-4.769,17.432-4.769,17.432" transform="translate(-651.732 -251.079)" fill="#fff"/>
    </g>
    <path id="Path_5025-2" data-name="Path 5025" d="M624.42,381.651a.6.6,0,0,1,.387-.591.622.622,0,0,1,.751.149q1.354,1.488,2.678,3a.668.668,0,0,1-.983.9c-.91-.984-1.795-1.992-2.687-2.994A.617.617,0,0,1,624.42,381.651Z" transform="translate(-461.815 -113.861)" fill="#fefefe"/>
    <path id="Path_5026-2" data-name="Path 5026" d="M634.226,429.688a.63.63,0,0,1-.59-.394q-.735-1.59-1.465-3.183a.631.631,0,0,1,.312-.941.654.654,0,0,1,.922.39c.482,1.042.972,2.079,1.435,3.129A.66.66,0,0,1,634.226,429.688Z" transform="translate(-462.769 -119.357)" fill="#fdfdfe"/>
    <line id="Line_207" data-name="Line 207" x1="5.61" y1="1.87" transform="translate(228.026 254.065)" fill="none" stroke="#1c1d29" stroke-linecap="round" stroke-width="1.5"/>
    <line id="Line_208" data-name="Line 208" x1="5.61" y1="1.87" transform="translate(231.766 243.779)" fill="none" stroke="#1c1d29" stroke-linecap="round" stroke-width="1.5"/>
    <line id="Line_209" data-name="Line 209" x1="5.61" y1="1.87" transform="translate(235.507 235.364)" fill="none" stroke="#1c1d29" stroke-linecap="round" stroke-width="1.5"/>
  </g>
</svg>
