<svg xmlns="http://www.w3.org/2000/svg" width="54" height="54" viewBox="0 0 54 54">
  <g id="Group_345" data-name="Group 345" transform="translate(-80.5 -410)">
    <g id="tag" transform="translate(-126.5 -91)">
      <circle id="Ellipse_319" data-name="Ellipse 319" cx="27" cy="27" r="27" transform="translate(207 501)" fill="#c55f5f"/>
    </g>
    <g id="otlas" transform="translate(96.435 423.024)">
      <path id="Path_277" data-name="Path 277" d="M818.531,541.728c0,.383-.006.765,0,1.149a.264.264,0,0,1-.22.3,5.775,5.775,0,0,0-2.163,1.142,2.8,2.8,0,0,0-.954,2.946,2.49,2.49,0,0,0,1.879,1.83,8.225,8.225,0,0,0,1.211.223c.172.023.254.068.25.256-.009.46-.005.919,0,1.379a.388.388,0,0,1-.294.4c-2.214.827-4.416,1.684-6.641,2.477a6.227,6.227,0,0,1-4.361-.064c-2.135-.792-4.263-1.6-6.4-2.394a.452.452,0,0,1-.345-.488c.013-.44.01-.881,0-1.321,0-.168.057-.215.225-.249a8.242,8.242,0,0,0,1.689-.412,2.666,2.666,0,0,0,.747-4.314,5.24,5.24,0,0,0-2.349-1.379.379.379,0,0,1-.316-.443c.017-.727,0-1.455.007-2.183,0-.365.092-.433.435-.319q2.032.669,4.065,1.342c.743.245,1.526.5,2.278.773,1.172.42,2.01,1.025,3.245.423a17.548,17.548,0,0,1,2.33-.833c1.044-.336,2.09-.668,3.133-1.005.7-.227,1.4-.467,2.1-.7.345-.115.443-.046.447.308C818.534,540.963,818.531,541.346,818.531,541.728Z" transform="translate(-798.421 -526.242)" fill="#fff"/>
      <path id="Path_278" data-name="Path 278" d="M889.211,296.786a4.047,4.047,0,1,1-4.036,4.058,4.036,4.036,0,0,1,4.036-4.058Z" transform="translate(-878.238 -296.79)" fill="#fff"/>
      <path id="Path_279" data-name="Path 279" d="M825.28,490.254a1.76,1.76,0,0,1,.8-1.075,5.5,5.5,0,0,1,2.24-.755,29.729,29.729,0,0,1,4.956-.287,28.869,28.869,0,0,1,4.013.3,6.032,6.032,0,0,1,2.348.752,2.194,2.194,0,0,1,.568.517,1.674,1.674,0,0,1,.2.339c.016.036.075.142.061.181s-.148.088-.192.1c-2.174.7-4.362,1.355-6.516,2.111a2.406,2.406,0,0,1-1.76,0c-2.164-.755-4.359-1.418-6.543-2.117A1.082,1.082,0,0,1,825.28,490.254Z" transform="translate(-821.783 -477.144)" fill="#fff"/>
      <path id="Path_280" data-name="Path 280" d="M1079,609.618c-.012,1.116-.418,2.306-1.643,2.152a9.161,9.161,0,0,1-1.579-.241,1.465,1.465,0,0,1-.773-2.276,2.9,2.9,0,0,1,.729-.718,5.216,5.216,0,0,1,2.036-.816.8.8,0,0,1,1.063.613A4.363,4.363,0,0,1,1079,609.618Z" transform="translate(-1056.898 -589.833)" fill="#fff"/>
      <path id="Path_281" data-name="Path 281" d="M764.9,609.544a4.807,4.807,0,0,1,.226-1.179.769.769,0,0,1,.993-.6,5.151,5.151,0,0,1,2.373,1.022,1.728,1.728,0,0,1,.715,1.406,1.366,1.366,0,0,1-.919,1.355,4.4,4.4,0,0,1-1.975.266A1.5,1.5,0,0,1,765.21,611,2.571,2.571,0,0,1,764.9,609.544Z" transform="translate(-764.87 -589.885)" fill="#fff"/>
    </g>
  </g>
</svg>
