<svg xmlns="http://www.w3.org/2000/svg" width="15.498" height="18" viewBox="0 0 15.498 18">
  <g id="privacy_policy" transform="translate(-78.1 -11)">
    <path id="Path_263" data-name="Path 263" d="M90.351,10l-4.583.013L79.288,10A1.188,1.188,0,0,0,78.1,11.19V26.812A1.188,1.188,0,0,0,79.288,28h7.891a1.184,1.184,0,0,0,.847-.354l5.229-4.162a1.188,1.188,0,0,0,.343-.836V11.19A1.19,1.19,0,0,0,92.41,10Zm-9.878,2.676H91.205V13.87H80.473V12.678Zm0,3.576H91.205v1.192H80.473V16.254Zm4.173,4.77H80.473V19.832h4.173v1.192Zm7.16-.035H87.633v4.157H86.448V20.488a.714.714,0,0,1,.714-.714h4.643v1.216Z" transform="translate(0 1)" fill="#fff"/>
  </g>
</svg>
