<svg xmlns="http://www.w3.org/2000/svg" width="9.794" height="9.257" viewBox="0 0 9.794 9.257">
  <g id="Group_7497" data-name="Group 7497" transform="translate(74.638 -117.079)">
    <g id="Group_7495" data-name="Group 7495" transform="translate(-74.143 117.429)">
      <path id="Path_6392" data-name="Path 6392" d="M-69.571,123.9v-3.623a2.849,2.849,0,0,1,2.849-2.849h0a2.841,2.841,0,0,1,2.015.835" transform="translate(71.078 -117.429)" fill="none" stroke="#1c1d29" stroke-linecap="round" stroke-linejoin="round" stroke-width="0.7"/>
      <path id="Path_6393" data-name="Path 6393" d="M-71.128,132.772l-1.507,1.413-1.507-1.413" transform="translate(74.143 -127.713)" fill="none" stroke="#1c1d29" stroke-linecap="round" stroke-linejoin="round" stroke-width="0.7"/>
    </g>
    <g id="Group_7496" data-name="Group 7496" transform="translate(-71.711 119.514)">
      <path id="Path_6394" data-name="Path 6394" d="M-61.9,123.752v3.622a2.85,2.85,0,0,1-2.85,2.85h0a2.841,2.841,0,0,1-2.015-.835" transform="translate(66.766 -123.752)" fill="none" stroke="#1c1d29" stroke-linecap="round" stroke-linejoin="round" stroke-width="0.7"/>
      <path id="Path_6395" data-name="Path 6395" d="M-56.583,125.165l1.507-1.413,1.507,1.413" transform="translate(59.94 -123.752)" fill="none" stroke="#1c1d29" stroke-linecap="round" stroke-linejoin="round" stroke-width="0.7"/>
    </g>
  </g>
</svg>
