<svg xmlns="http://www.w3.org/2000/svg" width="54" height="54" viewBox="0 0 54 54">
  <g id="registeration-self" transform="translate(-238 -536)">
    <g id="Group_348" data-name="Group 348" transform="translate(-0.5 124)">
      <g id="survey" transform="translate(209.5 -91)">
        <circle id="Ellipse_321" data-name="Ellipse 321" cx="27" cy="27" r="27" transform="translate(29 503)" fill="#f38332"/>
      </g>
    </g>
    <g id="Group_350" data-name="Group 350" transform="translate(867.47 -25.568)">
      <path id="Path_286" data-name="Path 286" d="M-593.1,594.036c0,1.79.02,3.521-.007,5.25a2.09,2.09,0,0,1-1.98,1.989c-.106.006-.212,0-.318,0h-15.758a2.134,2.134,0,0,1-2.307-2.313q0-7.574,0-15.147v-.336h5.377a2.125,2.125,0,0,0,2.263-2.251q0-2.529,0-5.058v-.318h10.461a2.126,2.126,0,0,1,2.272,2.268q0,3.734,0,7.468a.531.531,0,0,1-.173.414q-2.761,2.749-5.511,5.509a2.347,2.347,0,0,0-.424.569q-.852,1.659-1.675,3.333a1.685,1.685,0,0,0,1.584,2.462,1.984,1.984,0,0,0,.732-.2c1.112-.539,2.216-1.093,3.318-1.653a2.07,2.07,0,0,0,.487-.358c.483-.466.953-.946,1.429-1.419C-593.264,594.186-593.2,594.129-593.1,594.036Zm-7.208-7.163q-1.869,0-3.739,0a.86.86,0,0,0-.933.836.86.86,0,0,0,.939.858q3.726,0,7.451,0a.862.862,0,0,0,.946-.85.863.863,0,0,0-.952-.844Zm-8.942.519a2.894,2.894,0,0,0-.2-.246.85.85,0,0,0-1.23-.022.844.844,0,0,0,.018,1.209c.251.26.51.513.767.767a.864.864,0,0,0,1.346-.008q.78-.773,1.554-1.552a.86.86,0,0,0,.068-1.266.863.863,0,0,0-1.268.063C-608.531,586.672-608.867,587.01-609.25,587.392Zm-.016,4.246a2.047,2.047,0,0,0-.2-.264.846.846,0,0,0-1.21-.02.842.842,0,0,0,0,1.209c.244.255.5.5.748.749a.872.872,0,0,0,1.384.008q.77-.764,1.535-1.533a.862.862,0,0,0,.066-1.285.867.867,0,0,0-1.268.084Zm.027,4.217c-.087-.1-.147-.174-.217-.241a.851.851,0,0,0-1.211-.028.847.847,0,0,0,.012,1.228c.251.26.509.513.767.767a.86.86,0,0,0,1.327,0q.79-.781,1.573-1.57a.858.858,0,0,0,.056-1.266.865.865,0,0,0-1.268.076C-608.537,595.153-608.872,595.489-609.238,595.855Zm6.377-3.05c.415,0,.831,0,1.246,0a.853.853,0,0,0,.879-.836.851.851,0,0,0-.885-.856q-1.232-.007-2.465,0a.853.853,0,0,0-.893.849.856.856,0,0,0,.9.844C-603.675,592.808-603.268,592.8-602.862,592.8Zm-.413,4.237c.283,0,.566.007.848,0a.851.851,0,0,0,.84-.847.847.847,0,0,0-.844-.843c-.565-.009-1.131-.008-1.7,0a.849.849,0,0,0-.854.834.852.852,0,0,0,.857.857C-603.84,597.047-603.557,597.042-603.274,597.042Z" fill="#fff"/>
      <path id="Path_287" data-name="Path 287" d="M-413.541,749.389c.042-.106.061-.17.091-.228q.745-1.49,1.493-2.978a1.01,1.01,0,0,1,.182-.256q2.556-2.558,5.117-5.111c.031-.031.065-.057.078-.069l1.723,1.708c-.083.07-.192.148-.286.241q-2.439,2.431-4.878,4.863a1.534,1.534,0,0,1-.383.274c-.944.479-1.892.95-2.84,1.422C-413.326,749.3-413.412,749.331-413.541,749.389Z" transform="translate(-185.788 -153.228)" fill="#fff"/>
      <path id="Path_288" data-name="Path 288" d="M-599.544,584.45v.182q0,2.276,0,4.552c0,.451-.136.589-.579.589h-4.755Z" transform="translate(-7.983 -7.986)" fill="#fff"/>
      <path id="Path_289" data-name="Path 289" d="M-297,704.3c.326-.325.666-.683,1.027-1.019a1.237,1.237,0,0,1,1.741-.006,1.222,1.222,0,0,1-.067,1.714c-.336.348-.683.685-1,1Z" transform="translate(-294.09 -118.073)" fill="#fff"/>
    </g>
  </g>
</svg>
