<?xml version="1.0" encoding="utf-8"?>
<!-- Generator: Adobe Illustrator 26.0.1, SVG Export Plug-In . SVG Version: 6.00 Build 0)  -->
<svg version="1.0" id="Layer_1" xmlns="http://www.w3.org/2000/svg" xmlns:xlink="http://www.w3.org/1999/xlink" x="0px" y="0px"
	 viewBox="0 0 268.9 269.8" style="enable-background:new 0 0 268.9 269.8;" xml:space="preserve">
<style type="text/css">
	.st0{fill:#CAEFD3;}
	.st1{fill:#D6F0F5;}
	.st2{fill:#F2F4F4;}
	.st3{fill:#1C1D29;}
	.st4{fill:#FFC2D6;}
	.st5{fill:#AEADC3;}
	.st6{fill:#EFEFF3;}
	.st7{fill:#1A2E35;}
	.st8{enable-background:new    ;}
	.st9{fill:#1E5C68;}
	.st10{fill:#B8CED2;}
	.st11{opacity:0.7;fill:#D6F0F5;enable-background:new    ;}
</style>
<g id="Group_7499" transform="translate(-51.559 -342.109)">
	<path id="Path_5400" class="st0" d="M271.9,491.7c2.9-3,5.8-6.1,7.7-9.7c0.9-0.1,1,0.5,1.3,0.8c2.2,2.4,1.5,2.3,3.9,0.3
		c5.8-5,11.5-10.2,17.2-15.3c0.2-0.1,0.4-0.3,0.6-0.3c-0.6,2.7,0,5.4,0.1,8.1c0.1,4.4,0.5,8.7,0.7,13.1c0.1,1.7,0,1.8-1.7,1.8
		c-9.6,0.5-19.1,1-28.7,1.5C272.6,492.1,272.2,492,271.9,491.7z"/>
	<g id="Group_71" transform="translate(51.3 401.033) rotate(-16)">
		<path id="Path_132" class="st1" d="M14,20.8C22.3,8,44.3-8.7,73.8,5.3s36.3,43.5,26.1,60.1S66.6,85.9,48.1,86.6
			S14.4,69.2,11.4,60.9S5.7,33.7,14,20.8z"/>
		<path id="Path_131" class="st2" d="M34.9,52.1C40,45.9,81.1-3.7,128.3,1.3S212,57.9,216.5,96s-17,99.7-82.2,118.8
			S28.5,188.2,21,179.7s-30.1-51.6-17-77.2S29.8,58.3,34.9,52.1z"/>
	</g>
	<path id="Path_5411" class="st3" d="M168.9,501.8c-0.1,0-0.2,0.1-0.3,0C168.6,501.6,168.7,501.5,168.9,501.8z"/>
	<path id="Path_5389" class="st1" d="M256.4,551.2c-3.1-6.9-4.9-14-4.3-21.6c0.7-7.7,3.5-15.1,8.2-21.2c1.6-2.2,3.8-3.9,5.2-6.2
		l0.4-0.3c0.4,0.2,0.7,0.5,0.9,0.9c2.8,4.5,5.7,9,8.3,13.6c2.2,4,4.7,7.9,7,11.9c1.3,2.4,2.8,4.7,4.2,7.1c1.5,2.6,3.3,5,4.6,7.7
		c0.7,1.4,1.3,2.8,2.9,3.5c0.6,1.1,1.3,2.1,2,3.1c2,3.7,4.2,7.3,6.4,10.9c2.1,3.3,1.7,4.6-1.7,6.2c-7,3.3-14.3,5.1-22.2,4
		c-7.5-1.1-13.2-4.9-17.8-10.8c-0.5-0.8-1.1-1.5-1.8-2.2C257.9,555.5,256.2,553.7,256.4,551.2z"/>
	<path id="Path_5410" class="st3" d="M292.4,487.5c-0.2-0.1-0.3-0.4-0.3-0.6l0.4,0.1l0,0C292.5,487,292.5,487.3,292.4,487.5z"/>
	<path id="Path_5402" class="st3" d="M211.5,426.3c0,0.1,0.1,0.4,0.1,0.6c2.2,12.5-0.9,23.5-9.2,33.1c-0.2,0.2-0.3,0.4-0.5,0.5
		c-0.3,0.2-0.6,0.4-0.9,0.1c-0.2-0.2-0.3-0.6-0.1-0.8c0,0,0,0,0.1-0.1s0.2-0.3,0.4-0.4c8.2-9.3,11.2-20.1,9.1-32.4
		c0-0.2-0.1-0.4-0.1-0.6c-0.1-0.3,0.2-0.6,0.5-0.6C211.2,425.7,211.4,425.9,211.5,426.3z"/>
	<path id="Path_5403" class="st3" d="M203.6,432.2c0,0.2,0.1,0.5,0.1,0.7c0.3,5.5-1,11-3.7,15.8c-0.1,0.2-0.3,0.4-0.4,0.6
		c-0.2,0.2-0.5,0.2-0.7,0.1s-0.3-0.4-0.2-0.7c0.1-0.2,0.2-0.4,0.3-0.6c2.6-4.6,3.8-9.9,3.6-15.2c0-0.3,0-0.5,0-0.8s0.3-0.5,0.6-0.4
		C203.3,431.8,203.5,432,203.6,432.2z"/>
	<path id="Path_5404" class="st3" d="M201.8,402.6c0.1,0.3,0.1,0.5-0.1,0.7c-0.2,0.2-0.6,0.2-0.8,0s-0.4-0.4-0.5-0.5
		c-3.5-3.9-8-6.7-13-8.1c-0.1,0-0.3-0.1-0.4-0.1c-0.3-0.1-0.4-0.4-0.3-0.7l0,0c0.1-0.3,0.3-0.4,0.6-0.4c0.3,0.1,0.6,0.1,1,0.2
		c5.1,1.6,9.7,4.5,13.3,8.5C201.5,402.3,201.7,402.5,201.8,402.6z"/>
	<path id="Path_5406" class="st3" d="M199.2,422.9c-0.2,0.2-0.5,0.1-0.7-0.1s-0.2-0.5-0.1-0.7c0-0.1,0.1-0.1,0.1-0.2
		c1.2-1.2,2.3-2.4,3.5-3.6c0.2-0.2,0.6-0.4,0.9,0c0.2,0.2,0.2,0.6,0,0.8l0,0c-1.2,1.2-2.3,2.4-3.5,3.6
		C199.3,422.8,199.2,422.9,199.2,422.9z"/>
	<path id="Path_5412" class="st4" d="M189.2,451c-0.1,0-0.2,0-0.2-0.1l0,0C189.1,450.8,189.1,450.9,189.2,451L189.2,451z"/>
	<path id="Path_5427" class="st5" d="M186.7,455.9c-0.1-0.2,0-0.5,0.2-0.7c0.2,0.3,0.5,0.5,0.2,0.9
		C186.9,456.1,186.9,455.9,186.7,455.9z"/>
	<path id="Path_5428" class="st6" d="M186.7,455.9c0.2,0,0.3,0.1,0.4,0.3c-0.1,0.1-0.2,0.2-0.3,0.1
		C186.6,456.2,186.7,456,186.7,455.9z"/>
	<path id="Path_5444" class="st3" d="M175.2,396.9L152,412.5l22.3,33.2l23.3-15.6L175.2,396.9z M153.4,413.2l21.4-14.8l21.4,30.9
		l-21.4,14.8L153.4,413.2z"/>
	<g id="Group_221" transform="translate(150.3 487.462)">
		<g id="Group_177" transform="matrix(0.921, -0.391, 0.391, 0.921, 0, 24.042)">
			<g id="Group_171" transform="translate(0 0)">
				<path id="Path_610" class="st0" d="M61.5,54.7L19.7,71.2c-3.3-20.3-9.8-40-19.2-58.3L26.1,1.8c9.5-4.1,20.5,0.3,24.6,9.8
					c0.2,0.4,0.3,0.7,0.4,1.1C56.1,26.3,59.6,40.4,61.5,54.7z"/>
				<g id="Group_170">
					<path id="Path_611" class="st0" d="M61.5,54.7c0,0,0-0.2-0.1-0.5c-0.1-0.4-0.1-0.9-0.2-1.5c-0.2-1.3-0.5-3.3-1-5.8
						c-1.3-7.1-3-14.2-5.1-21.2c-0.7-2.2-1.4-4.5-2.2-6.9s-1.6-4.9-2.6-7.4c-1.1-2.5-2.8-4.8-4.9-6.6C43.1,3,40.5,1.7,37.6,1
						c-3-0.7-6.1-0.6-9.1,0.3c-0.8,0.2-1.5,0.5-2.2,0.8L24,3l-4.5,2L0.6,13.2l0.2-0.4l1,2.1c4.7,9.5,8.7,19.3,11.8,29.3
						c2.8,8.8,4.9,17.8,6.3,27L19.5,71L50,59.1l8.5-3.3l2.2-0.8C61.2,54.8,61.5,54.7,61.5,54.7s-0.2,0.1-0.7,0.3l-2.2,0.9l-8.4,3.4
						L19.8,71.4l-0.3,0.1l-0.1-0.3c-1.5-9.1-3.6-18.1-6.4-26.9c-3.2-10-7.1-19.8-11.8-29.2c-0.4-0.7-0.7-1.4-1-2.1L0,12.7l0.3-0.1
						l18.9-8.1l4.5-1.9l2.2-1c0.8-0.3,1.5-0.6,2.3-0.8c3.1-0.9,6.3-1,9.4-0.2c2.9,0.7,5.7,2.1,8,4c2.2,1.8,3.9,4.2,5.1,6.8
						c1.1,2.5,1.8,5,2.6,7.4s1.5,4.7,2.1,6.9c2,7,3.6,14.1,4.9,21.2c0.4,2.5,0.7,4.5,0.9,5.9c0.1,0.7,0.1,1.2,0.2,1.5
						C61.5,54.4,61.5,54.6,61.5,54.7z"/>
				</g>
			</g>
			<path id="Path_612" class="st3" d="M28.5,0.6c0,0,6.2,12.8,5.7,13.3c-0.5,0.4,15.5-6,15.7-6.1C49.9,7.7,41.5-3.4,28.5,0.6z"/>
			<g id="Group_172" transform="translate(13.639 18.524)">
				<path id="Path_613" class="st7" d="M11.6,0c0.1,0.2-2.5,1.4-5.7,2.7S0.1,5.1,0,4.9s2.5-1.4,5.7-2.7S11.5-0.1,11.6,0z"/>
			</g>
			<g id="Group_173" transform="translate(15.416 16.691)">
				<path id="Path_614" class="st7" d="M30.6,0c0.1,0.2-6.7,3.5-15.2,7.3S0.1,14.3,0,14.1s6.7-3.4,15.2-7.3S30.5-0.2,30.6,0z"/>
			</g>
			<g id="Group_175" transform="translate(21.112 31.72)">
				<path id="Path_616" class="st7" d="M30.6,0c0.1,0.2-6.7,3.5-15.2,7.3S0.1,14.3,0,14.1s6.7-3.4,15.2-7.3S30.5-0.2,30.6,0z"/>
			</g>
			<g id="Group_176" transform="translate(24.042 45.616)">
				<path id="Path_617" class="st7" d="M19.6,0c-0.9,0.6-1.8,1.1-2.8,1.5c-1.8,0.9-4.3,2-7,3.2c-4.5,1.9-8.2,3.5-9.6,4H0l0-0.2
					c0.1-0.4,0.2-0.7,0.2-0.7s0,0.2,0,0.7H0.1c1.3-0.7,5-2.4,9.3-4.3c2.8-1.2,5.3-2.3,7.1-3C17.5,0.6,18.5,0.3,19.6,0z"/>
			</g>
		</g>
		<g class="st8">
			<path class="st9" d="M31.1,45.8L28.8,48l1.5,1.5l2-2l0.9,0.9l-2,2l1.6,1.6l2.2-2.2l1,1l-3.4,3.4l-5.9-5.9l3.4-3.4L31.1,45.8z"/>
			<path class="st9" d="M33.8,41c1.3-1.3,3.1-1.7,4.7-0.9l-1.4,1.4c-0.8-0.3-1.6-0.1-2.3,0.6c-1,1-1,2.5,0.2,3.7s2.7,1.2,3.7,0.2
				c0.6-0.6,0.9-1.4,0.6-2.3l1.4-1.4c0.8,1.6,0.5,3.4-0.9,4.7c-1.7,1.7-4.2,1.8-6,0C32.1,45.2,32.1,42.7,33.8,41z"/>
			<path class="st9" d="M40.3,34.5c1.3-1.3,3.1-1.7,4.7-0.9L43.7,35c-0.8-0.3-1.6-0.1-2.3,0.6c-1,1-1,2.5,0.2,3.7s2.7,1.2,3.7,0.2
				c0.6-0.6,0.9-1.4,0.6-2.3l1.4-1.4c0.8,1.6,0.4,3.4-0.9,4.7c-1.7,1.7-4.2,1.8-6,0C38.6,38.7,38.6,36.2,40.3,34.5z"/>
			<path class="st9" d="M48.6,28.2l-2.2,2.2l1.5,1.5l2-2l0.9,0.9l-2,2l1.6,1.6l2.2-2.2l1,1l-3.4,3.4l-5.9-5.9l3.4-3.4L48.6,28.2z"/>
		</g>
		<path id="Path_607" class="st10" d="M45.5,3.3L45.5,3.3c-1.6,1.2-2,2.7-1.7,5.2c-1.4-1.9-2.6-2.8-5-2.4c1.5-1.5,2.1-2.9,2-4.7
			C42.1,2.8,43.9,2.9,45.5,3.3z"/>
	</g>
	<g id="Group_224" transform="translate(156.454 392.534)">
		<path id="Path_608" class="st10" d="M47.5,3.3L47.5,3.3c-1.6,1.2-2,2.7-1.7,5.2c-1.4-1.9-2.6-2.8-5-2.4c1.5-1.5,2.1-2.9,2-4.7
			C44.1,2.8,45.9,2.9,47.5,3.3z"/>
		<g id="Group_185" transform="matrix(0.921, -0.391, 0.391, 0.921, 0, 18.759)">
			<g id="Group_179" transform="translate(0 0)">
				<path id="Path_618" class="st0" d="M36.8,50.6L0.3,51.3C3.5,34.9,4.1,18.1,2.1,1.4l22.7-1.2c8.4-0.4,15.5,6,16,14.4
					c0,0.3,0,0.6,0,0.9C40.7,27.4,39.4,39.1,36.8,50.6z"/>
				<g id="Group_178">
					<path id="Path_619" class="st0" d="M36.8,50.6c0,0,0-0.2,0.1-0.4l0.2-1.2c0.2-1.1,0.5-2.7,0.9-4.7c1-5.8,1.7-11.7,2.1-17.6
						c0.1-1.9,0.2-3.8,0.3-5.9c0-2,0.2-4.2,0.1-6.4c-0.1-2.2-0.8-4.4-1.9-6.4c-1.2-2.1-2.9-3.8-4.8-5.2c-2.1-1.4-4.5-2.2-7-2.4
						c-0.6-0.1-1.3,0-1.9,0l-2,0.1l-4,0.2l-16.8,1l0.2-0.3C2.4,2,2.4,2.6,2.5,3.3C3.4,11.8,3.7,20.5,3.3,29C2.9,36.5,2,44,0.5,51.3
						L0.3,51l26.5-0.4l7.4-0.1h2C36.6,50.6,36.8,50.6,36.8,50.6s-0.2,0-0.6,0l-1.9,0.1l-7.4,0.2L0.3,51.6H0l0.1-0.3
						C1.5,43.9,2.4,36.5,2.8,29C3.2,20.5,2.9,11.9,2,3.4C1.9,2.7,1.9,2.1,1.8,1.5V1.2h0.3l16.7-0.9l4-0.2l2-0.1c0.7,0,1.3,0,2,0
						c2.6,0.2,5.1,1.1,7.3,2.5c2,1.4,3.8,3.2,5,5.3c1.1,2,1.8,4.3,1.9,6.6c0.1,2.2,0,4.3-0.1,6.4c-0.1,2-0.2,4-0.3,5.9
						c-0.4,5.9-1.2,11.8-2.3,17.6c-0.4,2.1-0.7,3.6-1,4.7c-0.1,0.5-0.2,0.9-0.3,1.2C36.9,50.4,36.9,50.5,36.8,50.6z"/>
				</g>
			</g>
			<path id="Path_620" class="st7" d="M26,0.2c0,0,1.1,11.5,0.6,11.7s13.5-0.2,13.7-0.2C40.3,11.8,37.1,0.9,26,0.2z"/>
			<g id="Group_180" transform="translate(9.142 12.641)">
				<path id="Path_621" class="st7" d="M10.2,0.1C8.5,0.5,6.8,0.6,5.1,0.6C3.4,0.8,1.7,0.8,0,0.6c1.7-0.3,3.4-0.5,5.1-0.5
					C6.8-0.1,8.5-0.1,10.2,0.1z"/>
			</g>
			<g id="Group_181" transform="translate(8.411 17.19)">
				<path id="Path_622" class="st7" d="M27.3,0c0,0.1-6.1,0.7-13.6,1.3S0,2.3,0,2.2c0-0.1,6.1-0.7,13.6-1.3S27.3-0.1,27.3,0z"/>
			</g>
			<g id="Group_183" transform="translate(8.512 30.265)">
				<path id="Path_624" class="st7" d="M27.3,0c0,0.1-6.1,0.7-13.6,1.3S0,2.3,0,2.2c0-0.1,6.1-0.7,13.6-1.3S27.3-0.1,27.3,0z"/>
			</g>
			<g id="Group_184" transform="translate(8.348 38.555)">
				<path id="Path_625" class="st7" d="M17.4,0.1c-0.9,0.2-1.7,0.3-2.6,0.3C13.2,0.5,11,0.7,8.5,0.9C4.7,1.1,1.4,1.2,0.2,1.2H0
					l0.1-0.1c0.2-0.3,0.3-0.5,0.3-0.4s0,0.2-0.2,0.5V1c1.2-0.2,4.5-0.4,8.3-0.7C11,0.2,13.2,0,14.8,0C15.6,0,16.5,0,17.4,0.1z"/>
			</g>
		</g>
		<g class="st8">
			<path class="st9" d="M28.3,35.5l-2.5,1.3l0.2,1.4l-1.3,0.7l-0.9-7.4l1.5-0.7l5.4,5.1l-1.3,0.7L28.3,35.5z M25.2,32.5l0.4,3.1
				l1.8-0.9L25.2,32.5z"/>
			<path class="st9" d="M32.4,28.3L30,29.5l0.8,1.6L33,30l0.5,1l-2.1,1l0.8,1.6l2.4-1.2l0.5,1l-3.6,1.8L28.3,29l3.6-1.8L32.4,28.3z"
				/>
		</g>
	</g>
	<g id="Group_7488">
		<g id="Group_203" transform="matrix(0.921, -0.391, 0.391, 0.921, 78.444, 484.422)">
			<g id="Group_195" transform="translate(0 0)">
				<path id="Path_635" class="st1" d="M34.9,48.3L0,49.6l0,0c1.8-4,2.7-8.3,2.5-12.7L1.2,12.6C1,8.1,3.2,3.8,6.9,1.2l0,0L39.3,0
					l0,0c-2.1,3.1-3.2,6.7-3,10.4l1,26.8C37.4,41.1,36.6,44.9,34.9,48.3L34.9,48.3z"/>
				<path id="Path_636" class="st11" d="M34.9,48.3L0,49.6l0,0c1.8-4,2.7-8.3,2.5-12.7L1.2,12.6C1,8.1,3.2,3.8,6.9,1.2l0,0L39.3,0
					l0,0c-2.1,3.1-3.2,6.7-3,10.4l1,26.8C37.4,41.1,36.6,44.9,34.9,48.3L34.9,48.3z"/>
			</g>
			<g id="Group_196" transform="translate(5.953 14.03)">
				<path id="Path_637" class="st7" d="M25.4,0.1c0,0.1-5.7,0.4-12.7,0.6S0,1,0,0.9c0-0.1,5.7-0.4,12.7-0.6S25.4-0.1,25.4,0.1z"/>
			</g>
			<g id="Group_197" transform="translate(5.814 18.579)">
				<path id="Path_638" class="st7" d="M26.3,0.1c0,0.1-5.9,0.4-13.1,0.6S0,1,0,0.9c0-0.1,5.9-0.4,13.1-0.6S26.3-0.1,26.3,0.1z"/>
			</g>
			<g id="Group_200" transform="translate(6.224 31.355)">
				<path id="Path_641" class="st7" d="M26.3,0.1c0,0.1-5.9,0.4-13.1,0.6S0,1,0,0.9c0-0.1,5.9-0.4,13.1-0.6S26.3-0.1,26.3,0.1z"/>
			</g>
			<g id="Group_201" transform="translate(6.36 35.981)">
				<path id="Path_642" class="st7" d="M13.6,0.1c-0.7,0.1-1.3,0.2-2,0.2c-1.2,0.1-2.9,0.2-4.8,0.2S3.2,0.6,2,0.6
					c-0.7,0-1.3,0-2-0.1c0.7-0.1,1.3-0.2,2-0.2c1.2-0.1,2.9-0.2,4.8-0.2S10.4,0,11.6,0C12.3,0,13,0,13.6,0.1z"/>
			</g>
			<g id="Group_202" transform="translate(23.752 37.064)">
				<path id="Path_643" class="st7" d="M7.4,3.7c0,0-0.1-0.3-0.2-0.8C6.9,2.1,6.4,1.4,5.8,1C4.2-0.1,2.1,0.3,1,1.9
					c-0.4,0.6-0.6,1.3-0.6,2C0.5,5.8,2.1,7.2,4,7.2c0.7,0,1.4-0.3,2-0.7c0.6-0.5,1-1.2,1.2-2C7.4,4,7.4,3.7,7.4,3.7
					c0.1,0.3,0.1,0.6,0,0.9C7.3,5.4,6.8,6.1,6.2,6.7c-1,0.8-2.3,1.1-3.5,0.7c-2-0.6-3.1-2.8-2.5-4.7c0.3-1.1,1.2-2,2.2-2.4
					C3.6-0.2,5,0,6,0.7c0.7,0.5,1.2,1.2,1.4,2C7.4,3.1,7.5,3.4,7.4,3.7z"/>
			</g>
			
				<rect id="Rectangle_114" x="5.9" y="9.9" transform="matrix(-0.9995 3.207826e-02 -3.207826e-02 -0.9995 22.1822 20.8919)" class="st7" width="10.1" height="1.5"/>
		</g>
		<g class="st8">
			<path class="st9" d="M102.7,505.6c-1.6,0.7-3.2,0.5-3.9-0.9l1.6-0.8c0.3,0.6,0.9,0.8,1.6,0.5s1-0.9,0.7-1.5
				c-0.8-1.6-4.2,1.2-5.5-1.6c-0.6-1.4,0.1-2.7,1.6-3.4c1.6-0.7,3-0.4,3.7,0.9l-1.7,0.8c-0.3-0.5-0.9-0.7-1.5-0.4
				c-0.6,0.3-0.9,0.8-0.6,1.4c0.7,1.5,4.2-1.1,5.5,1.5C104.8,503.3,104.4,504.8,102.7,505.6z"/>
			<path class="st9" d="M108.1,495.3l-2.9,1.3l0.9,1.9l2.6-1.2l0.6,1.2l-2.6,1.2l0.9,2l2.9-1.3l0.6,1.2l-4.4,2.1l-3.5-7.6l4.4-2.1
				L108.1,495.3z"/>
		</g>
		<path id="Path_609" class="st10" d="M115.3,472.1c-1-1.2-3-0.5-4.1-1.5c2.1-1.4,2.3-3.2,1.8-5.3c1.6,1.3,3.1,2.7,6.1,2.2
			c-1.8,1.3-2.7,3.5-2.4,5.7L115.3,472.1z"/>
	</g>
	<g id="Group_223" transform="translate(215.058 375.283)">
		<path id="Path_644" class="st10" d="M64.1,10.4c-1.5-2.2-3.1-3.1-5.8-2.8c2-1.3,2.8-3.7,2.1-5.9c1.6,1.8,3.2,2.8,5.9,2.5
			C64.2,6,63.9,7.9,64.1,10.4z"/>
		<g id="Group_194" transform="matrix(0.921, -0.391, 0.391, 0.921, 0, 28.73)">
			<g id="Group_186" transform="translate(0 0)">
				<path id="Path_626" class="st1" d="M43.4,65.2L0,58l0,0c3.3-4.4,5.4-9.6,6.2-15l4.6-30.3C11.7,7.1,15.4,2.3,20.6,0l0,0l40.2,6.7
					l0,0c-3.4,3.3-5.6,7.5-6.3,12.1L49,52.1C48.2,56.9,46.3,61.4,43.4,65.2L43.4,65.2z"/>
				<path id="Path_627" class="st11" d="M43.4,65.2L0,58l0,0c3.3-4.4,5.4-9.6,6.2-15l4.6-30.3C11.7,7.1,15.4,2.3,20.6,0l0,0
					l40.2,6.7l0,0c-3.4,3.3-5.6,7.5-6.3,12.1L49,52.1C48.2,56.9,46.3,61.4,43.4,65.2L43.4,65.2z"/>
			</g>
			<g id="Group_187" transform="translate(16.042 16.675)">
				<path id="Path_628" class="st7" d="M31.5,5.4c0,0.2-7.1-0.9-15.8-2.4S0,0.2,0,0c0-0.2,7.1,0.9,15.8,2.4S31.6,5.2,31.5,5.4z"/>
			</g>
			<g id="Group_188" transform="translate(14.724 22.284)">
				<path id="Path_629" class="st7" d="M32.6,5.6c0,0.2-7.3-1-16.3-2.5S0,0.2,0,0c0-0.2,7.3,1,16.3,2.5S32.6,5.4,32.6,5.6z"/>
			</g>
			<g id="Group_191" transform="translate(12.027 38.145)">
				<path id="Path_632" class="st7" d="M32.6,5.6c0,0.2-7.3-1-16.3-2.5S0,0.2,0,0s7.3,1,16.3,2.5S32.6,5.4,32.6,5.6z"/>
			</g>
			<g id="Group_192" transform="translate(11.128 43.42)">
				<path id="Path_633" class="st7" d="M16.9,2.9c-0.8,0-1.7-0.1-2.5-0.2c-1.5-0.2-3.7-0.5-6-0.9S4,0.9,2.4,0.6C1.6,0.5,0.8,0.3,0,0
					c0.8,0,1.7,0.1,2.5,0.2c1.5,0.2,3.7,0.5,6,0.9s4.4,0.8,6,1.1C15.3,2.4,16.1,2.6,16.9,2.9z"/>
			</g>
			<g id="Group_193" transform="translate(31.397 49.34)">
				<path id="Path_634" class="st7" d="M9.3,5.5c-0.1,0,0-0.4-0.1-1.1C9.1,3.4,8.6,2.5,8,1.8C6.3,0.1,3.6,0.1,1.9,1.7
					C1.2,2.3,0.8,3.2,0.6,4.1C0.2,6.4,1.8,8.6,4.2,9C5.1,9.1,6,9,6.8,8.6c0.9-0.4,1.6-1.2,2-2C9.1,5.9,9.2,5.5,9.3,5.5
					c0,0.4-0.1,0.8-0.2,1.1c-0.4,1-1.1,1.8-2,2.3C5.7,9.7,4,9.7,2.6,8.9c-2.5-1.3-3.3-4.2-2-6.5C1.3,1.1,2.5,0.3,3.9,0
					c1.6-0.3,3.2,0.3,4.3,1.5C9,2.3,9.4,3.3,9.4,4.4C9.5,4.8,9.4,5.2,9.3,5.5z"/>
			</g>
			
				<rect id="Rectangle_113" x="16.8" y="11.9" transform="matrix(-0.9858 -0.168 0.168 -0.9858 43.8616 29.2357)" class="st7" width="12.8" height="1.8"/>
		</g>
		<g class="st8">
			<path class="st9" d="M31,44.2l6-1.5l0.3,1.3l-2.2,0.5l1.7,6.8l-1.6,0.4L33.5,45l-2.2,0.5L31,44.2z"/>
			<path class="st9" d="M43.1,42.5L40,43.3l0.5,2l2.7-0.7l0.3,1.3l-2.7,0.7l0.5,2.2l3.1-0.8l0.3,1.3L40,50.5l-2-8.1l4.7-1.2
				L43.1,42.5z"/>
		</g>
	</g>
	<path id="Path_5479" class="st10" d="M129.1,571.8c1.1,2.2,0.1,4.9-2.1,6l-0.3,0.1c-2.3,1-5,0-6.1-2.3l0,0
		c-1.1-2.3-0.1-5.1,2.2-6.2s5.1-0.1,6.2,2.2C129,571.7,129,571.7,129.1,571.8z"/>
	<path id="Path_5479-2" class="st10" d="M137.3,571.7c0.6,1.3,0.1,3-1.2,3.6l-0.2,0.1c-1.4,0.6-3,0-3.7-1.4l0,0
		c-0.7-1.4-0.2-3.1,1.2-3.8s3.1-0.2,3.8,1.2C137.3,571.5,137.3,571.6,137.3,571.7z"/>
</g>
</svg>
