<svg xmlns="http://www.w3.org/2000/svg" width="268.861" height="269.833" viewBox="0 0 268.861 269.833"><g transform="translate(-51.559 -342.109)"><g transform="translate(51.3 401.033) rotate(-16)"><path d="M5.579,20.822C13.9,7.961,35.84-8.682,65.344,5.313s36.313,43.5,26.1,60.143S58.157,85.882,39.623,86.639,5.957,69.239,2.932,60.917-2.742,33.683,5.579,20.822Z" transform="translate(8.439 0)" fill="#d6f0f5"/><path d="M34.912,51.185C40.06,44.96,81.156-4.657,128.268.355s83.7,56.634,88.209,94.724-17.04,99.736-82.195,118.782S28.531,187.3,21.014,178.778s-30.071-51.623-17.04-77.183S29.764,57.41,34.912,51.185Z" transform="translate(0 0.939)" fill="#f2f4f4"/></g><path d="M256.946,38.5c.428,0,.428.321.428.536,1.178,3.214,2.357,6.535,3.535,9.749,1.071,2.892,2.035,5.785,3.107,8.677.214.536.107.75-.428.857a13.43,13.43,0,0,0-2.678.964c-.536.214-.75.107-.964-.429-1.393-4.071-2.892-8.035-4.285-12.105-.75-2.143-1.5-4.285-2.357-6.428-.107-.429-.107-.643.321-.75A17.184,17.184,0,0,0,256.946,38.5Z" transform="translate(30.132 383.64)" fill="#caefd3"/><path d="M241,12.106a4.66,4.66,0,1,1,4.606,4.714A4.531,4.531,0,0,1,241,12.106Z" transform="translate(29.259 381.431)" fill="#caefd3"/><path d="M254.62,24.421a4.526,4.526,0,0,1-4.5,4.5H249.8a4.642,4.642,0,0,1-4.5-4.714h0a4.662,4.662,0,1,1,9.32.214Z" transform="translate(29.566 382.293)" fill="#caefd3"/><path d="M167.968,12.2a.858.858,0,0,1,.722.361c3.611,3.01,7.223,6.019,10.714,9.029a.907.907,0,0,1,.241,1.445c-.481.6-.963.482-1.445,0-3.611-3.01-7.223-6.019-10.714-9.029a1.23,1.23,0,0,1-.482-1.2A1.228,1.228,0,0,1,167.968,12.2Z" transform="translate(17.727 375.96)" fill="#b8ced2"/><path d="M173.363,27.53c-1.685-.361-3.491-.843-5.176-1.324a.819.819,0,0,1-.482-.963v-.12a.915.915,0,0,1,.963-.722h0c1.685.361,3.491.843,5.176,1.324a.744.744,0,0,1,.6.963v.12A.937.937,0,0,1,173.363,27.53Z" transform="translate(17.87 378.447)" fill="#b8ced2"/><path d="M149.354,70.715c0-.994-.071-1.916-.142-2.91-.071-.355,0-.639.426-.71s.639.213.639.639a26.448,26.448,0,0,1-4.755,18.38c-.284.355-.639.71-.923,1.064a.55.55,0,0,1-.71.142l-.071-.071a.556.556,0,0,1-.071-.781l.071-.071c3.406-3.761,4.826-8.3,5.393-13.271C149.283,72.347,149.283,71.5,149.354,70.715Z" transform="translate(37.1 366.937)" fill="#caefd3"/><g transform="translate(-22.02 -3.495)"><path d="M34.766,119.5c-2.326-6.734-4.774-13.469-7.223-20.2,0-.055-2.493-6.98-5.207-14.522a.288.288,0,0,1-.031-.085l-.364-.554L19.218,76.1c-1.584-4.413-2.912-8.128-3.435-9.633-.126.131-.207.222-.239.264a.8.8,0,0,0,.135-.563c-.088-.257-.135-.4-.135-.417C11.871,55.465,8.076,45.056,4.4,34.65c-1.469-4.04-2.815-7.958-4.284-12-.245-.612-.123-.857.489-1.1C20.319,14.571,39.909,7.469,59.621.368c.246-.123.614-.123.735-.368h.123q1.654,4.593,3.306,9.183C67.09,18.366,70.4,27.672,73.7,36.853q10.835,30.3,21.793,60.607c.368.978.246,1.224-.612,1.469-9.672,3.429-19.222,6.855-28.9,10.284-10.039,3.551-19.956,7.1-30,10.775a2.2,2.2,0,0,1-.634.147C35.077,120.135,34.922,119.964,34.766,119.5Z" transform="translate(226.437 397)" fill="#d6f0f5" stroke="#1c1d29" stroke-width="1"/><path d="M246.441,39.2c.735,2.2,1.592,4.285,2.326,6.367L266.03,93.684c.245.857.245,1.1-.612,1.347-8.448,2.938-16.9,6-25.222,9.06-.612.245-.735.122-.98-.49a71.6,71.6,0,0,1,7.1-63.912C246.2,39.445,246.318,39.445,246.441,39.2Z" transform="translate(53.575 399.796)" fill="#b8ced2"/><path d="M232.376,27.688,220.5,19.852c1.592-.612,2.939-1.1,4.408-1.592,2.694-.979,5.51-1.959,8.2-2.938.612-.245.735-.122.612.49C233.233,19.729,232.744,23.647,232.376,27.688Z" transform="translate(50.376 394.412)" fill="#b8ced2"/><path d="M199.806,42.434a1,1,0,0,1-.367-1.959l4.653-1.714,26.446-9.428c.122,0,.367-.122.49-.122.612-.122,1.1-.122,1.347.612a.894.894,0,0,1-.49,1.224h-.122c-1.347.49-2.694.979-4.163,1.469-8.938,3.183-18,6.367-26.936,9.672A1.427,1.427,0,0,0,199.806,42.434Z" transform="translate(45.48 397.541)" fill="#b8ced2"/><path d="M236.839,42.561a.946.946,0,0,1-.857.979c-3.551,1.347-7.224,2.571-10.774,3.918l-19.957,7.1c-.122,0-.245.122-.367.122-.612.245-1.224.245-1.469-.367-.245-.735.122-1.1.857-1.347,5.387-1.959,10.9-3.918,16.284-5.877,4.9-1.714,9.917-3.551,14.815-5.265C236.227,41.459,236.717,41.826,236.839,42.561Z" transform="translate(46.526 400.353)" fill="#b8ced2"/><path d="M217.866,41.662a.921.921,0,0,1-.857-.612.952.952,0,0,1,.245-.979,2.677,2.677,0,0,1,.612-.367c3.8-1.347,7.714-2.816,11.509-4.163a.45.45,0,0,0,.367-.122.932.932,0,1,1,.735,1.714h0c-4.04,1.469-8.081,2.938-12.121,4.285C218.111,41.662,217.988,41.662,217.866,41.662Z" transform="translate(49.582 398.926)" fill="#b8ced2"/><path d="M213.87,42.483a.809.809,0,0,1-.735.857c-3.551,1.347-7.224,2.571-10.774,3.918a.894.894,0,0,1-1.347-.612c-.245-.612.122-.979.735-1.224,3.551-1.224,6.979-2.571,10.53-3.8C213.258,41.259,213.87,41.626,213.87,42.483Z" transform="translate(45.987 400.308)" fill="#b8ced2"/><path d="M212.706,56.125c-.122-.49.122-.49.367-.612,3.551-1.224,7.1-2.571,10.53-3.8a.932.932,0,1,1,.735,1.714h-.122c-3.673,1.347-7.224,2.571-10.9,3.918-.367.122-.612.122-.612-.367A1.046,1.046,0,0,0,212.706,56.125Z" transform="translate(48.62 402.583)" fill="#b8ced2"/><path d="M232.816,47.9c.735,0,.979.245,1.1.612.122.49,0,.979-.49,1.1h0c-1.469.612-3.061,1.1-4.53,1.592a.757.757,0,0,1-.979-.612h0a.841.841,0,0,1,.367-1.1h0A39.079,39.079,0,0,0,232.816,47.9Z" transform="translate(52.018 401.748)" fill="#b8ced2"/></g><g transform="translate(-4.484 18)"><rect width="101.241" height="57.852" transform="matrix(0.545, 0.839, -0.839, 0.545, 142.495, 442.842)" fill="#caefd3"/><path d="M24,95.826,32.161,91v10.929Z" transform="translate(88.747 367.102)" fill="#1c1d29"/><path d="M0,3.182A3.177,3.177,0,0,1,3.079,0h0A3.177,3.177,0,0,1,6.261,3.079,3.024,3.024,0,0,1,3.182,6.158,3.024,3.024,0,0,1,0,3.182Z" transform="matrix(0.545, 0.839, -0.839, 0.545, 165.038, 436.332)" fill="#037a92"/><path d="M1.54,15.293V29.868a.8.8,0,0,1-.924.616A.925.925,0,0,1,0,29.868v-.616c0-9.34,0-18.577,0-27.918V.821A.793.793,0,0,1,.718,0h.1a.793.793,0,0,1,.821.718v.718C1.54,6.056,1.54,10.674,1.54,15.293Z" transform="matrix(0.545, 0.839, -0.839, 0.545, 136.323, 461.466)" fill="#1c1d29"/><path d="M1.54,15.293V29.868a.8.8,0,0,1-.924.616A.925.925,0,0,1,0,29.868v-.616c0-9.34,0-18.577,0-27.918V.821A.793.793,0,0,1,.718,0h.1a.793.793,0,0,1,.821.718v.718C1.54,6.056,1.54,10.674,1.54,15.293Z" transform="matrix(0.545, 0.839, -0.839, 0.545, 161.531, 500.281)" fill="#1c1d29"/><path d="M0,9.751V.616A.88.88,0,0,1,.718,0,.78.78,0,0,1,1.54.616v.616q0,8.622,0,17.243v.513a.771.771,0,0,1-.718.718A.793.793,0,0,1,0,18.988v-.616Q0,14.061,0,9.751Z" transform="matrix(0.545, 0.839, -0.839, 0.545, 132.621, 475.741)" fill="#1c1d29"/><path d="M0,9.751V.616A.88.88,0,0,1,.718,0,.78.78,0,0,1,1.54.616v.616q0,8.622,0,17.243v.513a.771.771,0,0,1-.718.718A.793.793,0,0,1,0,18.988v-.616Q0,14.061,0,9.751Z" transform="matrix(0.545, 0.839, -0.839, 0.545, 157.828, 514.556)" fill="#1c1d29"/><path d="M4.333,16.53a.775.775,0,0,1,.411-.718C7,13.656,9.157,11.5,11.415,9.345c.411-.411.513-.513,0-.821C7.926,6.266,4.436,4.008,1.049,1.852c-.205-.1-.308-.205-.513-.308C.125,1.237-.183.929.125.415A.783.783,0,0,1,1.357.21C3.923,1.852,6.489,3.6,9.055,5.239c1.642,1.026,3.284,2.155,4.927,3.182.411.205.513.411.1.718-2.771,2.669-5.542,5.235-8.211,7.9-.308.308-.616.513-1.026.308A1.047,1.047,0,0,1,4.333,16.53Z" transform="matrix(0.545, 0.839, -0.839, 0.545, 175.732, 516.863)" fill="#1c1d29"/><g transform="matrix(0.927, 0.375, -0.375, 0.927, 156.938, 443.004)" fill="none" stroke="#037a92" stroke-width="1.5"><rect width="39.782" height="48.155" stroke="none"/><rect x="0.75" y="0.75" width="38.282" height="46.655" fill="none"/></g><path d="M15.922,19.937a6.173,6.173,0,0,0-1.334.924,3.044,3.044,0,0,1-1.54.718,16.9,16.9,0,0,1-9.032-.308A21.852,21.852,0,0,1,.629,20.143c-.718-.308-.821-.513-.308-1.232,2.053-2.874,4.208-5.645,6.261-8.519a1.237,1.237,0,0,1,.513-.513A11.616,11.616,0,0,0,8.121,8.545L14.074.539c.513-.718.513-.718,1.129,0a19.225,19.225,0,0,1,4.208,8.108C20.233,13.061,19.309,16.858,15.922,19.937Z" transform="matrix(0.545, 0.839, -0.839, 0.545, 186.941, 454.768)" fill="#b8ced2"/><path d="M8.354,10.461a3.239,3.239,0,0,0-.7.485,1.6,1.6,0,0,1-.808.377,8.865,8.865,0,0,1-4.739-.162A11.465,11.465,0,0,1,.33,10.569C-.047,10.407-.1,10.3.168,9.922,1.245,8.415,2.376,6.96,3.453,5.453a.649.649,0,0,1,.269-.269,6.1,6.1,0,0,0,.539-.7L7.385.283c.269-.377.269-.377.592,0a10.087,10.087,0,0,1,2.208,4.254A5.967,5.967,0,0,1,8.354,10.461Z" transform="matrix(0.545, 0.839, -0.839, 0.545, 151.224, 466.359)" fill="#fff"/></g><path d="M471.819,377.2a24.187,24.187,0,0,1,5.191-11.219,22.672,22.672,0,0,1,10.708-6.887c1.455-.464,3-.512,4.411-1.092h.29a1.664,1.664,0,0,1,.109.7c-.245,2.964-.371,5.939-.73,8.888-.312,2.57-.462,5.153-.748,7.724-.169,1.516-.259,3.063-.415,4.585-.17,1.667-.144,3.35-.446,5.009a3.4,3.4,0,0,0,.187,2.531,11.318,11.318,0,0,0-.1,2.072c-.318,2.336-.51,4.681-.677,7.03-.156,2.2-.729,2.659-2.839,2.247a21.441,21.441,0,0,1-11.37-5.525,15.086,15.086,0,0,1-4.506-10.751,10.541,10.541,0,0,0-.086-1.583C471.067,379.664,470.894,378.28,471.819,377.2Z" transform="matrix(0.809, -0.588, 0.588, 0.809, -369.279, 542.136)" fill="#caefd3"/></g></svg>