<svg xmlns="http://www.w3.org/2000/svg" width="268.861" height="269.833" viewBox="0 0 268.861 269.833"><g transform="translate(-51.559 -342.109)"><path d="M691.366,496.774c-4.142-.729-8.286-1.44-12.374-.945-.585-.649-.19-1.108-.093-1.535.725-3.2,1.073-2.584-1.98-3.4-7.411-1.968-14.851-3.832-22.278-5.746a3.2,3.2,0,0,1-.642-.332c2.6-.994,4.509-3.02,6.714-4.592,3.559-2.537,6.987-5.26,10.479-7.894,1.354-1.023,1.435-1.014,2.475.362q8.656,11.46,17.3,22.932A1.909,1.909,0,0,1,691.366,496.774Z" transform="translate(1070.302 196.355) rotate(124)" fill="#caefd3"/><g transform="translate(51.3 401.033) rotate(-16)"><path d="M5.579,20.822C13.9,7.961,35.84-8.682,65.344,5.313s36.313,43.5,26.1,60.143S58.157,85.882,39.623,86.639,5.957,69.239,2.932,60.917-2.742,33.683,5.579,20.822Z" transform="translate(8.439 0)" fill="#d6f0f5"/><path d="M34.912,51.185C40.06,44.96,81.156-4.657,128.268.355s83.7,56.634,88.209,94.724-17.04,99.736-82.195,118.782S28.531,187.3,21.014,178.778s-30.071-51.623-17.04-77.183S29.764,57.41,34.912,51.185Z" transform="translate(0 0.939)" fill="#f2f4f4"/></g><path d="M471.639,376.977a.731.731,0,0,1-.345.046C471.381,376.792,471.491,376.735,471.639,376.977Z" transform="translate(-302.746 124.796)" fill="#1c1d29"/><path d="M472.62,392.26c1.5-7.41,4.281-14.181,9.265-20.021a40.459,40.459,0,0,1,19.109-12.29c2.6-.828,5.346-.914,7.871-1.948h.517a2.972,2.972,0,0,1,.194,1.244c-.436,5.289-.663,10.6-1.3,15.861-.557,4.587-.824,9.2-1.334,13.784-.3,2.7-.461,5.466-.74,8.182-.3,2.976-.257,5.978-.8,8.939-.269,1.476-.568,3.073.334,4.517a20.2,20.2,0,0,0-.18,3.7c-.567,4.168-.91,8.354-1.208,12.545-.278,3.92-1.3,4.745-5.066,4.01-7.627-1.49-14.612-4.274-20.291-9.859-5.389-5.3-7.808-11.766-8.042-19.186a18.815,18.815,0,0,0-.153-2.825C471.277,396.66,470.968,394.191,472.62,392.26Z" transform="matrix(0.809, -0.588, 0.588, 0.809, -356.611, 511.721)" fill="#d6f0f5"/><path d="M686.829,496.237a.616.616,0,0,1-.3-.636l.356.053-.041-.039C686.841,495.822,686.836,496.03,686.829,496.237Z" transform="translate(-394.381 -8.775)" fill="#1c1d29"/><path d="M631.619,444.81c-.031.121-.09.369-.16.613-3.513,12.2-11.143,20.754-22.794,25.743a5.849,5.849,0,0,1-.717.262c-.335.094-.68.106-.828-.29a.581.581,0,0,1,.388-.785c.166-.074.338-.135.506-.206q17.177-7.215,22.336-25.125a6.444,6.444,0,0,1,.185-.629.563.563,0,0,1,.694-.384C631.586,444.088,631.658,444.358,631.619,444.81Z" transform="matrix(0.899, -0.438, 0.438, 0.899, -551.116, 303.111)" fill="#1c1d29"/><path d="M622.824,447.171c-.08.211-.161.453-.262.685a29.443,29.443,0,0,1-10.283,12.62,3.351,3.351,0,0,1-.655.382.514.514,0,0,1-.664-.221.506.506,0,0,1,.081-.691,4.193,4.193,0,0,1,.518-.4,28.41,28.41,0,0,0,9.9-12.1,3.663,3.663,0,0,1,.345-.678.518.518,0,0,1,.684-.146A.6.6,0,0,1,622.824,447.171Z" transform="matrix(0.899, -0.438, 0.438, 0.899, -552.2, 302.957)" fill="#1c1d29"/><path d="M638.327,406.749c-.012.273-.094.516-.385.589a.566.566,0,0,1-.72-.335,7.551,7.551,0,0,1-.235-.725,27.715,27.715,0,0,0-8.125-12.969,2.149,2.149,0,0,1-.317-.3.54.54,0,0,1,.028-.783.492.492,0,0,1,.689-.081c.262.194.521.4.764.617a29.474,29.474,0,0,1,8.188,13.451C638.267,406.388,638.29,406.571,638.327,406.749Z" transform="matrix(0.899, -0.438, 0.438, 0.899, -550.25, 316.53)" fill="#1c1d29"/><path d="M626.49,432.973a.519.519,0,0,1-.581-.389.546.546,0,0,1,.238-.665,1.014,1.014,0,0,1,.2-.091c1.574-.569,3.147-1.144,4.727-1.7.329-.115.685-.075.795.341a.591.591,0,0,1-.435.764q-2.365.845-4.727,1.7A1.335,1.335,0,0,1,626.49,432.973Z" transform="matrix(0.899, -0.438, 0.438, 0.899, -553.703, 308.08)" fill="#1c1d29"/><path d="M598.711,461.253a.137.137,0,0,1-.13-.168A.139.139,0,0,1,598.711,461.253Z" transform="matrix(0.899, -0.438, 0.438, 0.899, -551.082, 298.54)" fill="#ffc2d6"/><path d="M593.008,465.515a.605.605,0,0,1,.421-.518c0,.356.205.7-.211.946C593.059,465.844,593.127,465.634,593.008,465.515Z" transform="matrix(0.899, -0.438, 0.438, 0.899, -550.294, 297.113)" fill="#aeadc3"/><path d="M592.951,465.678c.213.072.211.251.211.428-.12.037-.258.134-.354-.011C592.686,465.913,592.882,465.812,592.951,465.678Z" transform="matrix(0.899, -0.438, 0.438, 0.899, -550.314, 296.941)" fill="#efeff3"/><path d="M604.639,389.35l-27.759,3.863,5.514,39.638,27.759-3.863Zm-26.809,5.118,25.69-3.917,5.674,37.182-25.683,3.917Z" transform="matrix(0.899, -0.438, 0.438, 0.899, -538.881, 311.702)" fill="#1c1d29"/><g transform="translate(150.3 487.462)"><g transform="matrix(0.921, -0.391, 0.391, 0.921, 0, 24.042)"><g transform="translate(0 0)"><path d="M61.092,54.455,19.237,70.888A196.069,196.069,0,0,0,0,12.58L25.7,1.525a18.707,18.707,0,0,1,24.988,10.9A205.207,205.207,0,0,1,61.092,54.455Z" transform="translate(0.436 0.279)" fill="#caefd3"/><path d="M61.527,54.735s-.044-.187-.1-.531c-.061-.368-.144-.869-.25-1.51-.212-1.315-.539-3.295-1-5.817a213.04,213.04,0,0,0-5.052-21.157c-.66-2.2-1.357-4.508-2.154-6.889s-1.587-4.895-2.638-7.35A18.314,18.314,0,0,0,45.4,4.924a19.029,19.029,0,0,0-7.784-3.874,18.417,18.417,0,0,0-9.119.252c-.762.191-1.485.526-2.236.782l-2.236.964L19.486,5,.562,13.152l.158-.436,1.048,2.112A203.713,203.713,0,0,1,13.616,44.174a189.929,189.929,0,0,1,6.315,26.952l-.355-.2,30.4-11.8,8.5-3.264,2.25-.849c.513-.19.794-.277.794-.277s-.235.115-.726.319l-2.187.893-8.4,3.374L19.769,71.411l-.3.12-.053-.323a192.452,192.452,0,0,0-6.377-26.852A205.584,205.584,0,0,0,1.2,15.11C.838,14.389.482,13.669.151,13L0,12.7l.31-.133L19.24,4.433l4.54-1.948,2.237-.96c.776-.266,1.523-.607,2.31-.8A18.99,18.99,0,0,1,37.746.482,19.579,19.579,0,0,1,45.757,4.5a18.825,18.825,0,0,1,5.053,6.769c1.07,2.532,1.816,5.022,2.623,7.411.785,2.391,1.471,4.706,2.119,6.917a198.255,198.255,0,0,1,4.866,21.239c.423,2.539.709,4.5.883,5.859.077.651.138,1.16.182,1.534A3.756,3.756,0,0,1,61.527,54.735Z" fill="#caefd3"/></g><path d="M0,.866S6.242,13.683,5.693,14.131C5.186,14.545,21.2,8.149,21.4,8.05,21.4,8.05,13.085-3.14,0,.866Z" transform="translate(28.465 -0.307)" fill="#1c1d29"/><g transform="translate(13.639 18.524)"><path d="M11.573.018c.069.162-2.467,1.389-5.662,2.739S.07,5.07,0,4.908,2.467,3.52,5.663,2.169,11.5-.144,11.573.018Z" transform="translate(0 0)" fill="#1a2e35"/></g><g transform="translate(15.416 16.691)"><path d="M30.58.006c.073.16-6.712,3.45-15.155,7.348S.074,14.283,0,14.123s6.711-3.449,15.156-7.348S30.506-.154,30.58.006Z" transform="translate(0 0)" fill="#1a2e35"/></g><g transform="translate(21.112 31.72)"><path d="M30.58.006c.074.16-6.712,3.45-15.155,7.348S.074,14.282,0,14.123s6.711-3.449,15.157-7.348S30.506-.154,30.58.006Z" transform="translate(0 0)" fill="#1a2e35"/></g><g transform="translate(24.042 45.616)"><path d="M19.555.01a16.1,16.1,0,0,1-2.843,1.5c-1.789.851-4.279,1.986-7.044,3.2C5.328,6.623,1.6,8.169.193,8.653L0,8.72l.043-.183Q.2,7.869.257,7.879c.037.006.038.237,0,.693L.106,8.455c1.306-.709,4.965-2.416,9.3-4.327C12.177,2.911,14.694,1.84,16.53,1.1A16.133,16.133,0,0,1,19.555.01Z" transform="translate(0 0)" fill="#1a2e35"/></g></g><text transform="translate(32.014 54.779) rotate(-45)" fill="#1e5c68" font-size="12" font-family="Poppins-SemiBold, Poppins" font-weight="600"><tspan x="0" y="0">ECCE</tspan></text><path d="M7.21,3.606l0,.007c-1.945.422-2.851,1.71-3.578,4.075C3.091,5.437,2.334,4.105,0,3.506,1.942,2.665,3.111,1.632,3.649,0,4.258,1.746,5.827,2.6,7.21,3.606Z" transform="matrix(0.921, -0.391, 0.391, 0.921, 37.471, 2.819)" fill="#b8ced2"/></g><g transform="translate(156.454 392.534)"><path d="M7.21,3.606l0,.007c-1.945.422-2.851,1.71-3.578,4.075C3.091,5.437,2.334,4.105,0,3.506,1.943,2.665,3.111,1.632,3.649,0,4.258,1.746,5.828,2.6,7.21,3.606Z" transform="matrix(0.921, -0.391, 0.391, 0.921, 39.482, 2.819)" fill="#b8ced2"/><g transform="matrix(0.921, -0.391, 0.391, 0.921, 0, 18.759)"><g transform="translate(0 0)"><path d="M36.575,50.4,0,51.114A159.5,159.5,0,0,0,1.793,1.195L24.527.021A15.22,15.22,0,0,1,40.514,15.392,166.942,166.942,0,0,1,36.575,50.4Z" transform="translate(0.26 0.229)" fill="#caefd3"/><path d="M36.834,50.628s.019-.155.071-.434l.236-1.222c.21-1.063.519-2.666.882-4.719a173.277,173.277,0,0,0,2.121-17.569c.118-1.866.238-3.823.3-5.865.049-2.034.172-4.183.063-6.353A14.894,14.894,0,0,0,38.6,8.07a15.485,15.485,0,0,0-4.845-5.154A14.983,14.983,0,0,0,26.726.532C26.09.463,25.444.514,24.8.5L22.821.6l-4.014.21-16.74.871.244-.288c.064.6.133,1.254.2,1.908a165.66,165.66,0,0,1,.75,25.736A154.5,154.5,0,0,1,.469,51.384L.256,51.13l26.53-.413,7.408-.089,1.957-.012c.444,0,.684.012.684.012s-.212.022-.644.039l-1.921.063-7.365.2-26.64.625L0,51.562.051,51.3A156.528,156.528,0,0,0,2.77,29.013,167.193,167.193,0,0,0,2,3.355c-.07-.652-.138-1.3-.2-1.9l-.029-.275.274-.014L18.78.306,22.795.1,24.774,0c.667.016,1.333-.033,1.989.039a15.451,15.451,0,0,1,7.253,2.478,15.922,15.922,0,0,1,4.977,5.328,15.311,15.311,0,0,1,1.943,6.592c.1,2.234-.033,4.344-.092,6.4-.077,2.046-.207,4.007-.337,5.876A161.377,161.377,0,0,1,38.22,44.289c-.395,2.057-.73,3.633-.982,4.72-.125.519-.223.924-.294,1.222A2.951,2.951,0,0,1,36.834,50.628Z" fill="#caefd3"/></g><path d="M0,0S1.142,11.541.6,11.728c-.5.172,13.522-.183,13.7-.2C14.3,11.524,11.115.639,0,0Z" transform="translate(26.025 0.238)" fill="#1a2e35"/><g transform="translate(9.142 12.641)"><path d="M10.21.116a25.373,25.373,0,0,1-5.093.49A25.309,25.309,0,0,1,0,.578,25.429,25.429,0,0,1,5.093.088,25.4,25.4,0,0,1,10.21.116Z" transform="translate(0 0)" fill="#1a2e35"/></g><g transform="translate(8.411 17.19)"><path d="M27.318.031c.011.143-6.1.736-13.638,1.325S.011,2.306,0,2.164,6.094,1.428,13.639.839,27.306-.112,27.318.031Z" transform="translate(0 0)" fill="#1a2e35"/></g><g transform="translate(8.512 30.265)"><path d="M27.317.031c.012.143-6.1.736-13.638,1.325S.011,2.306,0,2.163,6.094,1.428,13.639.839,27.307-.112,27.317.031Z" transform="translate(0 0)" fill="#1a2e35"/></g><g transform="translate(8.348 38.555)"><path d="M17.379.059A13.026,13.026,0,0,1,14.787.4c-1.605.144-3.825.307-6.279.455-3.851.232-7.134.358-8.342.331L0,1.181l.084-.128C.29.743.407.6.434.612S.4.8.238,1.14L.155,1.009C1.352.837,4.626.568,8.477.336c2.454-.148,4.677-.253,6.288-.3A13.133,13.133,0,0,1,17.379.059Z" transform="translate(0 0)" fill="#1a2e35"/></g></g><text transform="translate(24.484 38.901) rotate(-27)" fill="#1e5c68" font-size="10" font-family="Poppins-SemiBold, Poppins" font-weight="600"><tspan x="0" y="0">AE</tspan></text></g><g transform="matrix(0.921, -0.391, 0.391, 0.921, 78.444, 484.422)"><g transform="translate(0 0)"><path d="M34.895,48.337,0,49.607H0A26.89,26.89,0,0,0,2.468,36.925l-1.227-24.3A13.428,13.428,0,0,1,6.9,1.178h0L39.264,0h0a17.4,17.4,0,0,0-3.02,10.446l.976,26.8a23.529,23.529,0,0,1-2.324,11.086Z" fill="#d6f0f5"/><path d="M34.895,48.337,0,49.607H0A26.89,26.89,0,0,0,2.468,36.925l-1.227-24.3A13.428,13.428,0,0,1,6.9,1.178h0L39.264,0h0a17.4,17.4,0,0,0-3.02,10.446l.976,26.8a23.529,23.529,0,0,1-2.324,11.086Z" fill="#d6f0f5" opacity="0.7"/></g><g transform="translate(5.953 14.03)"><path d="M25.4.056c0,.122-5.68.4-12.692.627S0,.991,0,.87,5.678.468,12.694.243,25.4-.066,25.4.056Z" transform="translate(0 0)" fill="#1a2e35"/></g><g transform="translate(5.814 18.579)"><path d="M26.256.054c0,.122-5.871.408-13.12.64S0,1.017,0,.9,5.87.488,13.122.255,26.252-.067,26.256.054Z" transform="translate(0 0)" fill="#1a2e35"/></g><g transform="translate(6.224 31.355)"><path d="M26.256.054c0,.122-5.871.409-13.121.641S0,1.017,0,.9,5.869.488,13.121.255,26.252-.067,26.256.054Z" transform="translate(0 0)" fill="#1a2e35"/></g><g transform="translate(6.36 35.981)"><path d="M13.633.091A9.078,9.078,0,0,1,11.641.31C10.409.39,8.706.469,6.824.53S3.236.62,2,.62A9.069,9.069,0,0,1,0,.528,9.087,9.087,0,0,1,1.991.309C3.224.229,4.927.15,6.809.09S10.4,0,11.631,0A9.087,9.087,0,0,1,13.633.091Z" transform="translate(0 0)" fill="#1a2e35"/></g><g transform="translate(23.752 37.064)"><path d="M7.4,3.663c-.041,0-.05-.318-.223-.849A3.584,3.584,0,0,0,5.8.982a3.418,3.418,0,0,0-5.36,2.9A3.419,3.419,0,0,0,5.978,6.441,3.587,3.587,0,0,0,7.234,4.525c.139-.541.126-.862.168-.862a1.9,1.9,0,0,1,0,.9A3.575,3.575,0,0,1,6.175,6.682a3.735,3.735,0,0,1-3.54.7A3.781,3.781,0,0,1,2.407.257,3.734,3.734,0,0,1,5.984.728a3.575,3.575,0,0,1,1.36,2.038A1.9,1.9,0,0,1,7.4,3.663Z" transform="translate(0 0)" fill="#1a2e35"/></g><rect width="10.134" height="1.461" transform="translate(5.8 10.12) rotate(-1.838)" fill="#1a2e35"/></g><text transform="translate(99.254 507.132) rotate(-25)" fill="#1e5c68" font-size="12" font-family="Poppins-SemiBold, Poppins" font-weight="600"><tspan x="0" y="0">SE</tspan></text><path d="M3.218,7.18C2.737,5.692.636,5.56,0,4.2,2.506,3.778,3.39,2.188,3.771,0c.957,1.866,1.737,3.712,4.7,4.41a6.3,6.3,0,0,0-4.462,4.3Z" transform="matrix(0.921, -0.391, 0.391, 0.921, 109.536, 466.729)" fill="#b8ced2"/><g transform="translate(215.058 375.283)"><path d="M4.259,9.448C3.779,6.818,2.669,5.354,0,4.6A5.15,5.15,0,0,0,4.255,0C5.024,2.287,6.113,3.837,8.7,4.59,6.1,5.449,5.025,6.994,4.259,9.448Z" transform="matrix(0.921, -0.391, 0.391, 0.921, 56.488, 3.4)" fill="#b8ced2"/><g transform="matrix(0.921, -0.391, 0.391, 0.921, 0, 28.73)"><g transform="translate(0 0)"><path d="M43.361,65.188,0,58.008H0A33.842,33.842,0,0,0,6.223,42.984L10.8,12.7A16.9,16.9,0,0,1,20.645,0h0l40.22,6.66h0a21.9,21.9,0,0,0-6.343,12.128L49.007,52.1a29.618,29.618,0,0,1-5.646,13.093Z" fill="#d6f0f5"/><path d="M43.361,65.188,0,58.008H0A33.842,33.842,0,0,0,6.223,42.984L10.8,12.7A16.9,16.9,0,0,1,20.645,0h0l40.22,6.66h0a21.9,21.9,0,0,0-6.343,12.128L49.007,52.1a29.618,29.618,0,0,1-5.646,13.093Z" fill="#d6f0f5" opacity="0.7"/></g><g transform="translate(16.042 16.675)"><path d="M31.535,5.376c-.025.151-7.106-.928-15.813-2.408S-.025.165,0,.014,7.1.941,15.815,2.422,31.561,5.226,31.535,5.376Z" transform="translate(0 0)" fill="#1a2e35"/></g><g transform="translate(14.724 22.284)"><path d="M32.6,5.556c-.026.151-7.344-.968-16.345-2.5S-.026.165,0,.014s7.343.968,16.346,2.5S32.623,5.406,32.6,5.556Z" transform="translate(0 0)" fill="#1a2e35"/></g><g transform="translate(12.027 38.145)"><path d="M32.6,5.556c-.026.151-7.344-.967-16.344-2.5S-.026.164,0,.014s7.342.968,16.346,2.5S32.623,5.406,32.6,5.556Z" transform="translate(0 0)" fill="#1a2e35"/></g><g transform="translate(11.128 43.42)"><path d="M16.925,2.9a11.424,11.424,0,0,1-2.511-.228c-1.54-.211-3.661-.54-6-.937S3.969.95,2.446.64A11.383,11.383,0,0,1,0,.026,11.46,11.46,0,0,1,2.512.254c1.54.211,3.66.54,6,.938s4.447.787,5.971,1.1A11.42,11.42,0,0,1,16.925,2.9Z" transform="translate(0 0)" fill="#1a2e35"/></g><g transform="translate(31.397 49.34)"><path d="M9.258,5.524c-.052-.007.018-.405-.062-1.1a4.51,4.51,0,0,0-1.239-2.6A4.3,4.3,0,0,0,.617,4.054,4.3,4.3,0,0,0,6.8,8.594a4.511,4.511,0,0,0,2.03-2.049c.306-.632.372-1.031.423-1.021a2.4,2.4,0,0,1-.226,1.108A4.5,4.5,0,0,1,6.986,8.941a4.7,4.7,0,0,1-4.541-.025A4.758,4.758,0,0,1,3.949.071,4.7,4.7,0,0,1,8.243,1.548,4.5,4.5,0,0,1,9.411,4.4,2.4,2.4,0,0,1,9.258,5.524Z" transform="translate(0 0)" fill="#1a2e35"/></g><rect width="12.756" height="1.839" transform="matrix(0.986, 0.168, -0.168, 0.986, 17.052, 10.755)" fill="#1a2e35"/></g><text transform="translate(32.612 52.391) rotate(-14)" fill="#1e5c68" font-size="12" font-family="Poppins-SemiBold, Poppins" font-weight="600"><tspan x="0" y="0">TE</tspan></text></g><path d="M254.62,24.421a4.526,4.526,0,0,1-4.5,4.5H249.8a4.642,4.642,0,0,1-4.5-4.714h0a4.662,4.662,0,1,1,9.32.214Z" transform="matrix(0.899, -0.438, 0.438, 0.899, -110.529, 661.324)" fill="#b8ced2"/><path d="M250.893,22.493a2.716,2.716,0,0,1-2.7,2.7H248a2.786,2.786,0,0,1-2.7-2.829h0a2.8,2.8,0,1,1,5.593.129Z" transform="matrix(0.899, -0.438, 0.438, 0.899, -98.066, 661.324)" fill="#b8ced2"/></g></svg>