<svg xmlns="http://www.w3.org/2000/svg" width="22.359" height="22.358" viewBox="0 0 22.359 22.358">
  <g id="sendsurvey" transform="translate(0 0)">
    <path id="Path_4520" data-name="Path 4520" d="M145.11,373.734l8.55,4.6,4.591,8.545a.581.581,0,0,0,.511.3h.039a.575.575,0,0,0,.5-.376l7.827-21.2a.579.579,0,0,0-.742-.743l-21.2,7.822a.575.575,0,0,0-.376.5A.588.588,0,0,0,145.11,373.734ZM158.666,385.2,154.8,378l10.33-10.33Zm5.647-18.345-10.33,10.335-7.2-3.868Z" transform="translate(-144.805 -364.821)" fill="#fff"/>
  </g>
</svg>
