<?xml version="1.0" encoding="utf-8"?>
<!-- Generator: Adobe Illustrator 25.4.1, SVG Export Plug-In . SVG Version: 6.00 Build 0)  -->
<svg version="1.1" id="Layer_1" xmlns="http://www.w3.org/2000/svg" xmlns:xlink="http://www.w3.org/1999/xlink" x="0px" y="0px"
	 viewBox="0 0 83.5 93.3" style="enable-background:new 0 0 83.5 93.3;" xml:space="preserve">
<style type="text/css">
	.st0{fill:#F4A661;}
	.st1{fill:#FFFFFF;}
</style>
<g>
	<path id="Intersection_1" class="st0" d="M41.9,91.9c-4.4-0.9-14.3-2.3-21.9-9C-0.7,64.7,11.7,40,2.5,7.2C1.8,4.7,1,2.3,0,0h64.5
		c10.5,0,19,8.5,19,19v68.9c-9.3,3.4-19,5.2-28.9,5.4C50.3,93.2,46.1,92.7,41.9,91.9z"/>
	<g id="sendsurvey" transform="translate(37.509 23)">
		<path id="Path_4520_00000072969815878682284290000012516172181508796804_" class="st1" d="M0.3,8.8l8.6,4.6l4.6,8.5
			c0.1,0.2,0.3,0.3,0.5,0.3l0,0c0.2,0,0.4-0.2,0.5-0.4l7.8-21.2c0.1-0.3,0-0.6-0.3-0.7c-0.1,0-0.3,0-0.4,0L0.4,7.7
			C0.2,7.8,0,8,0,8.2C0,8.5,0.1,8.7,0.3,8.8z M13.9,20.3L10,13.1L20.3,2.8L13.9,20.3z M19.5,1.9L9.2,12.2L2,8.3L19.5,1.9z"/>
	</g>
</g>
</svg>
