<svg xmlns="http://www.w3.org/2000/svg" width="291.977" height="161.274" viewBox="0 0 291.977 161.274">
  <g id="Group_329" data-name="Group 329" transform="translate(-41.792 -248.522)">
    <path id="Union_4" data-name="Union 4" d="M2134.41,45.346a8.317,8.317,0,0,1-1.292-4.61,7.63,7.63,0,0,1,1.444-4.694,4.811,4.811,0,0,1,4.064-1.937,4.645,4.645,0,0,1,3.212,1.134,5,5,0,0,1,1.59,2.815l.02.1-2.178.387-.023-.092a2.487,2.487,0,0,0-2.565-2.243,2.568,2.568,0,0,0-2.115,1.057,5.408,5.408,0,0,0-.828,3.307,6.816,6.816,0,0,0,.736,3.543,2.372,2.372,0,0,0,2.17,1.153,2.464,2.464,0,0,0,1.861-.776,2.854,2.854,0,0,0,.737-1.966h-2.615V40.487h4.959v6.675h-1.179l-.646-1.585a3.787,3.787,0,0,1-3.406,1.78A4.4,4.4,0,0,1,2134.41,45.346Zm-12.2.079a7.754,7.754,0,0,1-1.425-4.735A7.278,7.278,0,0,1,2122.3,36a4.922,4.922,0,0,1,4.02-1.9A4.777,4.777,0,0,1,2130.3,36a7.527,7.527,0,0,1,1.453,4.713,7.332,7.332,0,0,1-1.511,4.8,4.98,4.98,0,0,1-4.025,1.841A4.728,4.728,0,0,1,2122.212,45.425Zm1.96-8.15a6.772,6.772,0,0,0-.717,3.489,6.509,6.509,0,0,0,.731,3.421,2.272,2.272,0,0,0,2.054,1.137,2.541,2.541,0,0,0,2.01-.985,5.885,5.885,0,0,0,.831-3.638,6.884,6.884,0,0,0-.692-3.37,2.236,2.236,0,0,0-2.1-1.188A2.306,2.306,0,0,0,2124.172,37.274Zm-51.244,9.189a5.693,5.693,0,0,1-1.7-2.407,9.11,9.11,0,0,1-.591-3.33,7.727,7.727,0,0,1,1.393-4.769,4.93,4.93,0,0,1,7.06-.667,5.589,5.589,0,0,1,1.607,3.379l.015.1-2.309.243-.018-.088c-.383-1.876-1.193-2.787-2.48-2.787a2.1,2.1,0,0,0-1.9,1.144,6.774,6.774,0,0,0-.7,3.4,6.375,6.375,0,0,0,.744,3.419,2.2,2.2,0,0,0,1.93,1.129,2.124,2.124,0,0,0,1.633-.755,3.066,3.066,0,0,0,.772-1.825l.009-.1,2.316.254-.011.1a5.074,5.074,0,0,1-1.5,3.192,4.69,4.69,0,0,1-3.4,1.257A4.457,4.457,0,0,1,2072.928,46.463Zm127.62.7V34.3h8.346v2.083h-5.864v3.233h4.713v2.037h-4.713V45h5.947v2.166Zm-5.217,0V36.625L2192,47.163h-1.344l-.022-.069-3.33-10.472V47.163h-2.065V34.3h3.745l.023.069,2.557,7.86L2194.1,34.3h3.763V47.163Zm-15.309,0V36.625l-3.334,10.538h-1.344l-3.353-10.542V47.163h-2.064V34.3h3.745l2.579,7.929,2.535-7.929h3.763V47.163Zm-14.123,0-1.011-3.015h-4.727l-.993,3.015h-2.159l4.27-12.864h2.955l4.316,12.864Zm-5.106-5.043h3.416l-1.708-5.228Zm-7.232,5.043-1.967-5.2h-3.041v5.2h-2.482V34.3h5.593a4.827,4.827,0,0,1,3.436,1.063,3.655,3.655,0,0,1,1.107,2.749,3.44,3.44,0,0,1-2.253,3.413l2.236,5.639Zm-5.008-7.231h2.739a2.68,2.68,0,0,0,1.772-.5,1.676,1.676,0,0,0,.568-1.353,1.593,1.593,0,0,0-.559-1.274,2.369,2.369,0,0,0-1.6-.491h-2.924Zm-31.913,7.231-1.968-5.2h-3.04v5.2h-2.483V34.3h5.593a4.832,4.832,0,0,1,3.437,1.063,3.659,3.659,0,0,1,1.107,2.749,3.439,3.439,0,0,1-2.253,3.413l2.235,5.639Zm-5.008-7.231h2.739a2.679,2.679,0,0,0,1.771-.5,1.677,1.677,0,0,0,.569-1.353,1.593,1.593,0,0,0-.56-1.274,2.367,2.367,0,0,0-1.595-.491h-2.924Zm-13.961,7.231V34.3h5.286a4.478,4.478,0,0,1,3.362,1.149,3.988,3.988,0,0,1-.093,5.593,4.269,4.269,0,0,1-3.009,1.1h-3.064v5.018Zm2.482-7.177h2.6a2.2,2.2,0,0,0,1.546-.492,1.713,1.713,0,0,0,.525-1.31,1.812,1.812,0,0,0-.488-1.268,2.408,2.408,0,0,0-1.787-.524h-2.4Zm-15.076,7.177V41.747l-4.389-7.448h3l2.947,5.12,2.819-5.12h2.419l-4.171,7.447v5.417Zm-17.8,0-1.012-3.015h-4.726l-.993,3.015h-2.159L2062.66,34.3h2.956l4.315,12.864Zm-5.107-5.043h3.417l-1.708-5.228Zm-7.231,5.043-1.967-5.2h-3.04v5.2h-2.482V34.3h5.592a4.833,4.833,0,0,1,3.437,1.063,3.658,3.658,0,0,1,1.107,2.749,3.44,3.44,0,0,1-2.253,3.413l2.235,5.639Zm-5.008-7.231h2.739a2.679,2.679,0,0,0,1.771-.5,1.677,1.677,0,0,0,.569-1.353,1.593,1.593,0,0,0-.56-1.274,2.365,2.365,0,0,0-1.595-.491h-2.924Zm-12.774,7.231V34.3h8.346v2.083h-5.864v3.233h4.713v2.037h-4.713V45h5.947v2.166Zm-7.3,0V36.457h-3.367V34.3h9.384v2.158h-3.368V47.163Zm-7.136,0V34.3h2.482V47.163Zm-9.567,0V34.3h2.6V44.894h5.39v2.269Zm-8.873,0-1.012-3.015h-4.726l-.993,3.015h-2.16l4.27-12.864h2.955l4.316,12.864Zm-5.107-5.043h3.416l-1.708-5.228Zm-7.578,5.043V34.3h2.482V47.163Zm-12.6,0V34.3h4.766a5.319,5.319,0,0,1,4.232,1.868,6.842,6.842,0,0,1,1.592,4.588,6.635,6.635,0,0,1-1.64,4.566,5.987,5.987,0,0,1-4.694,1.842Zm2.547-2.065h1.8a3.331,3.331,0,0,0,2.524-1.118,4.8,4.8,0,0,0,1.04-3.356,5.131,5.131,0,0,0-.913-3.082,2.822,2.822,0,0,0-2.382-1.244h-2.071Zm-7.535,2.065-4.835-8.139-.362-.6c-.041-.068-.093-.157-.157-.266v9.007h-2.037V34.3h2.68l4.464,7.509c.031.052.23.388.621,1.049V34.3h2V47.163Zm-12.551,0V34.3h2.482V47.163Zm-12.273,0-.02-.074-2.423-8.941-2.218,9.014h-2.5l-.02-.073L1938.506,34.3h2.629l2.369,8.929,2.208-8.929h2.464l2.445,8.943,2.327-8.943h2.221l-3.44,12.864Zm-19.74,0V34.3h8.345v2.083h-5.863v3.233h4.712v2.037h-4.712V45h5.946v2.166Zm-5.053,0-4.835-8.139-.362-.6c-.041-.068-.093-.157-.157-.266v9.007H1917V34.3h2.68l4.464,7.509.621,1.049V34.3h2V47.163Zm118.757-28.351L2034.479,6.4l-.977-1.64h-.049V15.992a.429.429,0,0,0,.114.337,1.327,1.327,0,0,0,.318.2l2.017.876v1.274h-7.547V17.409l2.046-.877a1.016,1.016,0,0,0,.31-.205.456.456,0,0,0,.106-.335V2.588a.44.44,0,0,0-.113-.329.742.742,0,0,0-.3-.183l-2.13-.8V0h6.816l7.806,11.21.963,1.6h.049V2.652a.377.377,0,0,0-.1-.3,1.424,1.424,0,0,0-.343-.2l-2.031-.876V0H2049V1.274l-2.045.877a1.267,1.267,0,0,0-.311.191.381.381,0,0,0-.118.311V15.735l-.411,3.077Zm37.956-.129V17.405l2.049-.785a.823.823,0,0,0,.317-.2.524.524,0,0,0,.1-.352V2.575a.435.435,0,0,0-.106-.322.843.843,0,0,0-.306-.19l-2.049-.786V0h9.186a12.431,12.431,0,0,1,2.806.305,7.093,7.093,0,0,1,2.3.955,4.788,4.788,0,0,1,1.56,1.679,5.02,5.02,0,0,1,.573,2.471,7.318,7.318,0,0,1-.484,2.725,5.761,5.761,0,0,1-1.364,2.052,6.1,6.1,0,0,1-2.076,1.291,7.357,7.357,0,0,1-2.606.451,4.439,4.439,0,0,1-.746-.072,6.969,6.969,0,0,1-.837-.2c-.281-.086-.559-.187-.827-.3a4.971,4.971,0,0,1-.558-.274v4.99a.469.469,0,0,0,.124.359.811.811,0,0,0,.321.19l2.172.786v1.279Zm6.927-9.38c.1.025.214.049.341.068.161.025.336.049.518.07s.365.036.547.044.36.014.53.014a2.8,2.8,0,0,0,1.064-.186,2.564,2.564,0,0,0,.77-.477,2.628,2.628,0,0,0,.521-.664,3.763,3.763,0,0,0,.321-.766,4.285,4.285,0,0,0,.151-.743,5.756,5.756,0,0,0-.126-2.034,3.033,3.033,0,0,0-.562-1.174,2.842,2.842,0,0,0-1.071-.809,4.106,4.106,0,0,0-1.686-.306h-1.318Zm-24.94,9.38V17.405l2.049-.785a.722.722,0,0,0,.3-.188.512.512,0,0,0,.113-.363V2.575a.443.443,0,0,0-.113-.329.749.749,0,0,0-.3-.182l-2.053-.787V0h9.428V1.277l-2.049.785a1.073,1.073,0,0,0-.33.2.4.4,0,0,0-.121.318V16.3h6.034a.41.41,0,0,0,.15-.031.461.461,0,0,0,.143-.09.432.432,0,0,0,.1-.137.914.914,0,0,0,.063-.2l.83-3.87h1.921v6.709Zm-11.993,0V17.4l2.141-.784a.9.9,0,0,0,.323-.2.5.5,0,0,0,.1-.35V2.575a.428.428,0,0,0-.117-.328.8.8,0,0,0-.3-.184l-2.144-.786V0h9.609V1.278l-2.141.785a.8.8,0,0,0-.319.184.427.427,0,0,0-.117.328V16.069a.487.487,0,0,0,.112.355.838.838,0,0,0,.323.2l2.142.785v1.279Z" transform="translate(-1875.208 362.437)" fill="#202020"/>
    <g id="Group_121" data-name="Group 121" transform="translate(-0.465 159.064)">
      <g id="Group_118" data-name="Group 118" transform="translate(-545.4 -1141.542)">
        <path id="Path_252" data-name="Path 252" d="M0,40.681l4.262.527v70.379c19.012.081,41.066,2.659,46.808,5.514l7.4-.075c4.216-2.288,25.715-4.582,47.153-5.572L105.5,41.47l4.141-1.18.242,76.023c-17.225-1.522-37.23-.576-54.941,3.675C43.99,116.764,12.58,114.868,0,116.313V40.681Z" transform="translate(678.4 1202.306)" fill="#f38332" fill-rule="evenodd"/>
        <path id="Path_253" data-name="Path 253" d="M50.113,0C68.5,2.625,82.646,10.8,90.63,20.258,101.834,7.4,114.868,2.9,131.146,0V73.962c-15.725,1.574-27.453,7.451-40.212,15.348-9.051-5.149-22.558-15.613-40.7-15.348L50.11,0Z" transform="translate(642.712 1231)" fill="#288d85" fill-rule="evenodd"/>
        <path id="Union_1" data-name="Union 1" d="M64.053,77.732C76.477,72.523,79.686,72.48,92.047,70.9l.1-69.979L96.287,0V75.631c-12.568.394-25.928,1.448-37.437,4.858ZM0,75.631V0L4.141.918l.1,69.979c12.361,1.583,15.57,1.626,27.994,6.835l5.2,2.757C25.928,77.079,12.568,76.025,0,75.631Z" transform="translate(685.138 1235.896)" fill="#fdbf44"/>
        <path id="Path_256" data-name="Path 256" d="M159.846,110.59A12.512,12.512,0,0,1,171.922,122.8h-9.451v-3.151a3.165,3.165,0,0,0-2.625-3.108Zm-.722,6.821h0a2.174,2.174,0,0,1,2.167,2.167v4.6a2.174,2.174,0,0,1-2.167,2.167h0a2.174,2.174,0,0,1-2.167-2.167v-4.6A2.174,2.174,0,0,1,159.124,117.411Zm-.855-.875a3.16,3.16,0,0,0-2.625,3.108V122.8h-9.451a12.512,12.512,0,0,1,12.076-12.206Zm13.656,7.834v12.079a12.509,12.509,0,0,1-12.473,12.473h-.789a12.509,12.509,0,0,1-12.473-12.473V124.37h9.466a3.164,3.164,0,0,0,3.14,2.89h.527a3.164,3.164,0,0,0,3.14-2.89h9.466Z" transform="translate(574.284 1152.238)" fill="#fff" fill-rule="evenodd"/>
        <path id="Path_257" data-name="Path 257" d="M188.17,66.74h1.574V79.412H188.17Z" transform="translate(544.386 1183.468)" fill="#fff" fill-rule="evenodd"/>
      </g>
    </g>
  </g>
</svg>
