<svg xmlns="http://www.w3.org/2000/svg" width="21.478" height="21.478" viewBox="0 0 21.478 21.478">
  <g id="surveysent" transform="translate(-2.5 -2.522)">
    <g id="Group_7414" data-name="Group 7414" transform="translate(2.5 2.522)">
      <path id="Path_5079" data-name="Path 5079" d="M38.529,2.969a1.53,1.53,0,0,0-1.651-.339h0L22.858,8.17a1.541,1.541,0,0,0-.181,2.782l4.975,2.714,2.895,5.156a1.5,1.5,0,0,0,1.334.791h.09a1.526,1.526,0,0,0,1.334-.972L38.868,4.62A1.53,1.53,0,0,0,38.529,2.969Zm-2.6,1.583-7.892,7.892L23.4,9.708c-.09-.045-.068-.158.023-.2ZM31.79,18.075l-2.6-4.749L36.946,5.57,31.994,18.075A.11.11,0,0,1,31.79,18.075Z" transform="translate(-17.498 -2.522)"/>
      <path id="Path_5080" data-name="Path 5080" d="M25.332,58.8a.738.738,0,0,0-1.018,0L21.1,62.015a.738.738,0,0,0,0,1.018.716.716,0,0,0,.52.2.755.755,0,0,0,.52-.2l3.189-3.211A.738.738,0,0,0,25.332,58.8Z" transform="translate(-16.739 -45.918)"/>
      <path id="Path_5081" data-name="Path 5081" d="M6.932,47.7a.738.738,0,0,0-1.018,0L2.7,50.915a.738.738,0,0,0,0,1.018.766.766,0,0,0,1.04,0l3.189-3.189A.766.766,0,0,0,6.932,47.7Z" transform="translate(-2.5 -37.329)"/>
      <path id="Path_5082" data-name="Path 5082" d="M35.415,77.213,32.2,80.424a.738.738,0,0,0,0,1.018.716.716,0,0,0,.52.2.8.8,0,0,0,.52-.2l3.189-3.189a.738.738,0,0,0,0-1.018A.717.717,0,0,0,35.415,77.213Z" transform="translate(-25.329 -60.167)"/>
    </g>
  </g>
</svg>
