<svg xmlns="http://www.w3.org/2000/svg" width="54" height="54" viewBox="0 0 54 54">
  <g id="Group_346" data-name="Group 346" transform="translate(-238.5 -412)">
    <g id="survey" transform="translate(209.5 -91)">
      <circle id="Ellipse_321" data-name="Ellipse 321" cx="27" cy="27" r="27" transform="translate(29 503)" fill="#74b47c"/>
      <path id="Path_264" data-name="Path 264" d="M23.031,2.5H4.969A2.48,2.48,0,0,0,2.5,4.969V23.031A2.48,2.48,0,0,0,4.969,25.5H23.031A2.48,2.48,0,0,0,25.5,23.031V4.969A2.48,2.48,0,0,0,23.031,2.5ZM10.247,20a.424.424,0,0,1-.412.412H7.657A.424.424,0,0,1,7.245,20V11.046a.424.424,0,0,1,.412-.412H9.836a.424.424,0,0,1,.412.412ZM15.5,20a.424.424,0,0,1-.412.412H12.911A.424.424,0,0,1,12.5,20V8a.424.424,0,0,1,.412-.412h2.179A.424.424,0,0,1,15.5,8Zm5.254,0a.424.424,0,0,1-.412.412H18.164A.424.424,0,0,1,17.753,20V13.831a.424.424,0,0,1,.412-.412h2.179a.424.424,0,0,1,.412.412Z" transform="translate(42.5 516.5)" fill="#fff"/>
    </g>
  </g>
</svg>
