<svg xmlns="http://www.w3.org/2000/svg" width="54" height="54" viewBox="0 0 54 54">
  <g id="tag" transform="translate(-207 -501)">
    <circle id="Ellipse_319" data-name="Ellipse 319" cx="27" cy="27" r="27" transform="translate(207 501)" fill="#c55f5f"/>
    <path id="Icon_awesome-tag" data-name="Icon awesome-tag" d="M0,10.637V2.025A2.071,2.071,0,0,1,2.113,0H11.1a2.161,2.161,0,0,1,1.494.593l9.328,8.939a1.966,1.966,0,0,1,0,2.864l-8.986,8.612a2.179,2.179,0,0,1-2.989,0L.619,12.069A1.983,1.983,0,0,1,0,10.637ZM4.931,2.7A2.071,2.071,0,0,0,2.818,4.725,2.071,2.071,0,0,0,4.931,6.751,2.071,2.071,0,0,0,7.044,4.725,2.071,2.071,0,0,0,4.931,2.7Z" transform="translate(223 517)" fill="#fff"/>
  </g>
</svg>
