<svg xmlns="http://www.w3.org/2000/svg" width="166.326" height="151.085" viewBox="0 0 166.326 151.085">
  <g id="successful" transform="translate(-93.826 -173.915)">
    <rect id="Rectangle_2184" data-name="Rectangle 2184" width="90.112" height="90.112" rx="45" transform="translate(142.944 204.901)" fill="#288d85"/>
    <path id="Path_5070" data-name="Path 5070" d="M4724.615-426.11a3.053,3.053,0,0,1-2.158-.894l-11.489-11.489a3.052,3.052,0,0,1,0-4.316,3.052,3.052,0,0,1,4.316,0l8.844,8.844,17.129-25.967a3.052,3.052,0,0,1,4.229-.867,3.052,3.052,0,0,1,.867,4.228l-19.189,29.09a3.052,3.052,0,0,1-2.239,1.356A3.062,3.062,0,0,1,4724.615-426.11Z" transform="translate(-4541.171 692.882)" fill="#fff"/>
    <ellipse id="Ellipse_311" data-name="Ellipse 311" cx="5.034" cy="5.034" rx="5.034" ry="5.034" transform="translate(168.902 173.915)" fill="#f38332"/>
    <ellipse id="Ellipse_312" data-name="Ellipse 312" cx="5.034" cy="5.034" rx="5.034" ry="5.034" transform="translate(123.594 223.042)" fill="#288d85"/>
    <ellipse id="Ellipse_313" data-name="Ellipse 313" cx="5.034" cy="5.034" rx="5.034" ry="5.034" transform="translate(248.631 239.476)" fill="#288d85"/>
    <ellipse id="Ellipse_314" data-name="Ellipse 314" cx="5.034" cy="5.034" rx="5.034" ry="5.034" transform="translate(200.265 314.932)" fill="#fdbf44"/>
    <ellipse id="Ellipse_315" data-name="Ellipse 315" cx="5.034" cy="5.034" rx="5.034" ry="5.034" transform="translate(134.82 299.482)" fill="#f38332"/>
    <ellipse id="Ellipse_316" data-name="Ellipse 316" cx="2.257" cy="2.257" rx="2.257" ry="2.257" transform="translate(186.84 185.546)" fill="#288d85"/>
    <ellipse id="Ellipse_317" data-name="Ellipse 317" cx="2.257" cy="2.257" rx="2.257" ry="2.257" transform="translate(188.2 312.675)" fill="#288d85"/>
    <path id="Path_5072" data-name="Path 5072" d="M545.846,1076.308a2.5,2.5,0,0,1-2.5-2.5c0-5.249-1.814-9.226-5.391-11.82a14.014,14.014,0,0,0-5.334-2.373,2.5,2.5,0,1,1,.757-4.942,18.961,18.961,0,0,1,7.512,3.268c3.4,2.466,7.455,7.222,7.455,15.868A2.5,2.5,0,0,1,545.846,1076.308Z" transform="translate(-299.786 -763.633)" fill="#f38332"/>
    <path id="Path_5073" data-name="Path 5073" d="M375.149,1036.235q-1.489,0-3.089-.139a43.779,43.779,0,0,1-8.108-1.492,2.25,2.25,0,0,1,1.309-4.305,39.967,39.967,0,0,0,7.274,1.322c3.459.293,8.205.164,11.173-2.117a7.059,7.059,0,0,0,1.409-1.44,10.925,10.925,0,0,1-5.37-5.763c-1.768-3.844-.7-7.042.889-8.753a5.726,5.726,0,0,1,2.63-1.633,5.143,5.143,0,0,1,3.215.131,6.372,6.372,0,0,1,3.423,3.283,14.45,14.45,0,0,1,1.321,6.008,20.351,20.351,0,0,1-.082,2.7,18.133,18.133,0,0,0,8.91-6.714,2.25,2.25,0,0,1,3.778,2.444,22.805,22.805,0,0,1-6.316,6.151,16.84,16.84,0,0,1-7.648,2.913,11.53,11.53,0,0,1-3.426,4.243,15.555,15.555,0,0,1-7.121,2.849A26.624,26.624,0,0,1,375.149,1036.235Zm9.529-20.016a1.114,1.114,0,0,0-.744.391c-.6.644-.938,1.983-.1,3.81a6.951,6.951,0,0,0,2.813,3.379,15.836,15.836,0,0,0,.08-2.311c-.122-3.634-1.2-5-1.822-5.227A.651.651,0,0,0,384.677,1016.218Z" transform="translate(-268.53 -750.114)" fill="#fdbf44"/>
    <path id="Path_5073-2" data-name="Path 5073" d="M381.167,1011.717q.964,0,2,.09a28.361,28.361,0,0,1,5.251.966,1.457,1.457,0,0,1-.848,2.788,25.885,25.885,0,0,0-4.711-.856c-2.24-.19-5.314-.106-7.236,1.371a4.569,4.569,0,0,0-.913.933,7.075,7.075,0,0,1,3.478,3.733,5.041,5.041,0,0,1-.576,5.669,3.708,3.708,0,0,1-1.7,1.057,3.33,3.33,0,0,1-2.082-.085,4.127,4.127,0,0,1-2.217-2.126,9.359,9.359,0,0,1-.855-3.891,13.179,13.179,0,0,1,.053-1.75,11.745,11.745,0,0,0-5.771,4.348,1.457,1.457,0,1,1-2.447-1.583,14.771,14.771,0,0,1,4.091-3.984,10.907,10.907,0,0,1,4.953-1.886,7.468,7.468,0,0,1,2.219-2.748,10.075,10.075,0,0,1,4.612-1.845A17.242,17.242,0,0,1,381.167,1011.717ZM375,1024.681a.722.722,0,0,0,.482-.253,2.222,2.222,0,0,0,.064-2.467,4.5,4.5,0,0,0-1.822-2.189,10.259,10.259,0,0,0-.052,1.5c.079,2.354.779,3.235,1.18,3.385A.424.424,0,0,0,375,1024.681Z" transform="translate(-129.3 -823.914)" fill="#fdbf44"/>
  </g>
</svg>
